<svg width="28" height="28" viewBox="0 0 28 28" fill="none" xmlns="http://www.w3.org/2000/svg">
  <g clip-path="url(#clip0)">
    <path d="M14.0046 6.811C10.0345 6.811 6.82031 10.0287 6.82031 13.9953C6.82031 17.9655 10.038 21.1797 14.0046 21.1797C17.9748 21.1797 21.189 17.962 21.189 13.9953C21.189 10.0252 17.9713 6.811 14.0046 6.811ZM14.0046 18.6585C11.4275 18.6585 9.34148 16.5713 9.34148 13.9953C9.34148 11.4193 11.4286 9.33217 14.0046 9.33217C16.5806 9.33217 18.6678 11.4193 18.6678 13.9953C18.669 16.5713 16.5818 18.6585 14.0046 18.6585Z" fill="#EC0343"/>
    <path d="M19.7724 0.089393C17.1964 -0.0307736 10.8159 -0.0249403 8.23761 0.089393C5.97194 0.19556 3.97344 0.742726 2.36228 2.35389C-0.33039 5.04656 0.0137769 8.67489 0.0137769 13.9961C0.0137769 19.4421 -0.289556 22.9864 2.36228 25.6382C5.06544 28.3402 8.74627 27.9867 14.0044 27.9867C19.3991 27.9867 21.2611 27.9902 23.1686 27.2517C25.7621 26.2449 27.7198 23.9267 27.9111 19.7629C28.0324 17.1857 28.0254 10.8064 27.9111 8.22806C27.6801 3.31289 25.0423 0.33206 19.7724 0.089393ZM23.8499 23.8567C22.0848 25.6219 19.6359 25.4644 13.9706 25.4644C8.13728 25.4644 5.79811 25.5507 4.09128 23.8392C2.12544 21.8827 2.48128 18.7409 2.48128 13.9774C2.48128 7.53156 1.81978 2.88939 8.28894 2.55806C9.77528 2.50556 10.2128 2.48806 13.9543 2.48806L14.0068 2.52306C20.2239 2.52306 25.1018 1.87206 25.3946 8.34006C25.4611 9.81589 25.4763 10.2592 25.4763 13.9949C25.4751 19.7606 25.5848 22.1137 23.8499 23.8567Z" fill="#EC0343"/>
    <path d="M21.4738 8.20634C22.4009 8.20634 23.1526 7.4547 23.1526 6.5275C23.1526 5.60031 22.4009 4.84867 21.4738 4.84867C20.5466 4.84867 19.7949 5.60031 19.7949 6.5275C19.7949 7.4547 20.5466 8.20634 21.4738 8.20634Z" fill="#EC0343"/>
  </g>
  <defs>
    <clipPath id="clip0">
      <rect width="28" height="28" fill="white"/>
    </clipPath>
  </defs>
</svg>
