<svg width="499" height="451" viewBox="0 0 499 451" fill="none" xmlns="http://www.w3.org/2000/svg">
  <path d="M36.9033 162.36C34.8943 162.695 32.5505 162.695 29.8719 162.024C27.5281 161.353 25.5191 160.682 24.8494 160.347C23.8449 160.012 23.1753 159.341 22.8404 159.005L3.75513 183.495L5.42928 184.836C6.7686 185.507 8.77758 186.514 11.1214 187.52C13.4652 188.527 16.4787 189.533 19.4921 190.204C22.5056 191.21 26.5236 191.546 31.2112 191.546C35.8988 191.546 40.5864 191.21 45.2741 190.204C58.6673 187.52 68.3773 181.482 74.7391 172.759C81.1009 164.037 83.1098 154.309 80.766 143.238C79.4267 136.193 75.7436 131.161 70.3863 127.471C65.029 123.781 58.6673 122.774 51.6358 124.116C47.283 125.123 43.5999 126.464 40.5864 128.477L41.2561 121.432L75.4088 114.052V85.5369L11.4562 99.2912L7.43826 154.979L30.8764 155.315L31.546 154.309C32.2157 153.638 32.8853 153.302 33.8898 152.631C34.8943 151.96 36.2336 151.625 37.2381 151.289C38.9123 150.954 40.2516 150.954 41.2561 151.625C42.2606 152.296 42.9302 153.302 43.2651 154.644C43.5999 156.657 43.2651 158.334 41.5909 159.676C40.2516 161.018 38.5775 162.024 36.9033 162.36Z" stroke="#EC0343" stroke-width="4" stroke-miterlimit="10.288"/>
  <path d="M173.179 103.317C170.835 91.5753 165.143 82.853 156.772 76.8145C148.401 71.1115 138.691 69.0987 127.307 71.7825C120.945 73.1244 115.253 75.8081 109.896 79.8338C104.539 83.8595 99.8511 88.8915 96.168 94.5946C92.4848 100.298 90.141 107.342 88.4669 115.058C87.1276 122.774 87.1275 131.161 89.1365 139.212C91.8152 150.954 97.1725 160.011 105.543 165.715C113.914 171.418 123.624 173.095 134.673 170.747C144.718 168.734 152.754 163.702 159.451 155.986C166.147 148.27 170.5 139.883 172.509 130.49C174.853 121.768 175.188 112.375 173.179 103.317ZM131.995 140.554C127.642 141.561 124.629 138.877 123.289 132.167C122.62 129.148 122.285 125.793 122.285 121.768C122.285 117.742 122.954 113.716 124.294 109.691C125.633 105.665 127.642 103.317 130.655 102.646C135.008 101.639 137.687 104.323 139.026 110.697C139.361 112.71 139.696 115.394 140.031 118.078C140.031 121.097 140.031 124.116 139.696 127.471C139.361 130.825 138.691 133.509 137.352 136.193C136.013 138.541 134.339 140.219 131.995 140.554Z" stroke="#EC0343" stroke-width="4" stroke-miterlimit="10.288"/>
  <path d="M181.884 146.257C182.554 149.947 184.898 152.967 187.911 154.644C191.26 156.657 195.277 156.992 199.965 155.986C204.988 154.979 209.006 152.296 211.684 148.606C214.363 144.58 215.367 140.219 214.363 135.858C213.693 132.167 211.349 129.148 208.001 127.135C204.653 125.123 200.635 124.787 195.612 125.793C190.59 126.8 186.907 129.484 184.228 133.509C181.884 137.535 181.215 141.561 181.884 146.257Z" stroke="#EC0343" stroke-width="4" stroke-miterlimit="10.288"/>
  <path d="M307.445 74.8018C305.102 63.0603 299.41 54.338 291.039 48.2995C282.668 42.5965 272.958 40.5837 261.574 43.2675C255.212 44.6093 249.52 47.2931 244.163 51.3188C238.805 55.3444 234.118 60.3765 230.435 66.0795C226.751 71.7825 224.408 78.8274 222.733 86.5433C221.394 94.2591 221.394 102.646 223.403 110.697C226.082 122.439 231.439 131.496 239.81 137.199C248.181 142.902 257.891 144.58 268.94 142.232C278.985 140.219 287.021 135.187 293.717 127.471C300.414 119.755 304.767 111.368 306.776 101.975C309.12 92.9172 309.12 83.8595 307.445 74.8018ZM266.261 112.039C261.909 113.046 258.895 110.362 257.556 103.652C256.886 100.633 256.551 97.2784 256.551 93.2527C256.551 89.2271 257.221 85.2014 258.56 81.1757C259.9 77.1501 261.909 74.8018 264.922 74.1308C269.275 73.1244 271.954 75.8082 273.293 82.1822C273.628 84.195 273.962 86.8788 274.297 89.5625C274.297 92.5818 274.297 95.601 273.962 98.9557C273.628 102.31 272.958 104.994 271.619 107.678C270.279 110.026 268.27 111.704 266.261 112.039Z" stroke="#EC0343" stroke-width="4" stroke-miterlimit="10.288"/>
  <path d="M401.198 55.0091C398.854 43.2676 393.162 34.5453 384.791 28.5068C376.421 22.4683 366.711 20.791 355.326 23.4747C348.965 24.8166 343.273 27.5004 337.915 31.5261C332.558 35.5517 327.87 40.5838 324.187 46.2868C320.504 51.9898 318.16 59.0347 316.486 66.7506C315.147 74.4664 315.147 82.8532 317.156 90.9045C319.834 102.646 325.192 111.704 333.562 117.407C341.933 123.11 351.643 124.787 362.693 122.439C372.738 120.426 380.773 115.394 387.47 107.678C394.167 99.9623 398.519 91.5755 400.528 82.1823C402.872 73.1245 402.872 63.7313 401.198 55.0091ZM360.014 91.9109C355.661 92.9174 352.648 90.2336 351.308 83.5241C350.639 80.5049 350.304 77.1502 350.304 73.1245C350.304 69.0989 350.974 65.0732 352.313 61.0476C353.652 57.0219 355.661 54.6736 358.675 54.0027C363.028 52.9962 365.706 55.68 367.045 62.054C367.38 64.0668 367.715 66.7506 368.05 69.4344C368.05 72.4536 368.05 75.4728 367.715 78.8276C367.38 82.1823 366.711 84.866 365.371 87.5498C364.032 90.2336 362.358 91.5755 360.014 91.9109Z" stroke="#EC0343" stroke-width="4" stroke-miterlimit="10.288"/>
  <path d="M494.951 34.8808C492.607 23.1393 486.915 14.417 478.544 8.37851C470.173 2.6755 460.463 0.662669 449.079 3.34644C442.717 4.68833 437.025 7.3721 431.668 11.3978C426.31 15.4234 421.623 20.4555 417.94 26.1585C414.257 31.8615 411.913 38.9064 410.239 46.6223C408.899 54.3381 408.899 62.7249 410.908 70.7762C413.587 82.5177 418.944 91.5754 427.315 97.2785C435.686 102.981 445.396 104.659 456.445 102.311C466.49 100.298 474.526 95.2656 481.223 87.5498C487.919 79.8339 492.272 71.4472 494.281 62.054C496.625 52.9962 496.96 43.9385 494.951 34.8808ZM453.767 72.1181C449.414 73.1245 446.4 70.4407 445.061 63.7313C444.391 60.7121 444.056 57.3573 444.056 53.3317C444.056 49.306 444.726 45.2804 446.065 41.2547C447.405 37.2291 449.414 34.8808 452.427 34.2098C456.78 33.2034 459.459 35.8872 460.798 42.2611C461.133 44.274 461.468 46.9577 461.802 49.6415C461.802 52.6607 461.802 55.68 461.468 59.0347C461.133 62.3894 460.463 65.0732 459.124 67.757C457.784 70.1053 456.11 71.4472 453.767 72.1181Z" stroke="#EC0343" stroke-width="4" stroke-miterlimit="10.288"/>
  <path d="M63.6893 273.401L43.5995 277.762V239.183L30.5411 241.867V280.446L10.1165 284.807V227.441L63.6893 216.035V273.401Z" fill="#EC0343"/>
  <path d="M132.664 243.879C130.32 249.582 126.972 254.279 122.285 258.305C117.597 262.33 112.24 265.014 106.213 266.356C97.5072 268.033 90.1409 267.027 83.4443 263.001C77.0825 258.976 73.0646 253.273 71.3904 245.892C69.7163 237.505 71.3904 229.454 77.0825 221.403C82.7746 213.687 90.1409 208.655 99.5161 206.642C108.222 204.965 115.588 205.971 122.285 209.997C128.646 214.022 132.664 219.725 134.338 227.106C135.343 232.473 135.008 238.176 132.664 243.879ZM111.905 242.202C113.914 239.183 114.583 236.164 113.914 233.144C113.244 230.461 111.905 228.448 109.561 226.77C107.217 225.093 104.873 224.758 101.86 225.428C98.5116 226.099 95.833 228.112 93.824 230.796C91.815 233.815 91.1454 236.834 91.8151 239.854C92.4847 242.538 93.824 244.55 96.1678 246.228C98.5116 247.905 101.19 248.241 103.869 247.57C107.217 246.899 109.561 245.221 111.905 242.202Z" fill="#EC0343"/>
  <path d="M137.687 238.847C138.022 238.512 138.022 238.512 138.357 237.841C138.691 237.505 139.361 236.499 140.031 235.157C140.7 233.815 141.705 232.473 142.04 230.796C142.709 229.454 143.044 227.441 143.714 224.757C144.384 222.409 144.384 219.725 144.384 217.042V198.255L189.251 188.526V227.106L194.943 225.764V255.285L174.518 259.646V248.911L154.428 253.273V264.008L134.339 268.369V238.847H137.687ZM163.804 221.067C163.469 223.416 162.799 225.428 162.464 227.106C161.795 228.783 161.46 230.125 160.79 231.131C160.121 232.473 159.786 233.144 159.451 233.815L158.781 234.486L169.496 232.138V212.345L164.473 213.351C164.473 216.035 164.138 218.719 163.804 221.067Z" fill="#EC0343"/>
  <path d="M256.551 232.473L235.122 237.17L232.778 227.777L219.385 230.461L217.376 240.86L194.943 245.557L214.363 184.165L237.466 179.133L256.551 232.473ZM226.417 201.945L223.403 214.022L228.76 213.016L226.417 201.945Z" fill="#EC0343"/>
  <path d="M286.352 168.734C292.379 167.392 297.401 168.063 301.419 170.747C305.437 173.43 308.45 177.12 309.455 181.817C310.794 188.862 309.79 194.9 306.107 200.268C302.423 205.636 296.731 208.99 289.03 210.668L280.659 212.345V227.106L260.235 231.467V174.101L286.352 168.734ZM280.994 187.856V194.565L286.352 193.559C287.356 193.223 288.361 192.888 289.03 191.881C289.7 190.875 290.035 190.204 289.7 189.197C289.7 188.526 289.03 187.856 288.361 187.52C287.691 187.185 287.021 186.849 286.017 187.185L280.994 187.856Z" fill="#EC0343"/>
  <path d="M337.246 202.616V215.364L316.821 219.725V162.36L337.246 157.999V173.766L348.295 155.315L371.398 150.283L354.322 178.127L373.072 207.313L351.309 212.01L340.929 195.907L337.246 202.616Z" fill="#EC0343"/>
  <path d="M432.002 180.14C429.659 185.843 426.31 190.539 421.623 194.565C416.935 198.591 411.578 201.275 405.551 202.616C396.845 204.294 389.479 203.287 382.782 199.262C376.421 195.236 372.403 189.533 370.729 182.153C369.054 173.766 370.729 165.715 376.421 157.663C382.113 149.947 389.479 144.915 398.854 142.903C407.56 141.225 414.926 142.232 421.623 146.257C427.984 150.283 432.002 155.986 433.677 163.366C434.681 168.734 434.346 174.437 432.002 180.14ZM410.908 178.463C412.917 175.443 413.587 172.424 412.917 169.405C412.248 166.721 410.908 164.708 408.564 163.031C406.221 161.353 403.877 161.018 400.863 161.689C397.515 162.36 394.836 164.373 392.827 167.056C390.818 170.076 390.149 173.095 390.818 176.114C391.488 178.798 392.827 180.811 395.171 182.488C397.515 184.166 400.194 184.501 402.872 183.83C406.221 183.159 408.899 181.482 410.908 178.463Z" fill="#EC0343"/>
  <path d="M441.377 193.223V135.858L467.159 130.49C473.186 129.148 478.208 129.484 482.226 131.161C485.91 132.838 488.253 135.522 489.258 139.212C490.262 144.58 488.253 149.276 483.231 153.302C481.892 154.308 480.887 154.979 480.887 154.979C481.222 154.979 481.557 154.979 481.892 155.315C482.226 155.315 483.231 155.65 484.235 155.986C485.24 156.321 486.579 156.992 487.249 157.663C488.253 158.334 489.258 159.005 489.928 160.347C490.932 161.689 491.602 163.031 491.602 164.373C492.606 169.405 491.267 173.766 487.919 178.127C484.235 182.488 478.878 185.172 470.842 186.849L441.377 193.223ZM461.802 146.928V152.631L465.15 151.96C466.155 151.625 467.159 151.289 467.494 150.618C468.164 149.947 468.164 148.941 467.829 147.935C467.829 147.264 467.494 146.928 466.824 146.593C466.155 146.257 465.485 146.257 464.815 146.257L461.802 146.928ZM467.494 172.088C468.498 171.753 469.503 171.418 470.173 170.411C470.842 169.405 470.842 168.734 470.842 167.727C470.842 167.056 470.173 166.385 469.503 166.05C468.833 165.714 468.164 165.379 467.159 165.714L461.802 166.721V173.43L467.494 172.088Z" fill="#EC0343"/>
  <path d="M63.6898 350.224L62.6853 351.566C62.3505 352.237 61.346 353.243 60.0067 354.92C58.6674 356.598 56.9932 357.94 55.319 359.282C53.6449 360.623 51.3011 361.965 48.6224 363.307C45.9438 364.649 42.9303 365.656 39.9169 366.327C32.2158 368.004 25.1843 366.997 18.8226 362.972C12.4608 358.946 8.44284 353.579 7.10352 346.869C5.09454 337.811 6.76869 329.089 12.4608 321.373C17.8181 313.658 25.854 308.625 35.8989 306.277C38.9124 305.606 41.9258 305.271 44.9393 305.606C47.9528 305.606 50.2966 306.277 52.6404 306.948C54.6494 307.619 56.6584 308.29 58.3325 309.296C60.0067 309.967 61.0112 310.638 62.0156 311.309L63.355 312.316L51.3011 327.747C51.3011 327.747 50.9663 327.412 50.6314 327.412C50.2966 327.076 49.6269 326.741 48.9573 326.405C47.9528 326.07 47.2831 325.734 46.2786 325.399C45.2742 325.064 44.2697 325.064 42.9303 324.728C41.591 324.728 40.2517 324.728 38.9124 325.064C35.2292 325.734 32.2158 327.747 30.2068 330.767C27.863 333.786 27.1933 337.14 27.863 340.495C28.5326 343.179 29.872 345.192 32.2158 346.534C34.5596 347.876 37.2382 348.547 39.9169 347.876C41.9258 347.54 43.9348 346.534 45.9438 345.192C47.9528 343.85 49.2921 342.508 49.9618 341.502L51.3011 339.824L63.6898 350.224Z" fill="#EC0343"/>
  <path d="M113.915 291.516V311.309L99.8517 314.328V351.901L79.4271 356.262V318.69L65.3643 321.709V301.916L113.915 291.516Z" fill="#EC0343"/>
  <path d="M171.171 336.805L149.741 341.502L147.398 332.108L134.004 334.792L131.661 345.192L109.227 349.888L128.647 288.497L151.75 283.465L171.171 336.805ZM140.701 306.277L138.022 318.354L143.38 317.348L140.701 306.277Z" fill="#EC0343"/>
  <path d="M228.426 324.393L208.002 328.754V308.961L194.943 311.645V331.438L174.519 335.799V278.433L194.943 274.072V292.858L208.002 290.175V271.388L228.426 267.027V324.393Z" fill="#EC0343"/>
  <path d="M253.204 261.995L260.905 279.104L266.932 259.311L289.7 254.615L271.285 300.239C266.597 311.98 259.565 319.025 250.525 321.038C248.851 321.373 247.177 321.709 245.503 321.709C243.828 321.709 242.489 322.044 241.485 322.044H240.145V303.593C241.819 303.929 243.494 303.593 245.168 303.258C246.507 302.922 247.512 302.587 248.516 301.916C249.521 301.245 250.19 300.574 250.525 300.239L251.195 299.568L232.779 266.691L253.204 261.995Z" fill="#EC0343"/>
  <path d="M337.916 243.88V263.672L323.853 266.692V304.264L303.428 308.625V271.053L289.365 274.072V254.279L337.916 243.88Z" fill="#EC0343"/>
  <path d="M54.6492 386.119V405.912L40.5864 408.931V446.504L20.1617 450.865V413.293L6.09888 416.312V396.519L54.6492 386.119Z" fill="#EC0343"/>
  <path d="M62.0159 441.808V384.442L87.7978 379.074C93.8247 377.732 98.8472 378.068 102.865 379.745C106.548 381.423 108.892 384.106 109.897 387.797C110.901 393.164 108.892 397.861 103.87 401.886C102.53 402.893 101.526 403.564 101.526 403.564C101.861 403.564 102.195 403.564 102.53 403.899C102.865 403.899 103.87 404.235 104.874 404.57C105.879 404.906 107.218 405.577 107.888 406.248C108.892 406.919 109.897 407.589 110.566 408.931C111.571 410.273 112.24 411.615 112.24 412.957C113.245 417.989 111.906 422.35 108.557 426.711C104.874 431.072 99.5168 433.756 91.4809 435.434L62.0159 441.808ZM82.1057 395.848V401.551L85.454 400.88C86.4585 400.545 87.4629 400.209 87.7978 399.538C88.4674 398.867 88.4674 397.861 88.1326 396.854C88.1326 396.183 87.7978 395.848 87.1281 395.512C86.4585 395.177 85.7888 395.177 85.1191 395.177L82.1057 395.848ZM88.1326 420.673C89.1371 420.337 90.1416 420.002 90.8112 418.996C91.4809 417.989 91.4809 417.318 91.4809 416.312C91.4809 415.641 90.8112 414.97 90.1416 414.634C89.4719 414.299 88.8023 413.963 87.7978 414.299L82.4405 415.305V422.015L88.1326 420.673Z" fill="#EC0343"/>
  <path d="M177.532 402.222C175.188 407.925 171.84 412.622 167.152 416.647C162.465 420.673 157.107 423.357 151.08 424.699C142.375 426.711 135.009 425.369 128.312 421.344C121.95 417.318 117.932 411.615 116.258 404.235C114.584 395.848 116.258 387.797 121.95 379.745C127.642 372.029 135.009 366.997 144.384 364.985C153.089 363.307 160.456 364.314 167.152 368.339C173.514 372.365 177.532 378.068 179.206 385.448C180.211 391.151 179.541 396.519 177.532 402.222ZM156.438 400.88C158.447 397.861 159.116 394.842 158.447 391.822C157.777 389.139 156.438 387.126 154.094 385.448C151.75 383.771 149.406 383.435 146.393 384.106C143.045 384.777 140.366 386.79 138.357 389.474C136.348 392.493 135.678 395.512 136.348 398.532C137.018 401.216 138.357 403.228 140.701 404.906C143.045 406.583 145.723 406.919 148.402 406.248C151.75 405.577 154.429 403.899 156.438 400.88Z" fill="#EC0343"/>
  <path d="M221.394 407.925V384.777L204.318 411.615L186.572 415.305V357.94L206.997 353.579V376.726L224.073 349.888L241.819 346.198V403.564L221.394 407.925Z" fill="#EC0343"/>
  <path d="M297.401 334.457L316.152 330.431V387.797L295.727 392.158V364.649L284.343 381.758L272.959 369.346V396.855L252.534 401.216V343.85L269.945 340.16L283.673 355.256L297.401 334.457Z" fill="#EC0343"/>
  <path d="M362.023 378.068V354.921L344.947 381.758L327.201 385.448V328.083L347.625 323.722V346.869L364.702 320.031L382.448 316.341V373.707L362.023 378.068Z" fill="#EC0343"/>
</svg>
