<svg width="14" height="14" viewBox="0 0 14 14" fill="none" xmlns="http://www.w3.org/2000/svg">
  <g clip-path="url(#clip0)">
    <path d="M0.223774 10.4436L0.682364 10.9054C0.82669 11.0496 1.01871 11.1291 1.22393 11.1291C1.42904 11.1291 1.62128 11.0496 1.76561 10.9054L6.99687 5.67392L12.2342 10.9112C12.3783 11.0554 12.5705 11.1348 12.7756 11.1348C12.9807 11.1348 13.1731 11.0554 13.3173 10.9112L13.776 10.4523C14.0747 10.1538 14.0747 9.66771 13.776 9.36927L7.54037 3.11122C7.39627 2.96712 7.20425 2.86559 6.99733 2.86559L6.99494 2.86559C6.78971 2.86559 6.5977 2.96724 6.4536 3.11122L0.223774 9.35231C0.0794479 9.49641 0.0002271 9.69423 1.08004e-07 9.89934C9.00632e-08 10.1046 0.0794478 10.2997 0.223774 10.4436Z" fill="#EC0343"/>
  </g>
  <defs>
    <clipPath id="clip0">
      <rect x="14" y="14" width="14" height="14" transform="rotate(-180 14 14)" fill="white"/>
    </clipPath>
  </defs>
</svg>
