<svg width="43" height="17" viewBox="0 0 43 17" fill="none" xmlns="http://www.w3.org/2000/svg">
  <path d="M1.8034 12.5608H0.21582V11.5581H4.49347V12.5608H2.90589V16.4763H1.8034V12.5608Z" fill="white"/>
  <path d="M10.8879 11.5581H11.9022L14.2571 14.5834V11.5581H15.342V16.4763H14.4071L11.9728 13.356V16.4763H10.8879V11.5581Z" fill="white"/>
  <path d="M18.0763 14.4278L16.1536 11.5581H17.4413L18.6408 13.4251L19.8579 11.5581H21.1103L19.1876 14.4105V16.4763H18.0763V14.4278Z" fill="white"/>
  <path d="M21.9216 11.5581H23.1123L24.4265 13.3387L25.7495 11.5581H26.9313V16.4763H25.8377V13.2695L24.4265 15.0674L22.9977 13.2868V16.4763H21.9216V11.5581Z" fill="white"/>
  <path d="M33.7402 11.5581H34.8427V15.4909H37.3388V16.4763H33.7402V11.5581Z" fill="white"/>
  <path d="M42.0398 11.5581L40.1082 14.4105V16.4763H39.0057V14.4278L37.083 11.5581H38.3707L39.5702 13.4251L40.7874 11.5581H42.0398Z" fill="white"/>
  <path d="M30.336 11.4803C28.9071 11.4803 27.7429 12.6213 27.7429 14.0215C27.7429 15.4218 28.9071 16.5627 30.336 16.5627C31.7648 16.5627 32.929 15.4218 32.929 14.0215C32.929 12.6126 31.7648 11.4803 30.336 11.4803ZM30.336 15.4564C29.5245 15.4564 28.8719 14.8167 28.8719 14.0215C28.8719 13.2263 29.5245 12.5867 30.336 12.5867C31.1474 12.5867 31.8001 13.2263 31.8001 14.0215C31.8001 14.8081 31.1474 15.4564 30.336 15.4564Z" fill="white"/>
  <path d="M7.48343 11.4803C6.04579 11.4803 4.89038 12.6213 4.89038 14.0215C4.89038 15.4218 6.05461 16.5627 7.48343 16.5627C8.91225 16.5627 10.0765 15.4218 10.0765 14.0215C10.0765 12.6126 8.92107 11.4803 7.48343 11.4803ZM7.48343 15.4564C6.672 15.4564 6.01933 14.8167 6.01933 14.0215C6.01933 13.2263 6.672 12.5867 7.48343 12.5867C8.29486 12.5867 8.94753 13.2263 8.94753 14.0215C8.94753 14.8081 8.29486 15.4564 7.48343 15.4564Z" fill="white"/>
  <path d="M21.1631 0.157349C19.1875 0.157349 17.5911 1.72182 17.5911 3.65796C17.5911 5.58546 19.1875 7.15858 21.1631 7.15858C23.1388 7.15858 24.7352 5.59411 24.7352 3.65796C24.7352 1.73046 23.1388 0.157349 21.1631 0.157349ZM21.1631 0.710532C22.1333 0.710532 22.9888 1.15999 23.5445 1.86012H18.7906C19.3374 1.16864 20.1929 0.710532 21.1631 0.710532ZM21.5688 3.24308H18.1908C18.2349 2.9492 18.3143 2.67261 18.4378 2.4133H21.56V3.24308H21.5688ZM18.1644 3.79626H20.1577V6.43253C19.0375 6.04357 18.2261 5.01499 18.1644 3.79626ZM20.7221 6.57082V3.79626H21.5688V6.57946C21.4365 6.59675 21.3042 6.6054 21.1719 6.6054C21.0132 6.6054 20.8632 6.58811 20.7221 6.57082ZM22.1333 6.44981V2.42194H23.8885C24.0737 2.80226 24.1707 3.21715 24.1707 3.66661C24.1707 4.95449 23.3152 6.05221 22.1333 6.44981Z" fill="white"/>
</svg>
