<svg width="31" height="29" viewBox="0 0 31 29" fill="none" xmlns="http://www.w3.org/2000/svg">
  <path d="M14.6615 8.71459L19.0387 7.07232C19.1459 7.03211 19.2733 7.0187 19.3805 7.05892L23.6906 8.7414L23.8515 8.64756L20.2653 5.70489C20.1514 5.61104 20.0642 5.46357 20.0441 5.32281L19.347 0.731171L19.1861 0.825014L18.4354 5.37643C18.4153 5.48368 18.3482 5.59093 18.2611 5.66467L14.5945 8.60064L14.6615 8.71459Z" fill="white"/>
  <path d="M14.6415 8.71457L10.2912 7.01198C10.184 6.97176 10.0566 6.95165 9.94934 6.99187L5.61913 8.61403L5.45825 8.52018L9.08464 5.62443C9.19859 5.53059 9.28573 5.38982 9.31255 5.24236L10.0767 0.664124L10.2376 0.757967L10.928 5.31609C10.9481 5.42334 11.0084 5.53059 11.0956 5.60432L14.722 8.58721L14.6415 8.71457Z" fill="white"/>
  <path d="M28.872 21.3365H29.6898C29.6898 21.3097 29.6898 21.2829 29.6898 21.2628C29.6898 21.1757 29.6764 21.1019 29.6429 21.0416C29.6094 20.9813 29.5692 20.9344 29.5088 20.9075C29.4552 20.8807 29.3882 20.8673 29.3144 20.8673C29.2675 20.8673 29.2139 20.874 29.1737 20.8941C29.1268 20.9075 29.0865 20.9344 29.0463 20.9612C29.0061 20.9947 28.9793 21.0282 28.9525 21.0684C28.9257 21.1086 28.9123 21.1489 28.8989 21.1824C28.8922 21.2226 28.8854 21.2762 28.872 21.3365ZM30.3937 22.1409C30.3735 22.2415 30.3333 22.4828 30.273 22.8582C30.0786 22.8984 29.9177 22.9185 29.7904 22.9319C29.6563 22.9453 29.5289 22.952 29.3949 22.952C29.2005 22.952 29.0195 22.9386 28.8519 22.9118C28.6844 22.885 28.5436 22.838 28.4229 22.7643C28.3023 22.6973 28.2017 22.6101 28.1213 22.5029C28.0409 22.4023 27.9805 22.275 27.9403 22.1342C27.9001 21.9935 27.8733 21.846 27.8733 21.6985C27.8733 21.484 27.9135 21.2762 28.0006 21.0751C28.0878 20.874 28.195 20.7132 28.3291 20.5992C28.4632 20.4852 28.6173 20.4048 28.7916 20.3579C28.9659 20.311 29.1402 20.2842 29.3279 20.2842C29.5155 20.2842 29.6965 20.3043 29.8641 20.3512C30.0317 20.3914 30.1792 20.4718 30.2998 20.5791C30.4205 20.6863 30.5009 20.8137 30.5545 20.9478C30.6014 21.0818 30.6283 21.236 30.6283 21.3902C30.6283 21.484 30.6149 21.5913 30.5947 21.7052H28.8586C28.8586 21.732 28.8586 21.7521 28.8586 21.779C28.8586 21.9599 28.919 22.0873 29.053 22.1744C29.1804 22.2616 29.3346 22.3018 29.5155 22.3018C29.6228 22.3018 29.7502 22.2884 29.8909 22.2616C30.0183 22.2482 30.1926 22.2012 30.3937 22.1409ZM26.3651 22.8917L26.412 22.3554L26.5058 20.5054L26.5327 19.5066C26.7606 19.5133 26.9348 19.5133 27.0488 19.5133C27.203 19.5133 27.3638 19.5133 27.5448 19.5066L27.4912 20.2707L27.3974 22.1409L27.3772 22.8917C27.203 22.8917 27.0421 22.8917 26.9013 22.8917H26.3651ZM24.0994 21.055C24.086 21.1287 24.0793 21.1891 24.0726 21.236C24.0659 21.2829 24.0659 21.3432 24.0592 21.4237C24.0525 21.5041 24.0525 21.5645 24.0525 21.6181C24.0525 21.7521 24.0726 21.8661 24.1128 21.9599C24.153 22.0538 24.2134 22.1208 24.2871 22.1744C24.3608 22.2214 24.4413 22.2482 24.5284 22.2482C24.6223 22.2482 24.7027 22.2214 24.7764 22.1677C24.8502 22.1141 24.9105 22.0404 24.9574 21.9331C25.0043 21.8259 25.0245 21.7119 25.0245 21.5779C25.0245 21.4036 24.9775 21.2561 24.8837 21.1489C24.7898 21.0416 24.6558 20.988 24.4748 20.988C24.3742 21.0014 24.2469 21.0215 24.0994 21.055ZM22.9599 24.0513C22.9934 23.7095 23.0202 23.3743 23.0403 23.0391C23.0805 22.4627 23.1074 21.98 23.1208 21.5846C23.1342 21.1958 23.1409 20.807 23.1409 20.4249C23.476 20.3713 23.7375 20.3378 23.9318 20.3244C24.1195 20.3043 24.3139 20.2976 24.5016 20.2976C24.7362 20.2976 24.9574 20.3244 25.1585 20.3713C25.3596 20.4182 25.5205 20.5054 25.6411 20.6327C25.7618 20.7601 25.8556 20.9075 25.916 21.0818C25.9763 21.2561 26.0098 21.4371 26.0098 21.6248C26.0098 21.7991 25.983 21.9666 25.9361 22.1275C25.8892 22.2884 25.8087 22.4359 25.7082 22.5699C25.6076 22.704 25.487 22.7978 25.3529 22.8582C25.2188 22.9185 25.0714 22.952 24.9038 22.952C24.8234 22.952 24.7362 22.9453 24.6491 22.9252C24.5619 22.9118 24.4815 22.885 24.4011 22.8582C24.3206 22.8246 24.2603 22.7978 24.2067 22.771C24.153 22.7375 24.0927 22.6973 24.0123 22.637L23.9855 23.3274C23.9721 23.6424 23.9654 23.8837 23.9654 24.0446C23.771 24.0379 23.6101 24.0379 23.4693 24.0379C23.3554 24.0446 23.1811 24.0513 22.9599 24.0513ZM21.197 21.0215C21.0897 21.0215 20.9959 21.0483 20.9154 21.1019C20.835 21.1556 20.768 21.236 20.7277 21.3432C20.6875 21.4505 20.6607 21.5645 20.6607 21.6851C20.6607 21.8661 20.7076 22.0069 20.7948 22.1007C20.8819 22.1945 21.0026 22.2482 21.1366 22.2482C21.2439 22.2482 21.3377 22.2214 21.4182 22.1677C21.4986 22.1141 21.5656 22.0337 21.6059 21.9197C21.6461 21.8125 21.6729 21.6985 21.6729 21.5712C21.6729 21.4706 21.6528 21.3768 21.626 21.2963C21.5925 21.2159 21.5388 21.1489 21.4651 21.0952C21.3847 21.0483 21.2975 21.0215 21.197 21.0215ZM21.2104 20.2976C21.4182 20.2976 21.6126 20.3311 21.8002 20.3914C21.9879 20.4517 22.1488 20.5456 22.2829 20.6662C22.4102 20.7869 22.5108 20.921 22.5711 21.0818C22.6314 21.2427 22.665 21.4103 22.665 21.5913C22.665 21.7655 22.6381 21.9398 22.5845 22.094C22.5309 22.2549 22.437 22.4023 22.303 22.5431C22.1689 22.6839 22.0013 22.7844 21.8002 22.8582C21.5992 22.9252 21.378 22.9587 21.15 22.9587C20.9423 22.9587 20.7412 22.9252 20.5468 22.8649C20.3524 22.8045 20.1915 22.7174 20.0641 22.5967C19.9368 22.4828 19.8362 22.342 19.7759 22.1744C19.7089 22.0136 19.6754 21.8393 19.6754 21.6583C19.6754 21.4773 19.7089 21.3097 19.7692 21.1422C19.8295 20.9746 19.9301 20.8338 20.0708 20.6997C20.2116 20.5657 20.3792 20.4651 20.5803 20.3981C20.7814 20.3311 20.9892 20.2976 21.2104 20.2976ZM17.6577 21.3365H18.4755C18.4755 21.3097 18.4755 21.2829 18.4755 21.2628C18.4755 21.1757 18.4621 21.1019 18.4286 21.0416C18.3951 20.9813 18.3548 20.9344 18.2945 20.9075C18.2409 20.8807 18.1739 20.8673 18.1001 20.8673C18.0532 20.8673 18.0063 20.874 17.9594 20.8941C17.9124 20.9075 17.8722 20.9344 17.832 20.9612C17.7918 20.9947 17.765 21.0282 17.7382 21.0684C17.7113 21.1086 17.6979 21.1489 17.6845 21.1824C17.6845 21.2226 17.6711 21.2762 17.6577 21.3365ZM19.186 22.1409C19.1659 22.2415 19.1257 22.4828 19.0587 22.8582C18.8643 22.8984 18.7034 22.9185 18.576 22.9319C18.442 22.9453 18.3146 22.952 18.1806 22.952C17.9862 22.952 17.8052 22.9386 17.6376 22.9118C17.47 22.885 17.3293 22.838 17.2086 22.7643C17.088 22.6973 16.9874 22.6101 16.907 22.5029C16.8265 22.4023 16.7662 22.275 16.726 22.1342C16.6858 21.9935 16.6657 21.846 16.6657 21.6985C16.6657 21.484 16.7059 21.2762 16.793 21.0751C16.8802 20.874 16.9874 20.7132 17.1215 20.5992C17.2555 20.4852 17.4097 20.4048 17.584 20.3579C17.7583 20.311 17.9325 20.2842 18.1202 20.2842C18.3079 20.2842 18.4889 20.3043 18.6565 20.3512C18.8241 20.3914 18.9715 20.4718 19.0922 20.5791C19.2128 20.6863 19.2933 20.8137 19.3469 20.9478C19.3938 21.0818 19.4206 21.236 19.4206 21.3902C19.4206 21.484 19.4072 21.5913 19.3871 21.7052H17.651C17.651 21.732 17.651 21.7521 17.651 21.779C17.651 21.9599 17.718 22.0873 17.8454 22.1744C17.9728 22.2616 18.1269 22.3018 18.3146 22.3018C18.4219 22.3018 18.5492 22.2884 18.69 22.2616C18.8107 22.2482 18.9782 22.2012 19.186 22.1409ZM14.4603 21.055C14.4469 21.1287 14.4402 21.1891 14.4335 21.236C14.4268 21.2829 14.4268 21.3432 14.4201 21.4237C14.4134 21.5041 14.4134 21.5645 14.4134 21.6181C14.4134 21.7521 14.4335 21.8661 14.4737 21.9599C14.514 22.0538 14.5743 22.1208 14.648 22.1744C14.7218 22.2214 14.8022 22.2482 14.8893 22.2482C14.9765 22.2482 15.0636 22.2214 15.1373 22.1677C15.2111 22.1141 15.2714 22.0404 15.3183 21.9331C15.3653 21.8259 15.3854 21.7119 15.3854 21.5779C15.3854 21.4036 15.3384 21.2561 15.2446 21.1489C15.1508 21.0416 15.0167 20.988 14.8357 20.988C14.7352 21.0014 14.6078 21.0215 14.4603 21.055ZM13.3208 24.0513C13.3543 23.7095 13.3811 23.3743 13.4012 23.0391C13.4415 22.4627 13.4683 21.98 13.4817 21.5846C13.4951 21.1958 13.5018 20.807 13.5018 20.4249C13.8369 20.3713 14.0984 20.3378 14.2928 20.3244C14.4804 20.3043 14.6748 20.2976 14.8625 20.2976C15.0971 20.2976 15.3183 20.3244 15.5194 20.3713C15.7205 20.4182 15.8814 20.5054 16.002 20.6327C16.1227 20.7601 16.2165 20.9075 16.2769 21.0818C16.3372 21.2561 16.3707 21.4371 16.3707 21.6248C16.3707 21.7991 16.3439 21.9666 16.297 22.1275C16.2501 22.2884 16.1696 22.4359 16.0691 22.5699C15.9685 22.704 15.8479 22.7978 15.7138 22.8582C15.5798 22.9185 15.4323 22.952 15.2714 22.952C15.191 22.952 15.1038 22.9453 15.0167 22.9252C14.9296 22.9118 14.8491 22.885 14.7687 22.8582C14.6882 22.8246 14.6279 22.7978 14.5743 22.771C14.5207 22.7375 14.4603 22.6973 14.3799 22.637L14.3531 23.3274C14.3397 23.6424 14.333 23.8837 14.333 24.0446C14.1386 24.0379 13.9777 24.0379 13.8369 24.0379C13.7163 24.0446 13.542 24.0513 13.3208 24.0513Z" fill="white"/>
  <path d="M0.310059 22.818C0.350277 22.4761 0.37709 22.1946 0.397199 21.9734C0.417308 21.7522 0.437418 21.4706 0.450824 21.1288C0.470933 20.7869 0.48434 20.4048 0.497746 19.9892C0.511152 19.5736 0.524558 19.091 0.531261 18.5414C0.89323 18.5481 1.18817 18.5481 1.40267 18.5481C1.60376 18.5481 1.88529 18.5481 2.25396 18.5414C2.20704 19.0709 2.17353 19.5334 2.15342 19.9356C2.13331 20.3311 2.1199 20.7601 2.1132 21.2025C2.1065 21.9935 2.09979 22.5364 2.09979 22.818C1.76464 22.8113 1.48311 22.8113 1.24179 22.8113C1.00718 22.8113 0.69884 22.8113 0.310059 22.818Z" fill="white"/>
  <path d="M6.58418 21.484C6.57077 21.598 6.53725 21.7991 6.48363 22.1007L6.37638 22.771C5.93397 22.8783 5.50497 22.9319 5.08938 22.9319C4.78774 22.9319 4.51962 22.9051 4.29171 22.8381C4.01688 22.7643 3.77557 22.637 3.56107 22.4493C3.33987 22.2616 3.17899 22.0337 3.07844 21.7723C2.95779 21.4706 2.89746 21.1288 2.89746 20.7534C2.89746 20.4048 2.95779 20.0697 3.07174 19.7546C3.18569 19.4329 3.35998 19.1648 3.58788 18.9637C3.81579 18.7559 4.07051 18.6151 4.35204 18.5481C4.63357 18.4743 4.94191 18.4408 5.27707 18.4408C5.47146 18.4408 5.67255 18.4542 5.87365 18.4743C6.07474 18.4945 6.32275 18.5414 6.61769 18.6084L6.62439 18.7022C6.6311 18.8028 6.6378 18.9033 6.6445 19.0106C6.65121 19.1178 6.65791 19.2787 6.67132 19.5066L6.69813 19.882C6.30265 19.7412 5.94738 19.6742 5.63904 19.6742C5.41783 19.6742 5.22344 19.7144 5.05587 19.8016C4.88829 19.8887 4.76763 20.0094 4.68719 20.1702C4.60676 20.3311 4.56654 20.5188 4.56654 20.7266C4.56654 20.9411 4.60005 21.1221 4.67379 21.2695C4.74082 21.417 4.85477 21.5243 5.01565 21.598C5.16982 21.6717 5.3441 21.7052 5.53179 21.7052C5.62563 21.7052 5.73958 21.6985 5.86694 21.6784C5.9943 21.6583 6.10825 21.6382 6.2088 21.6114C6.31605 21.5779 6.43671 21.5377 6.58418 21.484Z" fill="white"/>
  <path d="M11.5043 21.5511C11.4707 21.7186 11.397 22.1275 11.2965 22.7643C10.9747 22.8314 10.6999 22.8716 10.4787 22.8917C10.2575 22.9118 10.0363 22.9252 9.80837 22.9252C9.47322 22.9252 9.17158 22.9051 8.89005 22.8582C8.60851 22.8113 8.3739 22.7308 8.16611 22.6102C7.96501 22.4962 7.79073 22.3487 7.65667 22.1745C7.52261 22.0002 7.41536 21.7924 7.34162 21.5511C7.26789 21.3098 7.23438 21.0617 7.23438 20.807C7.23438 20.4518 7.30811 20.0965 7.44887 19.7546C7.58964 19.4128 7.77733 19.1447 7.99853 18.9503C8.21973 18.7559 8.48116 18.6218 8.77609 18.5414C9.07103 18.4609 9.37267 18.4207 9.67431 18.4207C9.99606 18.4207 10.2977 18.4609 10.5859 18.5347C10.8742 18.6084 11.1222 18.7358 11.3233 18.9234C11.5244 19.1044 11.6651 19.3122 11.7523 19.5468C11.8394 19.7814 11.8796 20.0295 11.8796 20.2976C11.8796 20.4585 11.8595 20.6327 11.826 20.8271L8.89005 20.8338C8.89005 20.8808 8.88334 20.921 8.88334 20.9545C8.88334 21.2561 8.99059 21.4773 9.20509 21.6181C9.41959 21.7589 9.68101 21.8326 9.98936 21.8326C10.177 21.8326 10.3848 21.8125 10.6195 21.7656C10.8608 21.7253 11.1557 21.6516 11.5043 21.5511ZM8.92356 20.197H10.3044C10.3044 20.1501 10.3111 20.1099 10.3111 20.0764C10.3111 19.9289 10.2843 19.8083 10.2307 19.701C10.177 19.6005 10.1033 19.52 10.0095 19.4731C9.91562 19.4262 9.80167 19.3994 9.68772 19.3994C9.60728 19.3994 9.52014 19.4128 9.4464 19.4396C9.36597 19.4664 9.29893 19.5066 9.2319 19.5535C9.17158 19.6072 9.11795 19.6675 9.07773 19.7278C9.03751 19.7949 9.004 19.8619 8.98389 19.9222C8.96378 19.9959 8.94367 20.0831 8.92356 20.197Z" fill="white"/>
  <path d="M2.50217 25.6936C2.60942 25.5997 2.70326 25.5126 2.81051 25.4255L2.89095 25.3584H2.42844L2.41503 25.3718C2.22064 25.5662 2.08658 25.6869 1.86537 25.888L1.77153 25.9751C1.5034 26.2231 1.35594 26.3572 1.10792 26.5717C1.20176 25.955 1.23528 25.7606 1.30901 25.4121L1.32242 25.3651H0.973857L0.940342 25.3718L0.933639 25.4054C0.913529 25.5528 0.866607 25.9349 0.705732 26.9739C0.631998 27.4163 0.578373 27.7313 0.511342 28.0531L0.504639 28.1H0.886717L0.89342 28.0665C0.933639 27.7716 0.960451 27.604 1.00737 27.2956L1.09451 26.7259C1.2688 26.9337 1.37604 27.0677 1.47659 27.1951C1.53022 27.2688 1.58384 27.3359 1.65087 27.4163C1.68439 27.4632 1.72461 27.5034 1.75812 27.5436C1.89219 27.7112 2.01284 27.852 2.17372 28.0866L2.18712 28.1067H2.66975L2.60942 28.0397C2.38822 27.7783 2.26086 27.6241 2.1268 27.4632C2.07987 27.4029 2.03295 27.3426 1.97933 27.2822C1.87878 27.1616 1.81175 27.0811 1.75142 27.0141C1.66428 26.9069 1.59055 26.8264 1.46319 26.6588C1.64417 26.4913 1.79164 26.3639 2.06647 26.1226C2.23405 25.9282 2.37481 25.8075 2.50217 25.6936Z" fill="white"/>
  <path d="M4.86834 25.4858C4.70076 25.3584 4.49296 25.3584 4.3656 25.3584H3.2864L3.26629 25.4992C3.19256 26.0958 2.97806 27.3828 2.8507 28.0464L2.84399 28.0933H3.22607L3.23948 27.9861C3.30651 27.4498 3.45398 26.5114 3.48749 26.317L3.51431 26.1494C3.54112 25.9952 3.56793 25.8411 3.60145 25.6266H4.21813C4.31198 25.6266 4.50637 25.6266 4.61362 25.707C4.67395 25.7539 4.73427 25.8612 4.71416 26.0153C4.69405 26.1896 4.60021 26.3438 4.45945 26.4443C4.31198 26.5449 4.11759 26.5985 3.86957 26.5985C3.75562 26.5985 3.62826 26.5784 3.54112 26.5717L3.47409 26.565L3.52771 26.8197L3.55452 26.8264C3.60815 26.8398 3.74221 26.8599 3.88298 26.8599C4.19802 26.8599 4.47956 26.7862 4.68065 26.6454C4.83482 26.5382 5.02921 26.3371 5.06943 26.022C5.09624 25.6936 4.93537 25.5327 4.86834 25.4858Z" fill="white"/>
  <path d="M8.04545 25.4389C7.97172 26.0555 7.73041 27.5302 7.62986 28.033L7.61646 28.0799H7.99853L8.01864 27.9458C8.23314 26.451 8.30688 25.9483 8.42083 25.3986L8.43423 25.3517H8.05216L8.04545 25.4389Z" fill="white"/>
  <path d="M6.49709 26.4242C6.3094 26.4242 6.17534 26.4376 6.04798 26.4644L6.02787 26.4712L5.90051 26.7393L5.97425 26.7259C6.12171 26.6991 6.25578 26.6857 6.38313 26.6857C6.62445 26.6857 6.81213 26.7326 6.93949 26.8264C7.06015 26.9203 7.10037 27.0275 7.08026 27.2152C7.05345 27.4632 6.93949 27.6241 6.72499 27.7313C6.53731 27.8252 6.33621 27.8319 6.15523 27.8319H5.70612C5.84018 26.9203 5.92732 26.3907 6.0949 25.4054L6.1016 25.3584H5.71953L5.71282 25.3919C5.59217 26.3371 5.4581 27.2018 5.29723 28.0397L5.29053 28.0866H6.19545C6.41665 28.0866 6.65126 28.0732 6.89928 27.9525C7.20092 27.7984 7.3752 27.5571 7.41542 27.2286C7.44223 27.0007 7.39531 26.8197 7.26124 26.6789C7.13388 26.5047 6.86576 26.4242 6.49709 26.4242Z" fill="white"/>
  <path d="M10.8475 25.6332L10.9011 25.3517H8.736L8.68237 25.6332H8.736C8.87006 25.6265 9.01083 25.6198 9.19851 25.6198H9.6007C9.54708 26.0019 9.50686 26.2164 9.41972 26.7661C9.32587 27.3627 9.27895 27.6174 9.19851 28.0397L9.19181 28.0866H9.57389L9.6007 27.8922C9.63422 27.5973 9.66773 27.3761 9.73476 26.9873L9.8152 26.4979C9.87553 26.136 9.90234 25.9617 9.96267 25.6198H10.4185C10.5727 25.6198 10.7067 25.6265 10.8274 25.6332H10.8475Z" fill="white"/>
  <path d="M11.9467 26.4175C11.759 26.4175 11.6249 26.4309 11.4976 26.4577L11.4775 26.4644L11.3501 26.7326L11.4238 26.7192C11.5713 26.6923 11.7054 26.6789 11.8394 26.6789C12.0807 26.6789 12.2684 26.7259 12.3958 26.8197C12.5165 26.9135 12.5567 27.0208 12.5366 27.2085C12.503 27.4565 12.3958 27.6174 12.1813 27.7246C11.9936 27.8185 11.7925 27.8252 11.6115 27.8252H11.1624C11.2965 26.9135 11.3836 26.384 11.5512 25.3986L11.5579 25.3517H11.1758L11.1691 25.3852C11.0485 26.3237 10.9144 27.1951 10.7535 28.033L10.7468 28.0799H11.6517C11.873 28.0799 12.1076 28.0665 12.3556 27.9391C12.6572 27.7849 12.8315 27.5436 12.8717 27.2152C12.8985 26.9873 12.8516 26.8063 12.7175 26.6655C12.5768 26.5047 12.3087 26.4175 11.9467 26.4175Z" fill="white"/>
  <path d="M13.4953 25.4389C13.4216 26.069 13.187 27.5168 13.0797 28.033L13.073 28.0799H13.4551L13.4752 27.9324C13.6897 26.4443 13.7634 25.9416 13.8774 25.392L13.8908 25.345H13.5087L13.4953 25.4389Z" fill="white"/>
  <path d="M15.781 25.1641C16.1429 25.1641 16.4312 25.0501 16.6189 24.8155L16.6524 24.7753L16.3574 24.6546L16.3373 24.6748C16.1832 24.8356 16.0089 24.9094 15.7944 24.9094C15.5799 24.9094 15.419 24.8289 15.3184 24.668L15.2983 24.6412L14.99 24.7619L15.0101 24.8021C15.1509 25.0367 15.4056 25.1641 15.781 25.1641Z" fill="white"/>
  <path d="M16.6054 25.3584C15.801 26.2298 15.0704 27.0007 14.4939 27.5906C14.5878 27.0476 14.628 26.7862 14.6816 26.4309L14.7017 26.317C14.7486 26.0019 14.7956 25.7271 14.8559 25.392L14.8626 25.345H14.4805L14.4738 25.3785C14.3733 26.1829 14.1923 27.3225 14.0582 28.0263L14.0515 28.0732H14.4001L14.4135 28.0598C15.124 27.2822 15.486 26.9069 15.7809 26.6119L15.8345 26.5583C16.0356 26.3505 16.23 26.1494 16.5317 25.821C16.4646 26.2567 16.411 26.5717 16.3574 26.927L16.3239 27.1214C16.2568 27.5504 16.2233 27.7313 16.163 28.0263L16.1563 28.0732H16.5049L16.5384 28.0665L16.5451 28.033C16.5987 27.604 16.7596 26.498 16.9607 25.392L16.9674 25.345H16.6188L16.6054 25.3584Z" fill="white"/>
  <path d="M22.2695 26.6052H21.378C21.5925 26.2835 21.6529 26.2031 21.7534 26.0489C21.8137 25.9617 21.8875 25.8478 22.0148 25.6534C22.1288 26.0757 22.2159 26.3907 22.2695 26.6052ZM22.8393 27.4163C22.8125 27.3091 22.779 27.1951 22.7388 27.0409C22.6918 26.8801 22.665 26.7728 22.6315 26.6656C22.5779 26.4712 22.531 26.3036 22.4237 25.9215C22.3567 25.6668 22.3366 25.5998 22.3232 25.5394L22.2695 25.3383H21.8607L21.8473 25.3585C21.6797 25.6333 21.5925 25.7606 21.3311 26.1427L21.2574 26.2433C21.0094 26.6052 20.8351 26.8667 20.6809 27.1013C20.4999 27.3761 20.339 27.6174 20.1178 27.9325C19.9369 27.7247 19.8229 27.5839 19.709 27.4364C19.662 27.3761 19.6084 27.3158 19.5548 27.242C19.4542 27.1147 19.3805 27.0342 19.3202 26.9605C19.233 26.86 19.166 26.7728 19.0386 26.6119C19.2196 26.4511 19.3604 26.317 19.6419 26.0757C19.8296 25.9148 19.9704 25.7875 20.0977 25.6735C20.205 25.5797 20.2988 25.4925 20.4061 25.4054L20.4865 25.3383H20.024L20.0106 25.3518C19.8095 25.5528 19.6888 25.6668 19.4609 25.8746L19.3671 25.9617C19.099 26.2098 18.9515 26.3438 18.7035 26.5516C18.7973 25.9349 18.8308 25.7405 18.9046 25.392L18.918 25.3451H18.5359L18.5292 25.3786C18.5158 25.5059 18.4689 25.8947 18.3013 26.9471C18.2209 27.4431 18.1672 27.7381 18.1069 28.0263L18.0935 28.0732H18.4756L18.4823 28.0397C18.5225 27.7448 18.5493 27.5705 18.5962 27.2621L18.6834 26.6924C18.8577 26.9002 18.9649 27.0342 19.0655 27.1616C19.1191 27.2286 19.1727 27.3024 19.233 27.3761C19.2733 27.423 19.3068 27.4699 19.3403 27.5102C19.4743 27.671 19.5883 27.8118 19.7492 28.0531L19.7626 28.0732H20.2452H20.4396L20.453 28.0531C20.5401 27.9123 20.634 27.7649 20.7278 27.6174C20.8887 27.3694 21.0831 27.061 21.2038 26.8801H22.3299C22.4103 27.1616 22.4572 27.3426 22.5176 27.5705L22.5444 27.671C22.5779 27.8051 22.6047 27.8989 22.6248 28.0397L22.6315 28.0732H23.0203L23.0069 28.0196C22.9265 27.7381 22.8862 27.5906 22.8393 27.4163Z" fill="white"/>
  <path d="M25.2322 25.6199L25.2859 25.3383H23.1208L23.0671 25.6199L23.1208 25.6132C23.2481 25.6065 23.3956 25.5998 23.5833 25.5998H23.9855C23.9251 25.9818 23.8916 26.1896 23.8045 26.7393C23.7106 27.3426 23.6637 27.5973 23.5833 28.0129L23.5766 28.0598H23.9587L23.9788 27.8654C24.0123 27.5705 24.0525 27.3493 24.1128 26.9605L24.1866 26.498C24.2469 26.1226 24.2737 25.9483 24.3407 25.5998H24.7898C24.9507 25.5998 25.0915 25.6065 25.2054 25.6132L25.2322 25.6199Z" fill="white"/>
  <path d="M25.3261 26.7728C25.3663 26.4309 25.5205 26.1159 25.7484 25.9081C25.9227 25.7472 26.231 25.5595 26.7271 25.5595V25.5193V25.5595C27.2633 25.5595 27.5046 25.7941 27.5784 25.8947C27.7191 26.069 27.7728 26.3572 27.7392 26.6656C27.6789 27.1482 27.4309 27.423 27.3303 27.5169C27.1695 27.6643 26.8678 27.8453 26.3785 27.8453C25.8825 27.8453 25.6345 27.6643 25.5339 27.5571C25.3596 27.3694 25.2859 27.0879 25.3261 26.7728ZM26.7606 25.2914C26.1104 25.2914 25.7082 25.5394 25.5339 25.6869C25.42 25.7807 25.0513 26.1293 24.9709 26.7661C24.9038 27.3158 25.125 27.6174 25.2591 27.7448C25.487 27.966 25.8959 28.1 26.3383 28.1C26.8142 28.1 27.2499 27.9526 27.5515 27.6978C27.8398 27.4565 28.0409 27.0543 28.0878 26.632C28.1481 26.1494 27.9805 25.8545 27.8331 25.6869C27.6789 25.5126 27.3572 25.2914 26.7606 25.2914Z" fill="white"/>
  <path d="M30.3401 25.6735C30.4473 25.5797 30.5412 25.4925 30.6484 25.4054L30.7288 25.3383H30.2663L30.2529 25.3518C30.0585 25.5461 29.9245 25.6668 29.71 25.8679L29.6094 25.9617C29.3413 26.2098 29.1938 26.3438 28.9458 26.5516C29.0397 25.9349 29.0732 25.7405 29.1469 25.392L29.1603 25.3451H28.8117L28.7782 25.3518L28.7715 25.3853C28.7514 25.5327 28.7045 25.9148 28.5436 26.9538C28.4632 27.4498 28.4096 27.7448 28.3492 28.033L28.3425 28.0799H28.7246L28.7313 28.0464C28.7715 27.7582 28.7983 27.5839 28.8386 27.2957L28.9324 26.6991C29.1067 26.9069 29.2139 27.0409 29.3145 27.1683C29.3681 27.242 29.4217 27.3091 29.4888 27.3828C29.529 27.4297 29.5625 27.4699 29.596 27.5169C29.7301 27.6777 29.844 27.8252 30.0049 28.0598L30.0183 28.0799H30.5009L30.4406 28.0129C30.2194 27.7582 30.0987 27.604 29.9647 27.4431C29.9178 27.3828 29.8641 27.3225 29.8105 27.2554C29.71 27.1281 29.6429 27.0476 29.5759 26.9739C29.4888 26.8734 29.4217 26.7862 29.2944 26.6253C29.4821 26.4578 29.6228 26.3304 29.8977 26.0891C30.0719 25.9081 30.2127 25.7808 30.3401 25.6735Z" fill="white"/>
  <path d="M14.695 8.64758L15.4256 13.2593C15.4457 13.3733 15.4926 13.4939 15.5865 13.5677L19.1794 16.4768V16.6645L14.8491 15.0021C14.7084 14.9485 14.5408 14.9485 14.4067 15.0021L10.0698 16.6645V16.4768L13.6493 13.5744C13.7364 13.5006 13.7968 13.3934 13.8102 13.2794L14.5475 8.64758H14.695Z" fill="white"/>
  <path d="M14.7285 8.64752L15.4592 4.03577C15.4793 3.92182 15.5262 3.80116 15.6201 3.72743L19.2129 0.818272V0.630585L14.8827 2.29296C14.7419 2.34658 14.5744 2.34658 14.4403 2.29296L10.0967 0.630585V0.818272L13.6761 3.72072C13.7633 3.79446 13.8236 3.90171 13.837 4.01566L14.5744 8.64752H14.7285Z" fill="white"/>
  <path d="M14.6616 8.71456L11.0151 11.6371C10.9279 11.7109 10.8475 11.8114 10.8274 11.9254L10.0699 16.4835L9.90904 16.5773L9.20521 11.9857C9.1851 11.8382 9.10466 11.6907 8.99071 11.5969L5.40454 8.64752L5.56542 8.55368L9.86212 10.2295C9.96937 10.2697 10.09 10.263 10.1973 10.2295L14.5878 8.58049L14.6616 8.71456Z" fill="white"/>
  <path d="M14.6479 8.71458L18.2542 11.6841C18.3414 11.7578 18.4218 11.8583 18.4352 11.9723L19.1323 16.5438L19.2932 16.6377L20.0574 12.0594C20.0842 11.912 20.1646 11.7712 20.2786 11.6774L23.905 8.77491L23.7441 8.68106L19.4273 10.3032C19.32 10.3434 19.1994 10.3367 19.0921 10.2965L14.7217 8.58722L14.6479 8.71458Z" fill="white"/>
</svg>
