<svg width="18" height="26" viewBox="0 0 18 26" fill="none" xmlns="http://www.w3.org/2000/svg">
  <path d="M5.8566 15.6117C4.83684 15.6117 4.00513 14.7597 4.00513 13.7151C4.00513 12.6705 4.83684 11.8185 5.8566 11.8185C6.87635 11.8185 7.70807 12.6705 7.70807 13.7151C7.70807 14.7597 6.87635 15.6117 5.8566 15.6117ZM5.8566 12.1593C5.02488 12.1593 4.34505 12.8557 4.34505 13.7077C4.34505 14.5597 5.02488 15.2561 5.8566 15.2561C6.68831 15.2561 7.36815 14.5597 7.36815 13.7077C7.36815 12.8557 6.68831 12.1593 5.8566 12.1593Z" fill="white"/>
  <path d="M12.59 4.11342C11.5702 4.11342 10.7385 3.26142 10.7385 2.21679C10.7385 1.17216 11.5702 0.32016 12.59 0.32016C13.6098 0.32016 14.4415 1.17216 14.4415 2.21679C14.4487 3.26142 13.617 4.11342 12.59 4.11342ZM12.59 0.66096C11.7583 0.66096 11.0784 1.35738 11.0784 2.20938C11.0784 3.06138 11.7583 3.7578 12.59 3.7578C13.4217 3.7578 14.1016 3.06138 14.1016 2.20938C14.1088 1.35738 13.4289 0.66096 12.59 0.66096Z" fill="white"/>
  <path d="M8.77135 15.6117H8.47482L8.61947 15.3524C8.90153 14.8561 9.04618 14.293 9.04618 13.7151C9.04618 12.7372 8.6267 11.8259 7.89624 11.1961L5.17689 8.89945C4.04141 7.95113 3.41943 6.69906 3.41943 5.38031C3.41943 2.58723 6.22557 0.32016 9.66815 0.32016H9.96468L9.82003 0.579465C9.53797 1.07585 9.39333 1.63891 9.39333 2.21679C9.39333 3.20215 9.82003 4.12824 10.565 4.75057L13.2626 7.03245C14.3981 7.98077 15.0201 9.23284 15.0201 10.5516C15.0201 13.3447 12.2212 15.6117 8.77135 15.6117ZM9.39333 0.668369C6.26173 0.786909 3.76658 2.85394 3.76658 5.3729C3.76658 6.58793 4.34517 7.74369 5.40109 8.62532L8.12044 10.9294C8.93046 11.6184 9.39333 12.6334 9.39333 13.7151C9.39333 14.2485 9.27761 14.782 9.05341 15.2635C12.1778 15.145 14.6801 13.078 14.6801 10.559C14.6801 9.34397 14.1016 8.18821 13.0456 7.30657L10.348 5.01728C9.52351 4.32827 9.05341 3.30587 9.05341 2.21679C9.05341 1.67595 9.16912 1.14994 9.39333 0.668369Z" fill="white"/>
  <path d="M2.37064 20.9164C2.30555 20.8349 2.226 20.7756 2.12475 20.7311C2.02349 20.6867 1.91501 20.6497 1.79206 20.6126C1.66911 20.5756 1.54616 20.5385 1.42321 20.4941C1.30026 20.4496 1.19178 20.3978 1.09052 20.3385C0.989272 20.2792 0.909717 20.1903 0.844626 20.0792C0.779535 19.9681 0.750606 19.8273 0.750606 19.6717C0.750606 19.4272 0.844626 19.2198 1.03267 19.0494C1.22071 18.879 1.4666 18.7901 1.77036 18.7901C1.88608 18.7901 1.99456 18.8049 2.09582 18.8345C2.19707 18.8642 2.28386 18.9012 2.35618 18.9382C2.4285 18.9753 2.48636 19.0197 2.54422 19.0568C2.60208 19.0938 2.63824 19.1309 2.65994 19.1605L2.6961 19.205L2.4719 19.4346C2.46466 19.4272 2.45743 19.4124 2.44297 19.3976C2.4285 19.3828 2.39957 19.3605 2.35618 19.3235C2.31279 19.2865 2.26216 19.2568 2.21877 19.2272C2.16814 19.1975 2.10305 19.1679 2.02349 19.1457C1.94394 19.1235 1.85715 19.1086 1.77036 19.1086C1.56062 19.1086 1.39428 19.1605 1.27133 19.2716C1.14838 19.3828 1.08329 19.5087 1.08329 19.6643C1.08329 19.7754 1.11222 19.8717 1.17731 19.9532C1.2424 20.0347 1.32196 20.094 1.42321 20.1385C1.52446 20.1829 1.64018 20.2199 1.7559 20.257C1.87885 20.294 2.0018 20.3311 2.12475 20.3755C2.24769 20.42 2.35618 20.4718 2.45743 20.5311C2.55868 20.5904 2.63824 20.6793 2.70333 20.7904C2.76842 20.9015 2.79735 21.0349 2.79735 21.1979C2.79735 21.472 2.70333 21.6943 2.51529 21.8647C2.32725 22.0351 2.06689 22.124 1.7342 22.124C1.59679 22.124 1.4666 22.1092 1.34366 22.0721C1.22071 22.0351 1.11945 21.998 1.0399 21.9536C0.960343 21.9091 0.895252 21.8573 0.830161 21.8128C0.772302 21.761 0.728909 21.7239 0.707212 21.6869L0.663818 21.635L0.873555 21.3979C0.880787 21.4053 0.888019 21.4202 0.902484 21.4424C0.916948 21.4646 0.953111 21.4942 1.00374 21.5387C1.05436 21.5832 1.11222 21.6276 1.17008 21.6572C1.22794 21.6943 1.30749 21.7239 1.40875 21.7536C1.51 21.7832 1.61848 21.798 1.71974 21.798C1.95117 21.798 2.13198 21.7461 2.25493 21.635C2.37788 21.5239 2.44297 21.3757 2.44297 21.1979C2.46466 21.0868 2.4285 20.9979 2.37064 20.9164Z" fill="white"/>
  <path d="M6.55093 21.5165C6.73897 21.3238 6.83299 21.0868 6.83299 20.8126V18.8419H7.17291V20.8126C7.17291 21.1757 7.04272 21.4794 6.78959 21.7461C6.53646 22.0054 6.23271 22.1388 5.87832 22.1388C5.53117 22.1388 5.22742 22.0054 4.96705 21.7461C4.71392 21.4868 4.58374 21.1757 4.58374 20.82V18.8493H4.92366V20.82C4.92366 21.1016 5.01768 21.3313 5.20572 21.5239C5.39376 21.7165 5.61796 21.8128 5.87832 21.8128C6.14592 21.8054 6.37012 21.7091 6.55093 21.5165Z" fill="white"/>
  <path d="M10.6299 20.9164C10.5648 20.8349 10.4853 20.7756 10.384 20.7311C10.2828 20.6867 10.1743 20.6497 10.0513 20.6126C9.92839 20.5756 9.80544 20.5385 9.68249 20.4941C9.55954 20.4496 9.45106 20.3978 9.3498 20.3385C9.24855 20.2792 9.16899 20.1903 9.1039 20.0792C9.03881 19.9681 9.00988 19.8273 9.00988 19.6717C9.00988 19.4272 9.1039 19.2198 9.29194 19.0494C9.47999 18.879 9.72588 18.7901 10.0296 18.7901C10.1454 18.7901 10.2538 18.8049 10.3551 18.8345C10.4563 18.8642 10.5431 18.9012 10.6155 18.9382C10.6878 18.9753 10.7456 19.0197 10.8035 19.0568C10.8614 19.0938 10.8975 19.1309 10.9192 19.1605L10.9554 19.205L10.7312 19.4346C10.7239 19.4272 10.7167 19.4124 10.7022 19.3976C10.6878 19.3828 10.6661 19.3605 10.6155 19.3235C10.5721 19.2865 10.5214 19.2568 10.478 19.2272C10.4274 19.1975 10.3623 19.1679 10.2828 19.1457C10.2032 19.1235 10.1164 19.1086 10.0296 19.1086C9.81991 19.1086 9.65356 19.1605 9.53061 19.2716C9.40766 19.3828 9.34257 19.5087 9.34257 19.6643C9.34257 19.7754 9.3715 19.8717 9.43659 19.9532C9.50168 20.0347 9.58124 20.094 9.68249 20.1385C9.78374 20.1829 9.89946 20.2199 10.0152 20.257C10.1381 20.294 10.2611 20.3311 10.384 20.3755C10.507 20.42 10.6155 20.4718 10.7167 20.5311C10.818 20.5904 10.8975 20.6793 10.9626 20.7904C11.0277 20.9015 11.0566 21.0349 11.0566 21.1979C11.0566 21.472 10.9626 21.6943 10.7746 21.8647C10.5865 22.0351 10.3262 22.124 9.99348 22.124C9.85607 22.124 9.72589 22.1092 9.60294 22.0721C9.47999 22.0351 9.37873 21.998 9.29918 21.9536C9.21962 21.9091 9.15453 21.8573 9.08944 21.8128C9.03158 21.761 8.98819 21.7239 8.96649 21.6869L8.9231 21.635L9.13283 21.3979C9.14007 21.4053 9.1473 21.4202 9.16176 21.4424C9.17623 21.4646 9.21239 21.4942 9.26302 21.5387C9.31364 21.5832 9.3715 21.6276 9.42936 21.6572C9.48722 21.6943 9.56677 21.7239 9.66803 21.7536C9.76928 21.7832 9.87776 21.798 9.97902 21.798C10.2104 21.798 10.3913 21.7461 10.5142 21.635C10.6372 21.5239 10.7022 21.3757 10.7022 21.1979C10.7312 21.0868 10.695 20.9979 10.6299 20.9164Z" fill="white"/>
  <path d="M12.9009 18.8345H13.2408V20.2718H15.0055V18.8345H15.3454V22.0795H15.0055V20.5978H13.2408V22.0795H12.9009V18.8345Z" fill="white"/>
  <path d="M17.4355 18.8345H17.7755V22.0795H17.4355V18.8345Z" fill="white"/>
  <path d="M3.25296 24.5319C3.20233 24.5022 3.14447 24.4726 3.07215 24.4578C2.99982 24.4355 2.9275 24.4133 2.86241 24.3837C2.79009 24.354 2.73223 24.3096 2.6816 24.2429C2.63098 24.1762 2.60928 24.0947 2.60928 23.9984C2.60928 23.8799 2.65991 23.7762 2.75393 23.6873C2.84795 23.5984 2.9709 23.5613 3.12277 23.5613C3.18063 23.5613 3.23849 23.5687 3.29635 23.5835C3.35421 23.5984 3.3976 23.6132 3.43376 23.6354C3.46992 23.6576 3.49885 23.6724 3.52778 23.6947C3.55671 23.7169 3.57118 23.7317 3.58564 23.7465L3.60734 23.7688L3.40483 23.9688C3.3976 23.9614 3.38314 23.9466 3.36867 23.9317C3.35421 23.9169 3.32528 23.9021 3.27465 23.8725C3.23126 23.8503 3.18063 23.8354 3.13001 23.8354C3.07215 23.8354 3.02152 23.8502 2.98536 23.8799C2.9492 23.9095 2.9275 23.9466 2.9275 23.991C2.9275 24.0429 2.9492 24.0799 2.99982 24.1096C3.05045 24.1392 3.10831 24.1688 3.18063 24.1836C3.25296 24.2059 3.31805 24.2281 3.39037 24.2577C3.46269 24.2874 3.52055 24.3318 3.57118 24.3985C3.6218 24.4652 3.6435 24.5467 3.6435 24.643C3.6435 24.7837 3.59288 24.8949 3.49885 24.9838C3.3976 25.0727 3.26742 25.1171 3.09384 25.1171C3.02875 25.1171 2.96366 25.1097 2.89857 25.0949C2.83348 25.0801 2.78286 25.0579 2.73946 25.0356C2.69607 25.0134 2.65991 24.9912 2.63098 24.9616C2.60205 24.9393 2.58035 24.9171 2.56589 24.9023L2.54419 24.8727L2.73223 24.68C2.73946 24.6948 2.75393 24.7023 2.77562 24.7245C2.79009 24.7393 2.83348 24.7689 2.89134 24.7986C2.9492 24.8282 3.01429 24.843 3.07938 24.843C3.1517 24.843 3.21679 24.8282 3.25296 24.7912C3.29635 24.7541 3.31805 24.7097 3.31805 24.6504C3.32528 24.5985 3.29635 24.5615 3.25296 24.5319Z" fill="white"/>
  <path d="M5.97229 23.5983V23.8872H5.56005V25.0949H5.24906V23.8872H4.82959V23.5983H5.97229Z" fill="white"/>
  <path d="M8.12764 24.7318C8.19273 24.6652 8.22167 24.5837 8.22167 24.4799V23.5983H8.53265V24.4799C8.53265 24.6652 8.4748 24.8133 8.35185 24.9393C8.2289 25.0652 8.07702 25.1245 7.89621 25.1245C7.7154 25.1245 7.56352 25.0652 7.44057 24.9393C7.31762 24.8133 7.25977 24.6652 7.25977 24.4799V23.5983H7.57076V24.4799C7.57076 24.5763 7.59968 24.6652 7.66478 24.7318C7.72987 24.7985 7.80219 24.8356 7.89621 24.8356C7.99023 24.8356 8.06255 24.7985 8.12764 24.7318Z" fill="white"/>
  <path d="M10.5143 23.5983C10.7241 23.5983 10.9049 23.6724 11.0495 23.8131C11.1942 23.9539 11.2665 24.1317 11.2665 24.3466C11.2665 24.554 11.1942 24.7318 11.0495 24.8726C10.9049 25.0134 10.7313 25.0875 10.5143 25.0875H9.97192V23.5983H10.5143ZM10.2901 23.8872V24.8059H10.5216C10.6445 24.8059 10.7458 24.7615 10.8326 24.6726C10.9194 24.5837 10.9628 24.4725 10.9628 24.3466C10.9628 24.2206 10.9194 24.1095 10.8398 24.0206C10.753 23.9317 10.6518 23.8872 10.5288 23.8872H10.2901Z" fill="white"/>
  <path d="M12.6333 23.5983H12.9443V25.0875H12.6333V23.5983Z" fill="white"/>
  <path d="M14.5427 23.791C14.6946 23.6354 14.8826 23.5613 15.1068 23.5613C15.331 23.5613 15.5191 23.6354 15.671 23.791C15.8228 23.9466 15.9024 24.1244 15.9024 24.3392C15.9024 24.5541 15.8228 24.7393 15.671 24.8875C15.5191 25.0431 15.331 25.1171 15.1068 25.1171C14.8826 25.1171 14.6946 25.0431 14.5427 24.8875C14.3908 24.7319 14.3113 24.5541 14.3113 24.3392C14.3113 24.1318 14.3836 23.9466 14.5427 23.791ZM14.7669 24.6948C14.8609 24.7912 14.9694 24.8356 15.0996 24.8356C15.2298 24.8356 15.3383 24.7912 15.4323 24.6948C15.5263 24.5985 15.5697 24.4874 15.5697 24.3466C15.5697 24.2059 15.5263 24.0947 15.4323 23.9984C15.3383 23.9021 15.2298 23.8577 15.0996 23.8577C14.9694 23.8577 14.8609 23.9021 14.7669 23.9984C14.6729 24.0947 14.6295 24.2059 14.6295 24.3466C14.6367 24.48 14.6801 24.5985 14.7669 24.6948Z" fill="white"/>
</svg>
