<svg width="29" height="28" viewBox="0 0 29 28" fill="none" xmlns="http://www.w3.org/2000/svg">
  <path d="M28.0423 0.461304H0.518555V19.5137H28.0423V0.461304ZM27.9206 19.3839H0.640269V0.583018H27.9206V19.3839Z" fill="white"/>
  <path d="M26.4597 10.4419C26.1757 10.4419 25.7943 11.3345 25.2993 10.8071C25.0316 10.4419 25.0316 10.3445 24.8044 10.0605C24.3256 8.15369 22.6135 9.94695 21.9157 10.6448C21.9157 9.86581 22.2646 9.0706 22.2646 8.29163C22.2321 7.29357 21.4531 7.4802 20.5525 8.49449C19.8222 9.09495 19.9033 9.30592 19.173 9.80901C18.4427 10.5555 18.9702 9.42763 19.0432 8.66489C19.1243 8.11312 18.8647 7.63437 18.0289 8.16992C17.7611 8.28352 17.3798 8.7866 17.0795 9.08683C16.6738 9.56558 16.0977 9.98752 15.765 10.5231C15.6027 10.588 15.1321 11.3994 14.4018 10.5312C14.1827 9.84958 13.1035 8.48637 12.5112 9.76843C11.8134 10.8963 11.4158 12.2595 11.0506 13.4686C10.7828 13.9798 10.7666 14.8804 10.5313 14.9454C10.7666 13.3225 11.3914 11.7889 11.7079 10.1985C11.9432 9.64672 12.0243 8.60809 12.5031 8.16992C12.5193 8.04009 12.568 7.67494 12.8195 7.1394C13.1522 6.42534 12.852 5.82488 12.6735 5.79243C12.5112 5.79243 12.4219 6.02774 12.211 6.23871C11.6024 7.66683 9.88215 10.1336 8.71369 11.3751C8.79483 10.7746 8.86786 9.84146 8.86786 9.58992C9.32226 9.34649 9.28169 8.96512 8.92466 8.77037C8.92466 8.05632 9.0626 6.95277 8.81917 6.75803C8.92466 6.04397 8.81917 5.19197 8.69746 4.83494C8.57574 4.10465 7.87791 4.34808 7.51277 3.78008C7.51277 3.48796 8.12134 2.66842 7.68317 2.49802C7.18008 2.28704 6.677 3.01733 6.36054 3.07413C6.31185 3.30133 6.11711 3.60968 5.90614 3.60968C5.69517 3.68271 5.49231 3.60968 5.33002 3.97482C5.13528 4.42922 5.60591 4.33996 5.40305 4.59962C4.96488 4.94854 4.21025 7.43151 3.96682 8.34843C3.70716 8.71357 3.55299 9.33838 3.47996 9.50878C2.85516 9.58181 2.66042 9.92261 2.49002 10.5312C2.66042 10.8639 2.27904 11.3832 2.94442 11.3264C2.94442 11.6753 2.56304 12.2271 2.56304 12.7707C2.53059 12.8032 2.38453 13.1683 2.38453 13.4442C2.15733 13.996 1.86521 15.2456 2.85516 14.6614C2.97687 14.4017 3.20407 14.069 3.25276 13.3631C3.3907 13.29 3.47996 12.7707 3.65036 12.1784C4.04796 11.6023 4.08042 11.1884 4.1859 10.8639C4.99733 10.9531 5.72762 10.2877 6.49037 10.0849C6.92854 10.1336 7.529 9.85769 7.60203 9.91449C7.65071 10.1579 7.65071 10.9531 7.65071 11.44C7.77243 11.6834 7.6994 12.1703 7.65071 12.292C7.72374 12.9898 7.57768 13.5416 7.60203 14.0284C7.65071 14.5315 8.42157 13.9554 8.39723 13.5416C8.47026 13.3387 8.53517 12.933 8.57574 12.5598C8.94089 12.4056 9.84158 11.0505 10.2067 10.9612C10.2067 12.9898 9.47643 14.9129 9.54135 16.9496C9.37906 17.8259 10.2716 18.0613 10.4907 17.2011C10.6692 16.9496 10.7747 16.6737 10.7747 16.341C11.01 15.8947 11.1399 15.4647 11.2697 14.8804C11.4726 14.3206 11.7484 13.8012 11.8864 13.1196C12.0892 12.787 12.3651 11.9918 12.5193 11.5942C12.8844 10.6123 13.1522 11.1803 13.5498 11.5617C15.1808 13.29 16.8118 10.0119 17.2499 10.2147C17.5502 10.3283 16.6657 12.3407 16.6657 12.7058C16.6657 13.0385 17.1282 13.1196 17.2986 12.9411C17.4285 12.9411 17.6638 12.4137 17.9478 12.3082C18.3291 11.6753 19.2785 10.8963 19.5219 10.5474C20.6011 9.56558 20.9014 9.51689 20.5362 10.8152C20.2847 11.9268 19.952 12.5435 19.952 12.9087C20.0818 13.1927 20.2847 13.428 20.8121 12.9411C21.0799 12.7058 22.0211 11.6104 22.2565 11.3832C22.6378 11.1479 22.792 10.8152 23.0679 10.7503C23.7008 10.7503 24.0497 11.6996 24.5609 11.9755C25.5914 12.5598 26.2 11.797 26.484 11.4481C26.4597 11.0424 26.4272 10.9207 26.4597 10.4419ZM7.66694 8.46203C7.66694 8.82717 7.66694 9.15175 7.57768 9.10306C7.39106 9.10306 7.00157 9.10306 6.76625 9.25723C6.14145 9.1842 4.87562 9.48443 4.77013 9.33026C4.77013 8.68923 5.37871 8.03197 5.50042 7.3666C5.79254 6.84728 6.09277 6.43345 6.14145 6.02774C6.29562 5.81677 6.45791 5.57334 6.61208 5.57334C7.23688 5.62203 7.48031 6.5146 7.61826 6.54706C7.48031 6.94466 7.56957 7.67494 7.69128 7.72363C7.57768 7.75609 7.57768 8.18614 7.66694 8.46203Z" fill="white"/>
  <path d="M0.51001 18.7591V27.9688H28.0337V18.7591H0.51001ZM22.7189 20.7146H23.0678V22.6215H22.7189V20.7146ZM20.3495 20.7146H20.6984V21.4124H21.875C22.0048 21.4124 22.1103 21.4206 22.1752 21.4449C22.2482 21.4692 22.305 21.5017 22.3618 21.5585C22.4105 21.6072 22.443 21.6802 22.4673 21.7776C22.4835 21.8587 22.4917 21.9561 22.4917 22.0616C22.4917 22.2807 22.443 22.4267 22.3537 22.5079C22.2645 22.589 22.1103 22.6296 21.8993 22.6296H20.3576V20.7146H20.3495ZM17.4932 20.7146H17.8422V21.4855H19.3677V20.7146H19.7166V22.6215H19.3677V21.7938H17.8422V22.6215H17.4932V20.7146ZM9.48443 20.7146H9.84957L10.9856 22.6215H10.5799L10.3445 22.2239H8.99757L8.76226 22.6215H8.34843L9.48443 20.7146ZM6.45779 25.7617L5.22442 24.9341H4.99722V25.7617H4.6483V23.8548H4.99722V24.6176H5.22442L6.39288 23.8548H7.00957L5.60579 24.7799L7.09882 25.7698H6.45779V25.7617ZM6.80671 22.6458H6.61197L6.21437 22.6296C5.85734 22.5971 5.67882 22.3943 5.67882 22.0535L5.67071 21.7127C5.67071 21.5747 5.67071 21.4774 5.67071 21.4043C5.67071 21.3313 5.68694 21.242 5.71128 21.1203C5.73562 20.9824 5.80054 20.885 5.90602 20.812C6.00339 20.7471 6.14134 20.7065 6.31174 20.7065C6.37665 20.6984 6.44157 20.6903 6.51459 20.6903C6.57951 20.6903 6.65254 20.6903 6.74179 20.6903H7.05825C7.16374 20.6903 7.24488 20.6903 7.3098 20.6984C7.37471 20.7065 7.46397 20.7146 7.56945 20.739C7.69928 20.7633 7.78854 20.8363 7.83723 20.9499C7.8778 21.0554 7.90214 21.1852 7.90214 21.3556V21.4206H7.55323V21.3394C7.55323 21.2583 7.54511 21.2015 7.537 21.1528C7.52888 21.1203 7.52077 21.096 7.49643 21.0798C7.4802 21.0716 7.43962 21.0473 7.32602 21.0392C7.22865 21.023 7.09882 21.023 6.92842 21.023C6.86351 21.023 6.76614 21.023 6.64442 21.0311C6.51459 21.0392 6.41722 21.0392 6.34419 21.0392C6.16568 21.0554 6.10888 21.0879 6.10077 21.1041C6.07642 21.1284 6.05208 21.169 6.04396 21.2826C6.03585 21.38 6.02774 21.4774 6.02774 21.5585C6.02774 21.6396 6.02774 21.7208 6.02774 21.8019C6.02774 22.0697 6.06019 22.1833 6.08454 22.2401C6.11699 22.2969 6.22248 22.3294 6.38477 22.3294H7.1962C7.38282 22.3294 7.46397 22.305 7.50454 22.2807C7.54511 22.2563 7.56945 22.1752 7.56945 22.0616V21.9155H7.92648V21.9804C7.92648 22.2239 7.88591 22.3862 7.80477 22.4835C7.71551 22.5809 7.54511 22.6296 7.26922 22.6296L6.80671 22.6458ZM9.59803 24.7069C9.5818 24.7961 9.54934 24.8691 9.49254 24.9259C9.44386 24.9746 9.37894 25.0152 9.30591 25.0395C9.241 25.0639 9.13551 25.072 9.00568 25.072H7.82911V25.7698H7.4802V23.863H9.02191C9.23289 23.863 9.38706 23.9035 9.47631 23.9847C9.57369 24.0739 9.61426 24.22 9.61426 24.431C9.61426 24.5283 9.60614 24.6257 9.59803 24.7069ZM12.0972 25.7617L11.8619 25.3641H10.5149L10.2796 25.7617H9.87392L11.0018 23.8548H11.3669L12.5029 25.7617H12.0972ZM11.6915 22.6296H11.2858L12.4137 20.7227H12.7788L13.9148 22.6296H13.5091L12.5922 21.0798L11.6915 22.6296ZM15.205 25.1207C15.205 25.3641 15.1644 25.5345 15.0833 25.6238C14.994 25.7211 14.8236 25.7698 14.5478 25.7698L14.0934 25.7861H13.8986L13.501 25.7698C13.144 25.7374 12.9655 25.5345 12.9655 25.1937L12.9574 24.8529C12.9574 24.715 12.9574 24.6176 12.9574 24.5446C12.9574 24.4715 12.9736 24.3823 12.9979 24.2606C13.0223 24.1226 13.0872 24.0252 13.1927 23.9522C13.29 23.8873 13.428 23.8467 13.5984 23.8467C13.6633 23.8386 13.7282 23.8305 13.7931 23.8305C13.858 23.8305 13.9311 23.8305 14.0203 23.8305H14.3368C14.4423 23.8305 14.5234 23.8305 14.5883 23.8386C14.6532 23.8467 14.7425 23.8548 14.848 23.8792C14.9697 23.9035 15.059 23.9766 15.1158 24.0902C15.1563 24.1875 15.1807 24.3255 15.1807 24.4959V24.5608H14.8318V24.4797C14.8318 24.3985 14.8236 24.3417 14.8155 24.293C14.8074 24.2443 14.7831 24.2281 14.775 24.22C14.7587 24.2119 14.7182 24.1875 14.6046 24.1713C14.5153 24.1551 14.3774 24.1551 14.207 24.1551C14.142 24.1551 14.0447 24.1551 13.923 24.1632C13.7931 24.1713 13.6958 24.1713 13.6308 24.1713C13.4523 24.1875 13.3955 24.22 13.3874 24.2362C13.3631 24.2606 13.3387 24.3011 13.3306 24.4147C13.3225 24.5121 13.3144 24.6095 13.3144 24.6906C13.3144 24.7718 13.3144 24.8529 13.3144 24.9341C13.3144 25.2018 13.3468 25.3154 13.3712 25.3722C13.4036 25.429 13.5091 25.4615 13.6714 25.4615H14.4828C14.6695 25.4615 14.7506 25.4371 14.7912 25.4128C14.8318 25.3885 14.8561 25.3073 14.8561 25.1937V25.0558H15.2131V25.1207H15.205ZM15.2618 22.6458C15.1482 22.6458 15.0427 22.6377 14.9454 22.6296C14.8399 22.6215 14.7506 22.5971 14.6776 22.5647C14.5964 22.5322 14.5315 22.4754 14.4747 22.3862C14.426 22.305 14.3936 22.2076 14.3855 22.0859C14.3692 21.9723 14.3692 21.8344 14.3692 21.6802C14.3692 21.5342 14.3692 21.4287 14.3774 21.3638C14.3774 21.2988 14.3936 21.2015 14.426 21.0798C14.4585 20.9418 14.5315 20.8444 14.6451 20.7795C14.7506 20.7227 14.8967 20.6903 15.0671 20.6903H15.8542C16.2436 20.6903 16.4952 20.7471 16.6088 20.8526C16.7305 20.9662 16.7873 21.2096 16.7873 21.591V21.7127C16.7873 21.8425 16.7792 21.9804 16.763 22.1265C16.7467 22.2807 16.6899 22.4105 16.5926 22.4998C16.4952 22.589 16.3491 22.6296 16.1625 22.6296C16.1138 22.6377 16.0489 22.6377 15.9596 22.6377C15.8785 22.6377 15.7974 22.6377 15.7243 22.6377H15.2618V22.6458ZM18.2235 24.8529C18.2235 24.9827 18.2154 25.1207 18.1992 25.2667C18.183 25.4209 18.1262 25.5507 18.0288 25.64C17.9314 25.7293 17.7854 25.7698 17.5987 25.7698C17.55 25.7779 17.477 25.7779 17.3959 25.7779C17.3147 25.7779 17.2336 25.7779 17.1606 25.7779H16.7143C16.6088 25.7779 16.4952 25.7698 16.3978 25.7617C16.2923 25.7536 16.2031 25.7293 16.1219 25.6968C16.0408 25.6643 15.9759 25.6075 15.9272 25.5183C15.8785 25.4371 15.846 25.3398 15.8379 25.2181C15.8217 25.1045 15.8217 24.9665 15.8217 24.8123C15.8217 24.6663 15.8217 24.5608 15.8298 24.4959C15.8298 24.431 15.846 24.3336 15.8785 24.2119C15.911 24.0739 15.984 23.9766 16.0976 23.9116C16.2031 23.8548 16.3491 23.8224 16.5195 23.8224H17.3066C17.6961 23.8224 17.9476 23.8792 18.0612 23.9847C18.183 24.0983 18.2398 24.3417 18.2398 24.7231V24.8529H18.2235ZM20.9013 24.1632H20.0006V25.7536H19.6517V24.1632H18.7591V23.8467H20.9013V24.1632ZM23.4816 25.6319C23.3923 25.713 23.2382 25.7617 23.0272 25.7617H21.4855V23.8548H21.8344V24.5527H23.011C23.1408 24.5527 23.2382 24.5608 23.3112 24.5851C23.3842 24.6095 23.441 24.6501 23.4897 24.6987C23.5384 24.7474 23.579 24.8205 23.5952 24.9178C23.6114 24.999 23.6195 25.0963 23.6195 25.2018C23.6277 25.4047 23.579 25.5507 23.4816 25.6319ZM24.2119 25.7617H23.863V23.8467H24.2119V25.7617Z" fill="white"/>
  <path d="M16.3653 22.2157C16.3977 22.1508 16.4221 22.0535 16.4221 21.9236V21.5585C16.4221 21.453 16.414 21.3556 16.4059 21.2745C16.3977 21.2015 16.3815 21.1528 16.3572 21.1122C16.3328 21.0797 16.3085 21.0635 16.276 21.0554C16.2273 21.0392 16.1868 21.0311 16.1381 21.0311C16.0894 21.0229 16.0407 21.0229 15.9839 21.0229L15.562 21.0148L15.1481 21.0229C14.9047 21.0229 14.8154 21.0635 14.7911 21.0879C14.7668 21.1122 14.7181 21.1771 14.7181 21.4124L14.71 21.81C14.71 22.0697 14.7424 22.1833 14.7749 22.232C14.7911 22.2644 14.8641 22.3212 15.0994 22.3212L15.781 22.3293C15.9028 22.3293 16.0326 22.3212 16.1543 22.3131C16.2679 22.2969 16.3328 22.2644 16.3653 22.2157Z" fill="white"/>
  <path d="M17.8097 24.2443C17.7854 24.2119 17.7611 24.1957 17.7286 24.1875C17.6799 24.1713 17.6393 24.1713 17.5907 24.1632C17.542 24.1551 17.4933 24.1551 17.4365 24.1551L17.0227 24.147L16.6088 24.1551C16.3654 24.1551 16.2761 24.1957 16.2518 24.22C16.2275 24.2443 16.1788 24.3093 16.1788 24.5365L16.1707 24.9341C16.1707 25.1937 16.2031 25.3073 16.2356 25.356C16.2518 25.3885 16.3248 25.4453 16.5601 25.4453L17.2417 25.4534C17.3635 25.4534 17.4933 25.4453 17.615 25.4372C17.7205 25.429 17.7854 25.3966 17.8179 25.3398C17.8503 25.283 17.8747 25.1775 17.8747 25.0477V24.6825C17.8747 24.577 17.8665 24.4797 17.8584 24.3985C17.8503 24.3336 17.8341 24.2849 17.8097 24.2443Z" fill="white"/>
  <path d="M22.1264 22.0454C22.1264 21.8506 22.0777 21.7938 22.0614 21.7776C22.0371 21.7614 21.956 21.7208 21.745 21.7208H20.6982V22.305H21.8667C21.9722 22.305 22.0371 22.2888 22.0696 22.2482C22.0939 22.232 22.1264 22.1752 22.1264 22.0454Z" fill="white"/>
  <path d="M10.6934 25.0476H11.6752L11.1802 24.2119L10.6934 25.0476Z" fill="white"/>
  <path d="M8.99756 24.1632H7.8291V24.7474H8.87585C9.08682 24.7474 9.16796 24.7149 9.1923 24.6906C9.20853 24.6744 9.25722 24.6257 9.25722 24.4228C9.25722 24.293 9.23288 24.2362 9.20853 24.2037C9.17608 24.1875 9.10305 24.1632 8.99756 24.1632Z" fill="white"/>
  <path d="M22.8893 24.861H21.8425V25.4453H23.011C23.1408 25.4453 23.1976 25.4128 23.2138 25.3885C23.2382 25.3641 23.2625 25.3073 23.2625 25.1775C23.2625 24.9827 23.222 24.9259 23.1976 24.9097C23.1733 24.8935 23.1002 24.861 22.8893 24.861Z" fill="white"/>
  <path d="M9.66288 21.0716L9.17603 21.9155H10.1579L9.66288 21.0716Z" fill="white"/>
</svg>
