<svg width="149" height="135" viewBox="0 0 149 135" fill="none" xmlns="http://www.w3.org/2000/svg">
  <path d="M70.3432 39.7683L91.7682 31.773C92.2932 31.5772 92.9165 31.512 93.4415 31.7078L114.538 39.8988L115.326 39.4419L97.7724 25.1158C97.2147 24.6589 96.7881 23.941 96.6897 23.2557L93.2774 0.901642L92.49 1.35851L88.8153 23.5167C88.7169 24.0389 88.3888 24.561 87.9622 24.92L70.0151 39.2135L70.3432 39.7683Z" fill="black"/>
  <path d="M70.2446 39.7684L48.9509 31.4795C48.426 31.2837 47.8026 31.1858 47.2776 31.3816L26.0824 39.2789L25.2949 38.822L43.0451 24.7243C43.6029 24.2674 44.0294 23.5821 44.1607 22.8642L47.901 0.575439L48.6885 1.03231L52.0679 23.2232C52.1663 23.7453 52.4616 24.2674 52.8881 24.6264L70.6384 39.1484L70.2446 39.7684Z" fill="black"/>
  <path d="M139.9 101.217H143.903C143.903 101.087 143.903 100.956 143.903 100.858C143.903 100.434 143.838 100.075 143.674 99.7815C143.51 99.4878 143.313 99.2593 143.017 99.1288C142.755 98.9982 142.427 98.933 142.066 98.933C141.836 98.933 141.574 98.9656 141.377 99.0635C141.147 99.1288 140.95 99.2593 140.754 99.3898C140.557 99.553 140.425 99.7162 140.294 99.912C140.163 100.108 140.097 100.304 140.032 100.467C139.999 100.663 139.966 100.924 139.9 101.217ZM147.348 105.133C147.25 105.623 147.053 106.798 146.758 108.625C145.806 108.821 145.019 108.919 144.395 108.984C143.739 109.049 143.116 109.082 142.46 109.082C141.508 109.082 140.622 109.017 139.802 108.886C138.982 108.756 138.293 108.527 137.702 108.168C137.112 107.842 136.619 107.418 136.226 106.896C135.832 106.406 135.537 105.786 135.34 105.101C135.143 104.415 135.012 103.697 135.012 102.98C135.012 101.935 135.209 100.924 135.635 99.9446C136.062 98.9656 136.587 98.1824 137.243 97.6276C137.899 97.0729 138.654 96.6813 139.507 96.4528C140.36 96.2244 141.213 96.0939 142.132 96.0939C143.05 96.0939 143.936 96.1918 144.756 96.4202C145.577 96.616 146.298 97.0076 146.889 97.5297C147.48 98.0519 147.873 98.6719 148.136 99.3246C148.365 99.9773 148.497 100.728 148.497 101.478C148.497 101.935 148.431 102.457 148.333 103.012H139.835C139.835 103.143 139.835 103.241 139.835 103.371C139.835 104.252 140.13 104.872 140.786 105.297C141.41 105.721 142.164 105.917 143.05 105.917C143.575 105.917 144.199 105.851 144.888 105.721C145.511 105.656 146.364 105.427 147.348 105.133ZM127.63 108.788L127.859 106.178L128.319 97.1708L128.45 92.3083C129.565 92.341 130.418 92.341 130.976 92.341C131.731 92.341 132.518 92.341 133.404 92.3083L133.142 96.0286L132.682 105.133L132.584 108.788C131.731 108.788 130.943 108.788 130.254 108.788H127.63ZM116.54 99.8467C116.474 100.206 116.441 100.499 116.409 100.728C116.376 100.956 116.376 101.25 116.343 101.642C116.31 102.033 116.31 102.327 116.31 102.588C116.31 103.241 116.409 103.795 116.605 104.252C116.802 104.709 117.098 105.035 117.458 105.297C117.819 105.525 118.213 105.656 118.64 105.656C119.099 105.656 119.493 105.525 119.854 105.264C120.214 105.003 120.51 104.644 120.739 104.122C120.969 103.6 121.068 103.045 121.068 102.392C121.068 101.544 120.838 100.826 120.379 100.304C119.919 99.7815 119.263 99.5204 118.377 99.5204C117.885 99.5857 117.262 99.6836 116.54 99.8467ZM110.962 114.434C111.126 112.77 111.257 111.138 111.356 109.506C111.553 106.7 111.684 104.35 111.749 102.425C111.815 100.532 111.848 98.6393 111.848 96.7792C113.488 96.5181 114.768 96.3549 115.719 96.2896C116.638 96.1917 117.59 96.1591 118.508 96.1591C119.657 96.1591 120.739 96.2897 121.724 96.5181C122.708 96.7465 123.495 97.1708 124.086 97.7908C124.677 98.4108 125.136 99.1288 125.431 99.9773C125.727 100.826 125.891 101.707 125.891 102.621C125.891 103.469 125.759 104.285 125.53 105.068C125.3 105.851 124.906 106.569 124.414 107.222C123.922 107.875 123.331 108.331 122.675 108.625C122.019 108.919 121.297 109.082 120.477 109.082C120.083 109.082 119.657 109.049 119.23 108.952C118.804 108.886 118.41 108.756 118.016 108.625C117.622 108.462 117.327 108.331 117.065 108.201C116.802 108.038 116.507 107.842 116.113 107.548L115.982 110.91C115.916 112.443 115.884 113.618 115.884 114.401C114.932 114.369 114.145 114.369 113.456 114.369C112.898 114.401 112.045 114.434 110.962 114.434ZM102.333 99.6836C101.808 99.6836 101.349 99.8141 100.955 100.075C100.561 100.336 100.233 100.728 100.036 101.25C99.8395 101.772 99.7082 102.327 99.7082 102.914C99.7082 103.795 99.9379 104.481 100.364 104.938C100.791 105.394 101.382 105.656 102.038 105.656C102.563 105.656 103.022 105.525 103.416 105.264C103.809 105.003 104.138 104.611 104.334 104.056C104.531 103.534 104.663 102.98 104.663 102.36C104.663 101.87 104.564 101.413 104.433 101.022C104.269 100.63 104.006 100.304 103.645 100.043C103.252 99.8141 102.825 99.6836 102.333 99.6836ZM102.399 96.1591C103.416 96.1591 104.367 96.3223 105.286 96.616C106.205 96.9097 106.992 97.3666 107.648 97.954C108.272 98.5414 108.764 99.194 109.059 99.9773C109.354 100.76 109.518 101.576 109.518 102.457C109.518 103.306 109.387 104.154 109.125 104.905C108.862 105.688 108.403 106.406 107.747 107.091C107.09 107.777 106.27 108.266 105.286 108.625C104.302 108.952 103.219 109.115 102.103 109.115C101.086 109.115 100.102 108.952 99.1504 108.658C98.199 108.364 97.4115 107.94 96.7881 107.352C96.1647 106.798 95.6726 106.112 95.3773 105.297C95.0492 104.513 94.8851 103.665 94.8851 102.784C94.8851 101.903 95.0492 101.087 95.3445 100.271C95.6398 99.4551 96.1319 98.7698 96.8209 98.1171C97.5099 97.4645 98.3302 96.975 99.3145 96.6486C100.299 96.3223 101.316 96.1591 102.399 96.1591ZM85.0093 101.217H89.0121C89.0121 101.087 89.0121 100.956 89.0121 100.858C89.0121 100.434 88.9465 100.075 88.7825 99.7815C88.6184 99.4878 88.4216 99.2593 88.1263 99.1288C87.8638 98.9982 87.5357 98.933 87.1748 98.933C86.9451 98.933 86.7155 98.9656 86.4858 99.0635C86.2561 99.1288 86.0593 99.2593 85.8624 99.3898C85.6655 99.553 85.5343 99.7162 85.403 99.912C85.2718 100.108 85.2062 100.304 85.1406 100.467C85.1406 100.663 85.0749 100.924 85.0093 101.217ZM92.49 105.133C92.3916 105.623 92.1947 106.798 91.8666 108.625C90.9151 108.821 90.1277 108.919 89.5043 108.984C88.8481 109.049 88.2247 109.082 87.5685 109.082C86.617 109.082 85.7311 109.017 84.9109 108.886C84.0906 108.756 83.4016 108.527 82.8111 108.168C82.2205 107.842 81.7283 107.418 81.3346 106.896C80.9409 106.406 80.6456 105.786 80.4487 105.101C80.2519 104.415 80.1534 103.697 80.1534 102.98C80.1534 101.935 80.3503 100.924 80.7768 99.9446C81.2034 98.9656 81.7283 98.1824 82.3845 97.6276C83.0407 97.0729 83.7954 96.6813 84.6484 96.4528C85.5015 96.2244 86.3545 96.0939 87.2732 96.0939C88.1919 96.0939 89.0778 96.1918 89.898 96.4202C90.7183 96.616 91.4401 97.0076 92.0307 97.5297C92.6213 98.0519 93.015 98.6719 93.2774 99.3246C93.5071 99.9773 93.6384 100.728 93.6384 101.478C93.6384 101.935 93.5727 102.457 93.4743 103.012H84.9765C84.9765 103.143 84.9765 103.241 84.9765 103.371C84.9765 104.252 85.3046 104.872 85.928 105.297C86.5514 105.721 87.306 105.917 88.2247 105.917C88.7497 105.917 89.3731 105.851 90.0621 105.721C90.6526 105.656 91.4729 105.427 92.49 105.133ZM69.359 99.8467C69.2933 100.206 69.2605 100.499 69.2277 100.728C69.1949 100.956 69.1949 101.25 69.1621 101.642C69.1293 102.033 69.1293 102.327 69.1293 102.588C69.1293 103.241 69.2277 103.795 69.4246 104.252C69.6214 104.709 69.9167 105.035 70.2776 105.297C70.6385 105.525 71.0323 105.656 71.4588 105.656C71.8853 105.656 72.3119 105.525 72.6728 105.264C73.0337 105.003 73.329 104.644 73.5586 104.122C73.7883 103.6 73.8867 103.045 73.8867 102.392C73.8867 101.544 73.6571 100.826 73.1977 100.304C72.7384 99.7815 72.0822 99.5204 71.1963 99.5204C70.7042 99.5857 70.0808 99.6836 69.359 99.8467ZM63.7812 114.434C63.9453 112.77 64.0765 111.138 64.175 109.506C64.3718 106.7 64.5031 104.35 64.5687 102.425C64.6343 100.532 64.6671 98.6393 64.6671 96.7792C66.3076 96.5181 67.5872 96.3549 68.5387 96.2896C69.4574 96.1917 70.4089 96.1591 71.3276 96.1591C72.4759 96.1591 73.5586 96.2897 74.5429 96.5181C75.5272 96.7465 76.3147 97.1708 76.9053 97.7908C77.4958 98.4108 77.9552 99.1288 78.2505 99.9773C78.5458 100.826 78.7098 101.707 78.7098 102.621C78.7098 103.469 78.5786 104.285 78.3489 105.068C78.1192 105.851 77.7255 106.569 77.2334 107.222C76.7412 107.875 76.1506 108.331 75.4944 108.625C74.8382 108.919 74.1164 109.082 73.329 109.082C72.9352 109.082 72.5087 109.049 72.0822 108.952C71.6557 108.886 71.2619 108.756 70.8682 108.625C70.4745 108.462 70.1792 108.331 69.9167 108.201C69.6542 108.038 69.359 107.842 68.9652 107.548L68.834 110.91C68.7684 112.443 68.7356 113.618 68.7356 114.401C67.7841 114.369 66.9966 114.369 66.3076 114.369C65.717 114.401 64.864 114.434 63.7812 114.434Z" fill="black"/>
  <path d="M0.0969238 108.43C0.293784 106.765 0.425022 105.395 0.523453 104.318C0.621883 103.241 0.720314 101.87 0.785934 100.206C0.884364 98.5416 0.949983 96.6815 1.0156 94.6582C1.08122 92.6349 1.14684 90.2853 1.17965 87.6093C2.95139 87.642 4.39503 87.642 5.44495 87.642C6.42926 87.642 7.80728 87.642 9.61183 87.6093C9.38216 90.1874 9.21811 92.4391 9.11968 94.3972C9.02125 96.3225 8.95563 98.4111 8.92282 100.565C8.89001 104.416 8.8572 107.059 8.8572 108.43C7.2167 108.397 5.83867 108.397 4.65751 108.397C3.50916 108.397 1.9999 108.397 0.0969238 108.43Z" fill="black"/>
  <path d="M30.8072 101.936C30.7416 102.49 30.5775 103.469 30.3151 104.938L29.7901 108.201C27.6247 108.723 25.5248 108.984 23.4906 108.984C22.0141 108.984 20.7017 108.854 19.5862 108.528C18.241 108.169 17.0598 107.549 16.0099 106.635C14.9272 105.721 14.1397 104.612 13.6476 103.339C13.057 101.87 12.7617 100.206 12.7617 98.3786C12.7617 96.6816 13.057 95.0499 13.6148 93.5161C14.1725 91.9497 15.0256 90.6444 16.1411 89.6654C17.2567 88.6537 18.5035 87.9684 19.8815 87.6421C21.2595 87.2831 22.7688 87.1199 24.4093 87.1199C25.3608 87.1199 26.3451 87.1852 27.3294 87.2831C28.3137 87.381 29.5276 87.6094 30.9713 87.9358L31.0041 88.3926C31.0369 88.8822 31.0697 89.3717 31.1025 89.8938C31.1353 90.4159 31.1681 91.1991 31.2338 92.3087L31.365 94.1362C29.4292 93.4509 27.6903 93.1245 26.181 93.1245C25.0983 93.1245 24.1468 93.3203 23.3265 93.7446C22.5063 94.1688 21.9157 94.7562 21.522 95.5394C21.1283 96.3226 20.9314 97.2364 20.9314 98.248C20.9314 99.2923 21.0955 100.173 21.4564 100.891C21.7845 101.609 22.3422 102.131 23.1297 102.49C23.8843 102.849 24.7374 103.013 25.656 103.013C26.1154 103.013 26.6732 102.98 27.2965 102.882C27.9199 102.784 28.4777 102.686 28.9699 102.556C29.4948 102.392 30.0854 102.197 30.8072 101.936Z" fill="black"/>
  <path d="M54.8897 102.262C54.7257 103.077 54.3648 105.068 53.8726 108.168C52.2977 108.495 50.9525 108.69 49.8698 108.788C48.7871 108.886 47.7043 108.951 46.5888 108.951C44.9483 108.951 43.4718 108.854 42.0938 108.625C40.7158 108.397 39.5674 108.005 38.5503 107.418C37.566 106.863 36.713 106.145 36.0568 105.296C35.4006 104.448 34.8756 103.436 34.5147 102.262C34.1538 101.087 33.9897 99.8793 33.9897 98.6392C33.9897 96.9097 34.3507 95.1801 35.0397 93.5158C35.7287 91.8515 36.6474 90.5461 37.7301 89.5997C38.8128 88.6534 40.0924 88.0007 41.536 87.6091C42.9797 87.2175 44.4561 87.0217 45.9326 87.0217C47.5075 87.0217 48.9839 87.2175 50.3947 87.5765C51.8056 87.9354 53.0195 88.5555 54.0038 89.4692C54.9881 90.3503 55.6772 91.362 56.1037 92.5041C56.5302 93.6463 56.7271 94.8538 56.7271 96.1591C56.7271 96.9423 56.6286 97.7908 56.4646 98.7371L42.0938 98.7698C42.0938 98.9982 42.061 99.194 42.061 99.3572C42.061 100.826 42.586 101.903 43.6359 102.588C44.6858 103.273 45.9654 103.632 47.4747 103.632C48.3933 103.632 49.4104 103.534 50.5588 103.306C51.74 103.11 53.1836 102.751 54.8897 102.262ZM42.2579 95.6696H49.0167C49.0167 95.4412 49.0495 95.2454 49.0495 95.0822C49.0495 94.3643 48.9183 93.7768 48.6558 93.2547C48.3933 92.7652 48.0324 92.3736 47.5731 92.1452C47.1137 91.9167 46.556 91.7862 45.9982 91.7862C45.6045 91.7862 45.178 91.8515 44.817 91.982C44.4233 92.1125 44.0952 92.3083 43.7671 92.5368C43.4718 92.7978 43.2094 93.0915 43.0125 93.3852C42.8156 93.7116 42.6516 94.0379 42.5532 94.3316C42.4547 94.6906 42.3563 95.1148 42.2579 95.6696Z" fill="black"/>
  <path d="M10.8262 122.429C11.3512 121.973 11.8105 121.548 12.3355 121.124L12.7292 120.798H10.4653L10.3997 120.863C9.44819 121.809 8.79199 122.397 7.70926 123.376L7.24992 123.8C5.93752 125.007 5.2157 125.66 4.00173 126.704C4.46107 123.702 4.62512 122.756 4.98603 121.059L5.05165 120.83H3.34553L3.18148 120.863L3.14867 121.026C3.05024 121.744 2.82057 123.604 2.03313 128.662C1.67222 130.816 1.40974 132.35 1.08164 133.916L1.04883 134.145H2.919L2.95181 133.982C3.14867 132.546 3.27991 131.73 3.50958 130.229L3.93611 127.455C4.78917 128.467 5.31413 129.119 5.80628 129.739C6.06876 130.098 6.33124 130.425 6.65934 130.816C6.82339 131.045 7.02025 131.24 7.1843 131.436C7.8405 132.252 8.43108 132.937 9.21852 134.08L9.28415 134.178H11.6465L11.3512 133.851C10.2684 132.578 9.64506 131.828 8.98886 131.045C8.75919 130.751 8.52951 130.457 8.26703 130.164C7.77488 129.576 7.44678 129.185 7.15149 128.858C6.72496 128.336 6.36405 127.944 5.74066 127.129C6.62653 126.313 7.34835 125.693 8.69356 124.518C9.51381 123.572 10.2028 122.984 10.8262 122.429Z" fill="black"/>
  <path d="M22.4074 121.418C21.5871 120.798 20.57 120.798 19.9466 120.798H14.6642L14.5658 121.483C14.2049 124.387 13.155 130.653 12.5316 133.884L12.4988 134.112H14.3689L14.4346 133.59C14.7627 130.979 15.4845 126.411 15.6485 125.464L15.7798 124.648C15.911 123.898 16.0423 123.147 16.2063 122.103H19.2248C19.6842 122.103 20.6357 122.103 21.1606 122.495C21.4559 122.723 21.7512 123.245 21.6528 123.996C21.5543 124.844 21.095 125.595 20.406 126.084C19.6842 126.574 18.7327 126.835 17.5187 126.835C16.9609 126.835 16.3375 126.737 15.911 126.704L15.5829 126.672L15.8454 127.912L15.9766 127.944C16.2391 128.01 16.8953 128.108 17.5843 128.108C19.1264 128.108 20.5044 127.749 21.4887 127.063C22.2433 126.541 23.1948 125.562 23.3917 124.028C23.5229 122.429 22.7355 121.646 22.4074 121.418Z" fill="black"/>
  <path d="M37.9597 121.189C37.5988 124.191 36.4176 131.371 35.9255 133.818L35.8599 134.047H37.73L37.8285 133.394C38.8784 126.117 39.2393 123.669 39.7971 120.993L39.8627 120.765H37.9925L37.9597 121.189Z" fill="black"/>
  <path d="M30.3804 125.986C29.4617 125.986 28.8055 126.052 28.1821 126.182L28.0837 126.215L27.4603 127.52L27.8212 127.455C28.543 127.324 29.1992 127.259 29.8226 127.259C31.0038 127.259 31.9225 127.488 32.5459 127.944C33.1364 128.401 33.3333 128.923 33.2349 129.837C33.1036 131.045 32.5459 131.828 31.4959 132.35C30.5773 132.807 29.593 132.84 28.7071 132.84H26.5088C27.165 128.401 27.5916 125.823 28.4118 121.026L28.4446 120.798H26.5744L26.5416 120.961C25.9511 125.562 25.2949 129.772 24.5074 133.851L24.4746 134.08H28.904C29.9867 134.08 31.135 134.014 32.349 133.427C33.8255 132.676 34.6785 131.502 34.8754 129.903C35.0066 128.793 34.7769 127.912 34.1207 127.227C33.4974 126.378 32.185 125.986 30.3804 125.986Z" fill="black"/>
  <path d="M51.6741 122.136L51.9365 120.765H41.3389L41.0764 122.136H41.3389C41.9951 122.103 42.6841 122.07 43.6028 122.07H45.5714C45.3089 123.93 45.1121 124.975 44.6855 127.651C44.2262 130.555 43.9965 131.795 43.6028 133.851L43.57 134.079H45.4402L45.5714 133.133C45.7354 131.697 45.8995 130.62 46.2276 128.728L46.6213 126.345C46.9166 124.583 47.0478 123.735 47.3431 122.07H49.5742C50.3289 122.07 50.985 122.103 51.5756 122.136H51.6741Z" fill="black"/>
  <path d="M57.0549 125.954C56.1362 125.954 55.48 126.019 54.8566 126.149L54.7582 126.182L54.1348 127.487L54.4957 127.422C55.2175 127.292 55.8737 127.226 56.5299 127.226C57.7111 127.226 58.6298 127.455 59.2532 127.912C59.8437 128.369 60.0406 128.891 59.9422 129.804C59.7781 131.012 59.2532 131.795 58.2032 132.317C57.2845 132.774 56.3002 132.807 55.4144 132.807H53.2161C53.8723 128.369 54.2988 125.79 55.1191 120.993L55.1519 120.765H53.2817L53.2489 120.928C52.6583 125.497 52.0021 129.739 51.2147 133.818L51.1819 134.047H55.6112C56.694 134.047 57.8423 133.982 59.0563 133.361C60.5327 132.611 61.3858 131.436 61.5827 129.837C61.7139 128.728 61.4842 127.846 60.828 127.161C60.139 126.378 58.8266 125.954 57.0549 125.954Z" fill="black"/>
  <path d="M64.6342 121.189C64.2733 124.257 63.1249 131.306 62.6 133.818L62.5671 134.047H64.4373L64.5357 133.329C65.5856 126.084 65.9466 123.637 66.5043 120.961L66.5699 120.732H64.6998L64.6342 121.189Z" fill="black"/>
  <path d="M75.822 119.852C77.5938 119.852 79.0046 119.297 79.9233 118.155L80.0874 117.959L78.6437 117.371L78.5453 117.469C77.7906 118.252 76.9376 118.611 75.8877 118.611C74.8377 118.611 74.0503 118.22 73.5581 117.437L73.4597 117.306L71.9504 117.893L72.0489 118.089C72.7379 119.231 73.9847 119.852 75.822 119.852Z" fill="black"/>
  <path d="M79.8583 120.798C75.9211 125.04 72.3448 128.793 69.5231 131.665C69.9825 129.021 70.1793 127.749 70.4418 126.019L70.5402 125.464C70.7699 123.93 70.9996 122.592 71.2949 120.961L71.3277 120.732H69.4575L69.4247 120.896C68.9326 124.812 68.0467 130.359 67.3905 133.786L67.3577 134.014H69.0638L69.1294 133.949C72.6073 130.163 74.379 128.336 75.8227 126.9L76.0851 126.639C77.0695 125.627 78.0209 124.648 79.4974 123.049C79.1693 125.171 78.9068 126.704 78.6443 128.434L78.4803 129.38C78.1522 131.469 77.9881 132.35 77.6928 133.786L77.66 134.014H79.3662L79.5302 133.982L79.563 133.818C79.8255 131.73 80.6129 126.345 81.5972 120.961L81.6301 120.732H79.9239L79.8583 120.798Z" fill="black"/>
  <path d="M107.582 126.868H103.218C104.268 125.301 104.564 124.91 105.056 124.159C105.351 123.735 105.712 123.18 106.335 122.234C106.893 124.29 107.32 125.823 107.582 126.868ZM110.371 130.816C110.24 130.294 110.076 129.739 109.879 128.989C109.649 128.206 109.518 127.684 109.354 127.161C109.091 126.215 108.862 125.399 108.337 123.539C108.009 122.299 107.91 121.973 107.845 121.679L107.582 120.7H105.581L105.515 120.798C104.695 122.136 104.268 122.756 102.989 124.616L102.628 125.105C101.414 126.868 100.561 128.14 99.8063 129.283C98.9204 130.621 98.1329 131.795 97.0502 133.329C96.1643 132.318 95.6066 131.632 95.0488 130.914C94.8191 130.621 94.5567 130.327 94.2942 129.968C93.802 129.348 93.4411 128.956 93.1458 128.597C92.7193 128.108 92.3912 127.684 91.7678 126.9C92.6537 126.117 93.3427 125.464 94.7207 124.29C95.6394 123.506 96.3284 122.886 96.9518 122.332C97.4767 121.875 97.9361 121.451 98.461 121.026L98.8548 120.7H96.5909L96.5253 120.765C95.541 121.744 94.9504 122.299 93.8348 123.311L93.3755 123.735C92.0631 124.942 91.3413 125.595 90.1273 126.607C90.5867 123.604 90.7507 122.658 91.1116 120.961L91.1772 120.733H89.3071L89.2743 120.896C89.2086 121.516 88.979 123.409 88.1587 128.532C87.765 130.947 87.5025 132.383 87.2072 133.786L87.1416 134.014H89.0118L89.0446 133.851C89.2414 132.415 89.3727 131.567 89.6024 130.066L90.0289 127.292C90.8819 128.304 91.4069 128.956 91.899 129.576C92.1615 129.903 92.424 130.262 92.7193 130.621C92.9162 130.849 93.0802 131.077 93.2443 131.273C93.9005 132.056 94.4582 132.742 95.2457 133.917L95.3113 134.014H97.6736H98.6251L98.6907 133.917C99.1172 133.231 99.5766 132.513 100.036 131.795C100.823 130.588 101.775 129.087 102.365 128.206H107.878C108.271 129.576 108.501 130.457 108.796 131.567L108.927 132.056C109.091 132.709 109.223 133.166 109.321 133.851L109.354 134.014H111.257L111.191 133.753C110.798 132.383 110.601 131.665 110.371 130.816Z" fill="black"/>
  <path d="M122.084 122.071L122.347 120.7H111.749L111.487 122.071L111.749 122.038C112.372 122.005 113.094 121.973 114.013 121.973H115.982C115.686 123.833 115.522 124.844 115.096 127.52C114.636 130.457 114.407 131.697 114.013 133.721L113.98 133.949H115.85L115.949 133.003C116.113 131.567 116.31 130.49 116.605 128.597L116.966 126.346C117.261 124.518 117.392 123.67 117.72 121.973H119.919C120.706 121.973 121.395 122.005 121.953 122.038L122.084 122.071Z" fill="black"/>
  <path d="M122.544 127.683C122.741 126.019 123.496 124.485 124.611 123.474C125.464 122.69 126.974 121.777 129.402 121.777V121.581V121.777C132.026 121.777 133.208 122.919 133.568 123.408C134.257 124.257 134.52 125.66 134.356 127.161C134.061 129.511 132.847 130.849 132.354 131.306C131.567 132.024 130.091 132.905 127.695 132.905C125.268 132.905 124.054 132.024 123.561 131.502C122.708 130.588 122.347 129.217 122.544 127.683ZM129.566 120.471C126.383 120.471 124.414 121.679 123.561 122.397C123.004 122.854 121.199 124.551 120.805 127.651C120.477 130.327 121.56 131.795 122.216 132.415C123.332 133.492 125.333 134.145 127.499 134.145C129.828 134.145 131.961 133.427 133.437 132.187C134.848 131.012 135.832 129.054 136.062 126.998C136.357 124.648 135.537 123.213 134.815 122.397C134.061 121.548 132.486 120.471 129.566 120.471Z" fill="black"/>
  <path d="M147.086 122.332C147.611 121.875 148.07 121.451 148.595 121.026L148.989 120.7H146.725L146.659 120.765C145.708 121.712 145.052 122.299 144.002 123.278L143.51 123.735C142.197 124.942 141.475 125.595 140.261 126.607C140.721 123.604 140.885 122.658 141.246 120.961L141.311 120.733H139.605L139.441 120.765L139.408 120.928C139.31 121.646 139.08 123.506 138.293 128.565C137.899 130.98 137.637 132.415 137.341 133.819L137.309 134.047H139.179L139.212 133.884C139.408 132.481 139.54 131.632 139.737 130.229L140.196 127.325C141.049 128.336 141.574 128.989 142.066 129.609C142.329 129.968 142.591 130.294 142.919 130.653C143.116 130.882 143.28 131.077 143.444 131.306C144.1 132.089 144.658 132.807 145.445 133.949L145.511 134.047H147.873L147.578 133.721C146.495 132.481 145.905 131.73 145.249 130.947C145.019 130.653 144.756 130.36 144.494 130.033C144.002 129.413 143.674 129.022 143.346 128.663C142.919 128.173 142.591 127.749 141.968 126.966C142.886 126.15 143.575 125.53 144.921 124.355C145.774 123.474 146.463 122.854 147.086 122.332Z" fill="black"/>
  <path d="M70.5073 39.4421L74.0836 61.8941C74.182 62.4488 74.4117 63.0362 74.871 63.3952L92.4572 77.5582V78.4719L71.2619 70.3788C70.5729 70.1177 69.7527 70.1177 69.0965 70.3788L47.8684 78.4719V77.5582L65.3889 63.4278C65.8155 63.0689 66.1108 62.5467 66.1764 61.992L69.7855 39.4421H70.5073Z" fill="black"/>
  <path d="M70.671 39.442L74.2473 16.9901C74.3457 16.4353 74.5754 15.8479 75.0347 15.4889L92.6209 1.32591V0.41217L71.4256 8.50531C70.7366 8.76638 69.9164 8.76638 69.2602 8.50531L47.9993 0.41217V1.32591L65.5198 15.4563C65.9464 15.8152 66.2416 16.3374 66.3073 16.8922L69.9164 39.442H70.671Z" fill="black"/>
  <path d="M70.3428 39.7684L52.4942 53.9967C52.0677 54.3557 51.674 54.8452 51.5755 55.3999L47.868 77.5908L47.0806 78.0477L43.6355 55.6936C43.5371 54.9757 43.1434 54.2578 42.5856 53.8009L25.0322 39.4421L25.8197 38.9852L46.8509 47.1436C47.3758 47.3394 47.9664 47.3068 48.4914 47.1436L69.9819 39.1158L70.3428 39.7684Z" fill="black"/>
  <path d="M70.2773 39.7685L87.9291 54.2252C88.3557 54.5842 88.7494 55.0737 88.815 55.6285L92.2273 77.8846L93.0147 78.3415L96.755 56.0527C96.8863 55.3348 97.28 54.6495 97.8378 54.1926L115.588 40.0622L114.801 39.6054L93.6709 47.5027C93.1459 47.6985 92.5554 47.6659 92.0304 47.4701L70.6382 39.1485L70.2773 39.7685Z" fill="black"/>
</svg>
