<svg width="100" height="99" viewBox="0 0 100 99" fill="none" xmlns="http://www.w3.org/2000/svg">
  <path d="M99.0641 0.731567H0.936035V68.6575H99.0641V0.731567ZM98.6301 68.1946H1.36997V1.16551H98.6301V68.1946Z" fill="white"/>
  <path d="M93.4212 36.3146C92.4087 36.3146 91.049 39.4968 89.2843 37.6164C88.3297 36.3146 88.3297 35.9674 87.5197 34.9549C85.8128 28.1565 79.7088 34.5499 77.2208 37.0378C77.2208 34.2606 78.4648 31.4255 78.4648 28.6483C78.3491 25.09 75.5719 25.7554 72.3607 29.3715C69.7571 31.5123 70.0464 32.2645 67.4428 34.0581C64.8391 36.7196 66.7195 32.6984 66.9799 29.9791C67.2692 28.0119 66.3434 26.305 63.3637 28.2144C62.4091 28.6194 61.0494 30.413 59.979 31.4834C58.5325 33.1902 56.4786 34.6945 55.2925 36.6039C54.7139 36.8353 53.036 39.7282 50.4323 36.6328C49.6512 34.2027 45.8037 29.3426 43.6918 33.9134C41.2039 37.9346 39.7864 42.7947 38.4846 47.1052C37.5299 48.9277 37.472 52.1389 36.6331 52.3703C37.472 46.5845 39.6996 41.1168 40.8278 35.4467C41.6668 33.4795 41.9561 29.7766 43.6629 28.2144C43.7207 27.7515 43.8943 26.4497 44.7911 24.5404C45.9772 21.9946 44.9069 19.8538 44.2704 19.7381C43.6918 19.7381 43.3736 20.577 42.6214 21.3292C40.4517 26.4208 34.3187 35.2153 30.1529 39.6414C30.4422 37.5007 30.7026 34.1738 30.7026 33.277C32.3226 32.4091 32.178 31.0494 30.9051 30.3551C30.9051 27.8094 31.3969 23.875 30.529 23.1807C30.9051 20.6349 30.529 17.5973 30.0951 16.3244C29.6611 13.7208 27.1732 14.5887 25.8714 12.5636C25.8714 11.5222 28.0411 8.60033 26.4789 7.99282C24.6853 7.24065 22.8917 9.84429 21.7634 10.0468C21.5899 10.8568 20.8956 11.9561 20.1434 11.9561C19.3912 12.2165 18.668 11.9561 18.0894 13.2579C17.3951 14.878 19.073 14.5598 18.3498 15.4855C16.7876 16.7295 14.0972 25.5818 13.2293 28.8508C12.3036 30.1526 11.7539 32.3802 11.4935 32.9877C9.26599 33.2481 8.57169 34.4631 7.96418 36.6328C8.57169 37.8189 7.21202 39.6704 9.58421 39.4679C9.58421 40.7118 8.22454 42.679 8.22454 44.6173C8.10882 44.733 7.5881 46.0348 7.5881 47.0184C6.77808 48.9856 5.73663 53.4407 9.266 51.3578C9.69993 50.432 10.51 49.2459 10.6835 46.7291C11.1753 46.4687 11.4935 44.6173 12.1011 42.5054C13.5186 40.4515 13.6343 38.9761 14.0104 37.8189C16.9033 38.1371 19.507 35.7649 22.2263 35.0417C23.7885 35.2153 25.9293 34.2317 26.1896 34.4342C26.3632 35.302 26.3632 38.1371 26.3632 39.8729C26.7971 40.7407 26.5368 42.4765 26.3632 42.9104C26.6236 45.3983 26.1028 47.3655 26.1896 49.1013C26.3632 50.8949 29.1115 48.8409 29.0247 47.3655C29.285 46.6423 29.5165 45.1959 29.6611 43.8651C30.9629 43.3154 34.1741 38.4843 35.4759 38.166C35.4759 45.3984 32.8723 52.2546 33.1037 59.5158C32.5251 62.6402 35.7073 63.4791 36.4884 60.4126C37.1249 59.5158 37.501 58.5322 37.501 57.3461C38.3399 55.755 38.8028 54.2218 39.2656 52.1389C39.9889 50.1427 40.9725 48.2913 41.4643 45.8612C42.1875 44.6751 43.1711 41.8401 43.7208 40.4225C45.0226 36.9221 45.9772 38.9471 47.3948 40.3068C53.2095 46.4687 59.0243 34.7813 60.5865 35.5045C61.6569 35.9096 58.5036 43.084 58.5036 44.3858C58.5036 45.5719 60.1526 45.8612 60.7601 45.2248C61.223 45.2248 62.0619 43.3444 63.0744 42.9683C64.4341 40.7118 67.8188 37.9346 68.6867 36.6906C72.5343 33.1902 73.6047 33.0166 72.3029 37.6453C71.4061 41.6086 70.22 43.8072 70.22 45.1091C70.6828 46.1216 71.4061 46.9605 73.2865 45.2248C74.2411 44.3858 77.5969 40.4804 78.4359 39.6704C79.7955 38.8314 80.3452 37.6453 81.3288 37.4139C83.5853 37.4139 84.8292 40.7986 86.6518 41.7822C90.3258 43.8651 92.4955 41.1458 93.508 39.9018C93.4212 38.4553 93.3055 38.0214 93.4212 36.3146ZM26.421 29.2558C26.421 30.5576 26.421 31.7148 26.1028 31.5412C25.4375 31.5412 24.0489 31.5412 23.2099 32.0909C20.9823 31.8305 16.4694 32.9009 16.0933 32.3513C16.0933 30.0658 18.263 27.7226 18.6969 25.3504C19.7384 23.4989 20.8088 22.0235 20.9823 20.577C21.532 19.8249 22.1106 18.957 22.6602 18.957C24.8878 19.1306 25.7557 22.3128 26.2475 22.4285C25.7557 23.8461 26.0739 26.4497 26.5078 26.6233C26.1028 26.739 26.1028 28.2722 26.421 29.2558Z" fill="white"/>
  <path d="M0.905273 65.967V98.8018H99.0333V65.967H0.905273ZM80.0846 72.939H81.3286V79.7374H80.0846V72.939ZM71.6373 72.939H72.8813V75.4269H77.076C77.5389 75.4269 77.9149 75.4558 78.1464 75.5426C78.4067 75.6294 78.6092 75.7451 78.8118 75.9476C78.9853 76.1212 79.101 76.3816 79.1878 76.7287C79.2457 77.018 79.2746 77.3652 79.2746 77.7412C79.2746 78.5223 79.1011 79.0431 78.7828 79.3324C78.4646 79.6216 77.9149 79.7663 77.1628 79.7663H71.6662V72.939H71.6373ZM61.4542 72.939H62.6982V75.6873H68.1369V72.939H69.3808V79.7374H68.1369V76.7866H62.6982V79.7374H61.4542V72.939ZM32.901 72.939H34.2028L38.2529 79.7374H36.8065L35.9675 78.3198H31.1653L30.3263 79.7374H28.8509L32.901 72.939ZM22.1104 90.933L17.7132 87.9822H16.9032V90.933H15.6592V84.1346H16.9032V86.854H17.7132L21.879 84.1346H24.0776L19.0728 87.4326L24.3958 90.9619H22.1104V90.933ZM23.3544 79.8242H22.6601L21.2425 79.7663C19.9697 79.6506 19.3332 78.9274 19.3332 77.7123L19.3043 76.4973C19.3043 76.0055 19.3043 75.6583 19.3043 75.398C19.3043 75.1376 19.3621 74.8194 19.4489 74.3855C19.5357 73.8937 19.7671 73.5465 20.1432 73.2861C20.4904 73.0547 20.9822 72.9101 21.5897 72.9101C21.8211 72.8811 22.0526 72.8522 22.3129 72.8522C22.5444 72.8522 22.8047 72.8522 23.1229 72.8522H24.2512C24.6273 72.8522 24.9166 72.8522 25.148 72.8811C25.3794 72.9101 25.6976 72.939 26.0737 73.0258C26.5366 73.1126 26.8548 73.3729 27.0284 73.7779C27.173 74.154 27.2598 74.6169 27.2598 75.2244V75.4558H26.0159V75.1665C26.0159 74.8773 25.9869 74.6748 25.958 74.5012C25.9291 74.3855 25.9002 74.2987 25.8134 74.2408C25.7555 74.2119 25.6109 74.1251 25.2058 74.0962C24.8587 74.0383 24.3958 74.0383 23.7883 74.0383C23.5569 74.0383 23.2097 74.0383 22.7758 74.0672C22.3129 74.0962 21.9658 74.0962 21.7054 74.0962C21.069 74.154 20.8665 74.2697 20.8375 74.3276C20.7507 74.4144 20.664 74.559 20.635 74.964C20.6061 75.3112 20.5772 75.6583 20.5772 75.9476C20.5772 76.2369 20.5772 76.5262 20.5772 76.8155C20.5772 77.7702 20.6929 78.1752 20.7797 78.3777C20.8954 78.5802 21.2715 78.6959 21.8501 78.6959H24.743C25.4084 78.6959 25.6976 78.6091 25.8423 78.5223C25.9869 78.4356 26.0737 78.1463 26.0737 77.7412V77.2205H27.3466V77.452C27.3466 78.3198 27.202 78.8984 26.9127 79.2456C26.5945 79.5927 25.9869 79.7663 25.0033 79.7663L23.3544 79.8242ZM33.306 87.1722C33.2482 87.4904 33.1325 87.7508 32.93 87.9533C32.7564 88.1269 32.525 88.2715 32.2646 88.3583C32.0332 88.4451 31.6571 88.474 31.1942 88.474H26.9995V90.9619H25.7555V84.1635H31.2521C32.0042 84.1635 32.5539 84.3082 32.8721 84.5975C33.2192 84.9157 33.3639 85.4364 33.3639 86.1886C33.3639 86.5357 33.335 86.8829 33.306 87.1722ZM42.2163 90.933L41.3773 89.5155H36.575L35.7361 90.933H34.2896L38.3108 84.1346H39.6126L43.6627 90.933H42.2163ZM40.7698 79.7663H39.3233L43.3445 72.9679H44.6463L48.6964 79.7663H47.2499L43.9809 74.2408L40.7698 79.7663ZM53.2962 88.6476C53.2962 89.5155 53.1515 90.123 52.8622 90.4412C52.544 90.7884 51.9365 90.9619 50.9529 90.9619L49.3328 91.0198H48.6385L47.221 90.9619C45.9481 90.8462 45.3117 90.123 45.3117 88.9079L45.2828 87.6929C45.2828 87.2011 45.2828 86.854 45.2828 86.5936C45.2828 86.3332 45.3406 86.015 45.4274 85.5811C45.5142 85.0893 45.7456 84.7421 46.1217 84.4818C46.4688 84.2503 46.9606 84.1057 47.5682 84.1057C47.7996 84.0768 48.031 84.0478 48.2625 84.0478C48.4939 84.0478 48.7543 84.0478 49.0725 84.0478H50.2007C50.5768 84.0478 50.8661 84.0478 51.0975 84.0768C51.329 84.1057 51.6472 84.1346 52.0233 84.2214C52.4572 84.3082 52.7754 84.5686 52.9779 84.9736C53.1226 85.3207 53.2094 85.8125 53.2094 86.42V86.6515H51.9654V86.3622C51.9654 86.0729 51.9365 85.8704 51.9076 85.6968C51.8786 85.5232 51.7918 85.4654 51.7629 85.4364C51.705 85.4075 51.5604 85.3207 51.1554 85.2629C50.8372 85.205 50.3454 85.205 49.7379 85.205C49.5064 85.205 49.1593 85.205 48.7253 85.2339C48.2625 85.2629 47.9153 85.2629 47.6839 85.2629C47.0474 85.3207 46.8449 85.4364 46.816 85.4943C46.7292 85.5811 46.6424 85.7257 46.6135 86.1307C46.5846 86.4779 46.5556 86.825 46.5556 87.1143C46.5556 87.4036 46.5556 87.6929 46.5556 87.9822C46.5556 88.9369 46.6714 89.3419 46.7581 89.5444C46.8739 89.7469 47.2499 89.8626 47.8285 89.8626H50.7214C51.3868 89.8626 51.6761 89.7758 51.8208 89.689C51.9654 89.6023 52.0522 89.313 52.0522 88.9079V88.4162H53.3251V88.6476H53.2962ZM53.4987 79.8242C53.0937 79.8242 52.7176 79.7952 52.3704 79.7663C51.9943 79.7374 51.6761 79.6506 51.4157 79.5349C51.1265 79.4191 50.895 79.2166 50.6925 78.8984C50.5189 78.6091 50.4032 78.262 50.3743 77.828C50.3164 77.423 50.3164 76.9312 50.3164 76.3816C50.3164 75.8609 50.3164 75.4848 50.3454 75.2533C50.3454 75.0219 50.4032 74.6748 50.5189 74.2408C50.6347 73.749 50.895 73.4019 51.3 73.1704C51.6761 72.9679 52.1968 72.8522 52.8044 72.8522H55.6105C56.9991 72.8522 57.8959 73.0547 58.3009 73.4308C58.7349 73.8358 58.9374 74.7037 58.9374 76.0634V76.4973C58.9374 76.9602 58.9084 77.452 58.8506 77.9727C58.7927 78.5223 58.5902 78.9852 58.2431 79.3034C57.8959 79.6217 57.3752 79.7663 56.7098 79.7663C56.5362 79.7952 56.3048 79.7952 55.9866 79.7952C55.6973 79.7952 55.408 79.7952 55.1476 79.7952H53.4987V79.8242ZM64.0578 87.6929C64.0578 88.1558 64.0289 88.6476 63.9711 89.1683C63.9132 89.718 63.7107 90.1808 63.3635 90.4991C63.0164 90.8173 62.4957 90.9619 61.8303 90.9619C61.6567 90.9909 61.3963 90.9909 61.107 90.9909C60.8178 90.9909 60.5285 90.9909 60.2681 90.9909H58.677C58.3009 90.9909 57.8959 90.9619 57.5488 90.933C57.1727 90.9041 56.8545 90.8173 56.5652 90.7016C56.2759 90.5858 56.0444 90.3833 55.8709 90.0651C55.6973 89.7758 55.5816 89.4287 55.5526 88.9947C55.4948 88.5897 55.4948 88.0979 55.4948 87.5483C55.4948 87.0275 55.4948 86.6515 55.5237 86.42C55.5237 86.1886 55.5816 85.8414 55.6973 85.4075C55.813 84.9157 56.0734 84.5686 56.4784 84.3371C56.8545 84.1346 57.3752 84.0189 57.9827 84.0189H60.7888C62.1774 84.0189 63.0742 84.2214 63.4793 84.5975C63.9132 85.0025 64.1157 85.8704 64.1157 87.2301V87.6929H64.0578ZM73.6045 85.2339H70.3933V90.9041H69.1494V85.2339H65.9672V84.1057H73.6045V85.2339ZM82.804 90.4701C82.4858 90.7594 81.9361 90.933 81.184 90.933H75.6874V84.1346H76.9314V86.6225H81.1261C81.589 86.6225 81.9361 86.6515 82.1965 86.7383C82.4568 86.825 82.6593 86.9697 82.8329 87.1433C83.0065 87.3168 83.1511 87.5772 83.209 87.9244C83.2669 88.2136 83.2958 88.5608 83.2958 88.9369C83.3247 89.6601 83.1511 90.1808 82.804 90.4701ZM85.4076 90.933H84.1637V84.1057H85.4076V90.933Z" fill="white"/>
  <path d="M57.4331 78.2909C57.5488 78.0595 57.6356 77.7123 57.6356 77.2495V75.9477C57.6356 75.5716 57.6067 75.2244 57.5777 74.9351C57.5488 74.6748 57.4909 74.5012 57.4041 74.3566C57.3174 74.2408 57.2306 74.183 57.1149 74.154C56.9413 74.0962 56.7966 74.0673 56.623 74.0673C56.4495 74.0383 56.2759 74.0383 56.0734 74.0383L54.5691 74.0094L53.0937 74.0383C52.2258 74.0383 51.9076 74.183 51.8208 74.2698C51.734 74.3565 51.5604 74.588 51.5604 75.4269L51.5315 76.8445C51.5315 77.7702 51.6472 78.1752 51.7629 78.3488C51.8208 78.4645 52.0811 78.667 52.9201 78.667L55.3502 78.6959C55.7841 78.6959 56.247 78.667 56.6809 78.6381C57.0859 78.5802 57.3174 78.4645 57.4331 78.2909Z" fill="white"/>
  <path d="M62.5825 85.5232C62.4957 85.4075 62.4089 85.3496 62.2932 85.3207C62.1196 85.2628 61.9749 85.2628 61.8014 85.2339C61.6278 85.205 61.4542 85.205 61.2517 85.205L59.7763 85.176L58.3009 85.205C57.4331 85.205 57.1148 85.3496 57.0281 85.4364C56.9413 85.5232 56.7677 85.7546 56.7677 86.5646L56.7388 87.9822C56.7388 88.9079 56.8545 89.3129 56.9702 89.4865C57.0281 89.6022 57.2884 89.8047 58.1274 89.8047L60.5574 89.8336C60.9914 89.8336 61.4542 89.8047 61.8882 89.7758C62.2642 89.7469 62.4957 89.6311 62.6114 89.4286C62.7271 89.2261 62.8139 88.8501 62.8139 88.3872V87.0854C62.8139 86.7093 62.785 86.3621 62.756 86.0728C62.7271 85.8414 62.6692 85.6678 62.5825 85.5232Z" fill="white"/>
  <path d="M77.9727 77.6834C77.9727 76.9891 77.7991 76.7866 77.7412 76.7287C77.6544 76.6709 77.3652 76.5262 76.613 76.5262H72.8811V78.6091H77.0469C77.423 78.6091 77.6544 78.5513 77.7702 78.4066C77.857 78.3488 77.9727 78.1463 77.9727 77.6834Z" fill="white"/>
  <path d="M37.2114 88.3872H40.7119L38.9472 85.4075L37.2114 88.3872Z" fill="white"/>
  <path d="M31.1653 85.2339H26.9995V87.3168H30.7314C31.4835 87.3168 31.7728 87.2011 31.8596 87.1143C31.9175 87.0564 32.0911 86.8828 32.0911 86.1596C32.0911 85.6967 32.0043 85.4942 31.9175 85.3785C31.8018 85.3207 31.5414 85.2339 31.1653 85.2339Z" fill="white"/>
  <path d="M80.6923 87.7219H76.9604V89.8048H81.1262C81.5891 89.8048 81.7916 89.6891 81.8495 89.6023C81.9363 89.5155 82.023 89.313 82.023 88.8502C82.023 88.1559 81.8784 87.9534 81.7916 87.8955C81.7048 87.8376 81.4445 87.7219 80.6923 87.7219Z" fill="white"/>
  <path d="M33.5375 74.2118L31.8018 77.2204H35.3022L33.5375 74.2118Z" fill="white"/>
</svg>
