<svg width="19" height="19" viewBox="0 0 19 19" fill="none" xmlns="http://www.w3.org/2000/svg">
  <g clip-path="url(#clip0)">
    <path d="M9.5035 4.6217C6.80946 4.6217 4.62842 6.80512 4.62842 9.49679C4.62842 12.1908 6.81183 14.3719 9.5035 14.3719C12.1975 14.3719 14.3786 12.1885 14.3786 9.49679C14.3786 6.80275 12.1952 4.6217 9.5035 4.6217ZM9.5035 12.6611C7.75471 12.6611 6.33921 11.2448 6.33921 9.49679C6.33921 7.74879 7.7555 6.3325 9.5035 6.3325C11.2515 6.3325 12.6678 7.74879 12.6678 9.49679C12.6686 11.2448 11.2523 12.6611 9.5035 12.6611Z" fill="white"/>
    <path d="M13.4164 0.0621225C11.6684 -0.0194192 7.33874 -0.0154608 5.58916 0.0621225C4.05174 0.134164 2.69562 0.505456 1.60233 1.59875C-0.224838 3.42591 0.00870335 5.888 0.00870335 9.49879C0.00870335 13.1943 -0.19713 15.5994 1.60233 17.3988C3.43662 19.2323 5.93433 18.9925 9.50237 18.9925C13.163 18.9925 14.4265 18.9948 15.7209 18.4937C17.4808 17.8105 18.8092 16.2375 18.939 13.412C19.0214 11.6632 19.0166 7.33437 18.939 5.58479C18.7823 2.2495 16.9923 0.226789 13.4164 0.0621225ZM16.1832 16.19C14.9855 17.3877 13.3237 17.2809 9.47941 17.2809C5.52108 17.2809 3.93379 17.3395 2.77558 16.1781C1.44162 14.8505 1.68308 12.7185 1.68308 9.48612C1.68308 5.11216 1.2342 1.96212 5.62399 1.73729C6.63258 1.70166 6.92945 1.68979 9.46833 1.68979L9.50395 1.71354C13.7227 1.71354 17.0327 1.27179 17.2314 5.66079C17.2765 6.66225 17.2868 6.96308 17.2868 9.498C17.286 13.4104 17.3605 15.0072 16.1832 16.19Z" fill="white"/>
    <path d="M14.5713 5.56858C15.2005 5.56858 15.7105 5.05854 15.7105 4.42937C15.7105 3.8002 15.2005 3.29016 14.5713 3.29016C13.9422 3.29016 13.4321 3.8002 13.4321 4.42937C13.4321 5.05854 13.9422 5.56858 14.5713 5.56858Z" fill="white"/>
  </g>
  <defs>
    <clipPath id="clip0">
      <rect width="19" height="19" fill="white"/>
    </clipPath>
  </defs>
</svg>
