<svg width="118" height="171" viewBox="0 0 118 171" fill="none" xmlns="http://www.w3.org/2000/svg">
  <path d="M35.818 105.18C28.8041 105.18 23.0835 99.3584 23.0835 92.2201C23.0835 85.0818 28.8041 79.2598 35.818 79.2598C42.8319 79.2598 48.5525 85.0818 48.5525 92.2201C48.5525 99.3584 42.8319 105.18 35.818 105.18ZM35.818 81.5886C30.0974 81.5886 25.4215 86.3475 25.4215 92.1695C25.4215 97.9915 30.0974 102.75 35.818 102.75C41.5386 102.75 46.2145 97.9915 46.2145 92.1695C46.2145 86.3475 41.5386 81.5886 35.818 81.5886Z" fill="black"/>
  <path d="M82.1305 26.6084C75.1166 26.6084 69.396 20.7864 69.396 13.6481C69.396 6.50978 75.1166 0.687775 82.1305 0.687775C89.1444 0.687775 94.865 6.50978 94.865 13.6481C94.9147 20.7864 89.1942 26.6084 82.1305 26.6084ZM82.1305 3.01657C76.4099 3.01657 71.734 7.77544 71.734 13.5974C71.734 19.4195 76.4099 24.1783 82.1305 24.1783C87.8511 24.1783 92.527 19.4195 92.527 13.5974C92.5768 7.77544 87.9008 3.01657 82.1305 3.01657Z" fill="black"/>
  <path d="M55.8654 105.18H53.8259L54.8208 103.408C56.7608 100.016 57.7557 96.1688 57.7557 92.2199C57.7557 85.5373 54.8705 79.3102 49.8464 75.007L31.1425 59.3129C23.3327 52.8327 19.0547 44.2769 19.0547 35.2655C19.0547 16.1794 38.3555 0.687775 62.0337 0.687775H64.0732L63.0783 2.45969C61.1383 5.85165 60.1434 9.69923 60.1434 13.6481C60.1434 20.3814 63.0783 26.7096 68.202 30.9622L86.7566 46.5551C94.5664 53.0352 98.8444 61.5911 98.8444 70.6025C98.8444 89.6886 79.5934 105.18 55.8654 105.18ZM60.1434 3.0672C38.6042 3.87722 21.4424 18.0019 21.4424 35.2148C21.4424 43.5175 25.422 51.4152 32.6846 57.4397L51.3884 73.1845C56.9598 77.8927 60.1434 84.8285 60.1434 92.2199C60.1434 95.865 59.3475 99.5101 57.8054 102.801C79.2949 101.991 96.5064 87.8661 96.5064 70.6532C96.5064 62.3505 92.5269 54.4528 85.2642 48.4283L66.7097 32.7848C61.0388 28.0765 57.8054 21.0901 57.8054 13.6481C57.8054 9.95236 58.6013 6.35791 60.1434 3.0672Z" fill="black"/>
  <path d="M11.8417 141.429C11.394 140.872 10.8468 140.467 10.1504 140.163C9.45397 139.859 8.7078 139.606 7.86215 139.353C7.0165 139.1 6.17085 138.847 5.3252 138.543C4.47954 138.239 3.73338 137.885 3.03696 137.48C2.34054 137.075 1.79336 136.467 1.34566 135.708C0.897959 134.948 0.69898 133.986 0.69898 132.923C0.69898 131.253 1.34565 129.835 2.639 128.671C3.93235 127.506 5.62366 126.899 7.71291 126.899C8.50882 126.899 9.25499 127 9.95141 127.203C10.6478 127.405 11.2448 127.658 11.7422 127.911C12.2396 128.164 12.6376 128.468 13.0356 128.721C13.4335 128.974 13.6822 129.228 13.8315 129.43L14.0802 129.734L12.5381 131.303C12.4884 131.253 12.4386 131.151 12.3391 131.05C12.2396 130.949 12.0407 130.797 11.7422 130.544C11.4437 130.291 11.0955 130.088 10.7971 129.886C10.4489 129.683 10.0012 129.481 9.45396 129.329C8.90678 129.177 8.30985 129.076 7.71291 129.076C6.27033 129.076 5.12622 129.43 4.28056 130.19C3.43491 130.949 2.98721 131.81 2.98721 132.873C2.98721 133.632 3.18619 134.29 3.63389 134.847C4.08159 135.404 4.62878 135.809 5.3252 136.113C6.02162 136.417 6.81752 136.67 7.61343 136.923C8.45908 137.176 9.30474 137.429 10.1504 137.733C10.996 138.037 11.7422 138.391 12.4386 138.796C13.135 139.201 13.6822 139.808 14.1299 140.568C14.5776 141.327 14.7766 142.239 14.7766 143.352C14.7766 145.225 14.1299 146.744 12.8366 147.909C11.5432 149.073 9.75243 149.681 7.46419 149.681C6.51905 149.681 5.62366 149.579 4.77801 149.326C3.93235 149.073 3.23594 148.82 2.68875 148.516C2.14156 148.212 1.69386 147.858 1.24616 147.554C0.848208 147.2 0.549744 146.947 0.400512 146.694L0.102051 146.339L1.54463 144.719C1.59438 144.77 1.64412 144.871 1.7436 145.023C1.84309 145.175 2.09182 145.377 2.44003 145.681C2.78824 145.985 3.18619 146.289 3.58415 146.491C3.9821 146.744 4.52928 146.947 5.2257 147.149C5.92212 147.352 6.66829 147.453 7.36471 147.453C8.95652 147.453 10.2001 147.099 11.0458 146.339C11.8914 145.58 12.3391 144.567 12.3391 143.352C12.4884 142.593 12.2396 141.985 11.8417 141.429Z" fill="black"/>
  <path d="M40.5939 145.529C41.8873 144.213 42.5339 142.593 42.5339 140.72V127.253H44.8719V140.72C44.8719 143.201 43.9765 145.276 42.2355 147.099C40.4944 148.871 38.4052 149.782 35.9677 149.782C33.58 149.782 31.4907 148.871 29.6999 147.099C27.9589 145.327 27.0635 143.201 27.0635 140.77V127.304H29.4015V140.77C29.4015 142.694 30.0481 144.264 31.3415 145.58C32.6348 146.896 34.1769 147.554 35.9677 147.554C37.8082 147.504 39.3503 146.846 40.5939 145.529Z" fill="black"/>
  <path d="M68.6493 141.429C68.2016 140.872 67.6544 140.467 66.958 140.163C66.2616 139.859 65.5154 139.606 64.6698 139.353C63.8241 139.1 62.9785 138.847 62.1328 138.543C61.2872 138.239 60.541 137.885 59.8446 137.48C59.1482 137.075 58.601 136.467 58.1533 135.708C57.7056 134.948 57.5066 133.987 57.5066 132.923C57.5066 131.253 58.1533 129.835 59.4466 128.671C60.74 127.506 62.4313 126.899 64.5206 126.899C65.3165 126.899 66.0626 127 66.759 127.203C67.4555 127.405 68.0524 127.658 68.5498 127.911C69.0473 128.164 69.4452 128.468 69.8432 128.721C70.2411 128.975 70.4899 129.228 70.6391 129.43L70.8878 129.734L69.3457 131.303C69.296 131.253 69.2463 131.151 69.1468 131.05C69.0473 130.949 68.898 130.797 68.5498 130.544C68.2514 130.291 67.9032 130.088 67.6047 129.886C67.2565 129.683 66.8088 129.481 66.2616 129.329C65.7144 129.177 65.1175 129.076 64.5206 129.076C63.078 129.076 61.9339 129.43 61.0882 130.19C60.2425 130.949 59.7948 131.81 59.7948 132.873C59.7948 133.632 59.9938 134.29 60.4415 134.847C60.8892 135.404 61.4364 135.809 62.1328 136.113C62.8292 136.417 63.6251 136.67 64.4211 136.923C65.2667 137.176 66.1124 137.429 66.958 137.733C67.8037 138.037 68.5498 138.391 69.2463 138.796C69.9427 139.201 70.4899 139.809 70.9376 140.568C71.3853 141.327 71.5842 142.239 71.5842 143.352C71.5842 145.226 70.9376 146.744 69.6442 147.909C68.3509 149.073 66.5601 149.681 64.2718 149.681C63.3267 149.681 62.4313 149.579 61.5856 149.326C60.74 149.073 60.0436 148.82 59.4964 148.516C58.9492 148.212 58.5015 147.858 58.0538 147.554C57.6558 147.2 57.3574 146.947 57.2081 146.694L56.9097 146.339L58.3523 144.719C58.402 144.77 58.4517 144.871 58.5512 145.023C58.6507 145.175 58.8994 145.377 59.2477 145.681C59.5959 145.985 59.9938 146.289 60.3918 146.491C60.7897 146.744 61.3369 146.947 62.0333 147.149C62.7298 147.352 63.4759 147.453 64.1723 147.453C65.7642 147.453 67.0078 147.099 67.8534 146.339C68.6991 145.58 69.1468 144.567 69.1468 143.352C69.3457 142.593 69.097 141.985 68.6493 141.429Z" fill="black"/>
  <path d="M84.2695 127.203H86.6075V137.024H98.7451V127.203H101.083V149.377H98.7451V139.252H86.6075V149.377H84.2695V127.203Z" fill="black"/>
  <path d="M115.459 127.203H117.797V149.377H115.459V127.203Z" fill="black"/>
  <path d="M17.9101 166.134C17.5619 165.932 17.1639 165.729 16.6665 165.628C16.169 165.476 15.6716 165.324 15.2239 165.122C14.7265 164.919 14.3285 164.615 13.9803 164.16C13.6321 163.704 13.4829 163.147 13.4829 162.489C13.4829 161.679 13.8311 160.97 14.4777 160.363C15.1244 159.755 15.9701 159.502 17.0147 159.502C17.4127 159.502 17.8106 159.553 18.2086 159.654C18.6065 159.755 18.905 159.857 19.1537 160.008C19.4024 160.16 19.6014 160.262 19.8004 160.413C19.9994 160.565 20.0989 160.667 20.1983 160.768L20.3476 160.92L18.9547 162.287C18.905 162.236 18.8055 162.135 18.706 162.033C18.6065 161.932 18.4075 161.831 18.0593 161.628C17.7609 161.477 17.4127 161.375 17.0644 161.375C16.6665 161.375 16.3183 161.477 16.0696 161.679C15.8208 161.882 15.6716 162.135 15.6716 162.438C15.6716 162.793 15.8208 163.046 16.169 163.248C16.5173 163.451 16.9152 163.653 17.4127 163.755C17.9101 163.907 18.3578 164.058 18.8552 164.261C19.3527 164.464 19.7506 164.767 20.0989 165.223C20.4471 165.679 20.5963 166.235 20.5963 166.894C20.5963 167.855 20.2481 168.615 19.6014 169.222C18.905 169.83 18.0096 170.134 16.8157 170.134C16.368 170.134 15.9203 170.083 15.4726 169.982C15.0249 169.881 14.6767 169.729 14.3783 169.577C14.0798 169.425 13.8311 169.273 13.6321 169.07C13.4331 168.919 13.2839 168.767 13.1844 168.665L13.0352 168.463L14.3285 167.147C14.3782 167.248 14.4777 167.299 14.627 167.45C14.7265 167.552 15.0249 167.754 15.4229 167.957C15.8208 168.159 16.2685 168.26 16.7162 168.26C17.2137 168.26 17.6614 168.159 17.9101 167.906C18.2086 167.653 18.3578 167.349 18.3578 166.944C18.4075 166.59 18.2086 166.337 17.9101 166.134Z" fill="black"/>
  <path d="M36.614 159.755V161.729H33.7786V169.982H31.6396V161.729H28.7544V159.755H36.614Z" fill="black"/>
  <path d="M51.4381 167.501C51.8858 167.045 52.0848 166.488 52.0848 165.78V159.755H54.2238V165.78C54.2238 167.045 53.8258 168.058 52.9801 168.919C52.1345 169.779 51.0899 170.184 49.8463 170.184C48.6027 170.184 47.558 169.779 46.7124 168.919C45.8667 168.058 45.4688 167.045 45.4688 165.78V159.755H47.6078V165.78C47.6078 166.438 47.8067 167.045 48.2544 167.501C48.7021 167.957 49.1996 168.21 49.8463 168.21C50.4929 168.21 50.9904 167.957 51.4381 167.501Z" fill="black"/>
  <path d="M67.8534 159.755C69.296 159.755 70.5396 160.261 71.5345 161.223C72.5293 162.185 73.0268 163.4 73.0268 164.868C73.0268 166.286 72.5293 167.501 71.5345 168.463C70.5396 169.425 69.3457 169.931 67.8534 169.931H64.1226V159.755H67.8534ZM66.3113 161.729V168.007H67.9031C68.7488 168.007 69.4452 167.703 70.0421 167.096C70.6391 166.488 70.9375 165.729 70.9375 164.868C70.9375 164.008 70.639 163.248 70.0919 162.641C69.4949 162.033 68.7985 161.729 67.9529 161.729H66.3113Z" fill="black"/>
  <path d="M82.4277 159.755H84.5667V169.931H82.4277V159.755Z" fill="black"/>
  <path d="M95.5606 161.072C96.6052 160.008 97.8985 159.502 99.4406 159.502C100.983 159.502 102.276 160.008 103.321 161.072C104.365 162.135 104.912 163.35 104.912 164.818C104.912 166.286 104.365 167.552 103.321 168.564C102.276 169.627 100.983 170.134 99.4406 170.134C97.8985 170.134 96.6052 169.627 95.5606 168.564C94.5159 167.501 93.9688 166.286 93.9688 164.818C93.9688 163.4 94.4662 162.135 95.5606 161.072ZM97.1026 167.248C97.7493 167.906 98.4955 168.21 99.3909 168.21C100.286 168.21 101.032 167.906 101.679 167.248C102.326 166.59 102.624 165.83 102.624 164.869C102.624 163.907 102.326 163.147 101.679 162.489C101.032 161.831 100.286 161.527 99.3909 161.527C98.4955 161.527 97.7493 161.831 97.1026 162.489C96.456 163.147 96.1575 163.907 96.1575 164.869C96.2073 165.78 96.5057 166.59 97.1026 167.248Z" fill="black"/>
</svg>
