<svg width="68" height="98" viewBox="0 0 68 98" fill="none" xmlns="http://www.w3.org/2000/svg">
  <path d="M20.5548 60.1029C16.5255 60.1029 13.2393 56.7761 13.2393 52.697C13.2393 48.618 16.5255 45.2911 20.5548 45.2911C24.5841 45.2911 27.8704 48.618 27.8704 52.697C27.8704 56.7761 24.5841 60.1029 20.5548 60.1029ZM20.5548 46.6219C17.2685 46.6219 14.5824 49.3412 14.5824 52.6681C14.5824 55.995 17.2685 58.7143 20.5548 58.7143C23.8411 58.7143 26.5273 55.995 26.5273 52.6681C26.5273 49.3412 23.8411 46.6219 20.5548 46.6219Z" fill="white"/>
  <path d="M47.1598 15.2047C43.1305 15.2047 39.8442 11.8779 39.8442 7.79883C39.8442 3.71981 43.1305 0.392944 47.1598 0.392944C51.1891 0.392944 54.4754 3.71981 54.4754 7.79883C54.504 11.8779 51.2177 15.2047 47.1598 15.2047ZM47.1598 1.72369C43.8735 1.72369 41.1873 4.44304 41.1873 7.76991C41.1873 11.0968 43.8735 13.8161 47.1598 13.8161C50.4461 13.8161 53.1323 11.0968 53.1323 7.76991C53.1609 4.44304 50.4747 1.72369 47.1598 1.72369Z" fill="white"/>
  <path d="M32.0714 60.1029H30.8998L31.4713 59.0904C32.5858 57.1521 33.1573 54.9535 33.1573 52.697C33.1573 48.8784 31.4999 45.3201 28.6136 42.8611L17.8689 33.893C13.3824 30.1901 10.9248 25.301 10.9248 20.1516C10.9248 9.2453 22.0125 0.392944 35.6149 0.392944H36.7865L36.215 1.40547C35.1005 3.34373 34.529 5.54235 34.529 7.79883C34.529 11.6464 36.215 15.2626 39.1584 17.6926L49.8174 26.6028C54.3039 30.3058 56.7615 35.1948 56.7615 40.3442C56.7615 51.2506 45.7024 60.1029 32.0714 60.1029ZM34.529 1.75262C22.1554 2.21549 12.2965 10.2867 12.2965 20.1227C12.2965 24.8671 14.5826 29.3801 18.7548 32.8226L29.4995 41.8196C32.7001 44.5101 34.529 48.4734 34.529 52.697C34.529 54.7799 34.0717 56.8629 33.1859 58.7433C45.5309 58.2804 55.4184 50.2091 55.4184 40.3732C55.4184 35.6288 53.1322 31.1158 48.9601 27.6732L38.3011 18.7341C35.0433 16.0437 33.1859 12.0514 33.1859 7.79883C33.1859 5.687 33.6431 3.63302 34.529 1.75262Z" fill="white"/>
  <path d="M6.78115 80.8162C6.52396 80.498 6.20963 80.2666 5.80955 80.093C5.40948 79.9194 4.98084 79.7748 4.49504 79.6301C4.00924 79.4855 3.52344 79.3409 3.03764 79.1673C2.55184 78.9937 2.12319 78.7912 1.72312 78.5598C1.32305 78.3283 1.00871 77.9812 0.751521 77.5472C0.494333 77.1133 0.380026 76.5636 0.380026 75.9561C0.380026 75.0015 0.751518 74.1914 1.49451 73.5261C2.23749 72.8607 3.20909 72.5135 4.40931 72.5135C4.86653 72.5135 5.29518 72.5714 5.69525 72.6871C6.09532 72.8028 6.43824 72.9475 6.724 73.0921C7.00977 73.2368 7.23838 73.4104 7.46699 73.555C7.6956 73.6997 7.83848 73.8443 7.92421 73.96L8.06709 74.1336L7.18123 75.0304C7.15265 75.0015 7.12407 74.9436 7.06692 74.8857C7.00976 74.8279 6.89546 74.7411 6.724 74.5965C6.55254 74.4518 6.35251 74.3361 6.18105 74.2204C5.98101 74.1047 5.72382 73.9889 5.40948 73.9022C5.09514 73.8154 4.75222 73.7575 4.40931 73.7575C3.58059 73.7575 2.92333 73.96 2.43753 74.394C1.95173 74.8279 1.69454 75.3197 1.69454 75.9272C1.69454 76.3611 1.80885 76.7372 2.06604 77.0554C2.32322 77.3737 2.63757 77.6051 3.03764 77.7787C3.43771 77.9522 3.89493 78.0969 4.35215 78.2415C4.83795 78.3862 5.32375 78.5308 5.80955 78.7044C6.29535 78.878 6.724 79.0805 7.12407 79.3119C7.52414 79.5434 7.83848 79.8905 8.09567 80.3244C8.35286 80.7584 8.46717 81.2791 8.46717 81.9156C8.46717 82.9859 8.09567 83.8538 7.35268 84.5192C6.60969 85.1846 5.58094 85.5317 4.26642 85.5317C3.72347 85.5317 3.2091 85.4739 2.7233 85.3292C2.2375 85.1846 1.83743 85.0399 1.52308 84.8663C1.20874 84.6928 0.951553 84.4903 0.694365 84.3167C0.465753 84.1142 0.294295 83.9695 0.208566 83.8249L0.0371094 83.6224L0.865825 82.6966C0.894402 82.7256 0.922976 82.7834 0.980129 82.8702C1.03728 82.957 1.18017 83.0727 1.3802 83.2463C1.58024 83.4199 1.80885 83.5935 2.03746 83.7092C2.26607 83.8538 2.58041 83.9695 2.98048 84.0853C3.38055 84.201 3.8092 84.2588 4.20927 84.2588C5.12372 84.2588 5.83813 84.0563 6.32393 83.6224C6.80973 83.1884 7.06692 82.6099 7.06692 81.9156C7.15265 81.4816 7.00976 81.1345 6.78115 80.8162Z" fill="white"/>
  <path d="M23.2982 83.1594C24.0412 82.4073 24.4127 81.4815 24.4127 80.4111V72.7159H25.7558V80.4111C25.7558 81.8287 25.2414 83.0148 24.2412 84.0562C23.241 85.0688 22.0408 85.5895 20.6406 85.5895C19.2689 85.5895 18.0687 85.0688 17.0399 84.0562C16.0398 83.0437 15.5254 81.8287 15.5254 80.4401V72.7449H16.8685V80.4401C16.8685 81.5394 17.24 82.4362 17.983 83.1883C18.726 83.9405 19.6118 84.3166 20.6406 84.3166C21.6979 84.2877 22.5838 83.9116 23.2982 83.1594Z" fill="white"/>
  <path d="M39.4154 80.8162C39.1583 80.498 38.8439 80.2666 38.4438 80.093C38.0438 79.9194 37.6151 79.7748 37.1293 79.6301C36.6435 79.4855 36.1577 79.3409 35.6719 79.1673C35.1861 78.9937 34.7575 78.7912 34.3574 78.5598C33.9573 78.3283 33.643 77.9812 33.3858 77.5472C33.1286 77.1133 33.0143 76.5636 33.0143 75.9561C33.0143 75.0015 33.3858 74.1914 34.1288 73.5261C34.8718 72.8607 35.8434 72.5135 37.0436 72.5135C37.5008 72.5135 37.9295 72.5714 38.3295 72.6871C38.7296 72.8028 39.0725 72.9475 39.3583 73.0921C39.6441 73.2368 39.8727 73.4104 40.1013 73.555C40.3299 73.6997 40.4728 73.8443 40.5585 73.96L40.7014 74.1336L39.8155 75.0304C39.7869 75.0015 39.7584 74.9436 39.7012 74.8857C39.6441 74.8279 39.5583 74.7411 39.3583 74.5965C39.1868 74.4518 38.9868 74.3361 38.8153 74.2204C38.6153 74.1047 38.3581 73.9889 38.0438 73.9022C37.7294 73.8154 37.3865 73.7575 37.0436 73.7575C36.2149 73.7575 35.5576 73.96 35.0718 74.394C34.586 74.8279 34.3288 75.3197 34.3288 75.9272C34.3288 76.3611 34.4431 76.7372 34.7003 77.0554C34.9575 77.3737 35.2718 77.6051 35.6719 77.7787C36.072 77.9522 36.5292 78.0969 36.9864 78.2415C37.4722 78.3862 37.958 78.5308 38.4438 78.7044C38.9296 78.878 39.3583 79.0805 39.7584 79.3119C40.1584 79.5434 40.4728 79.8905 40.73 80.3244C40.9872 80.7584 41.1015 81.2791 41.1015 81.9156C41.1015 82.9859 40.73 83.8538 39.987 84.5192C39.244 85.1846 38.2152 85.5317 36.9007 85.5317C36.3578 85.5317 35.8434 85.4739 35.3576 85.3292C34.8718 85.1846 34.4717 85.0399 34.1574 84.8663C33.843 84.6928 33.5858 84.4903 33.3287 84.3167C33.1 84.1142 32.9286 83.9695 32.8428 83.8249L32.6714 83.6224L33.5001 82.6966C33.5287 82.7256 33.5573 82.7834 33.6144 82.8702C33.6716 82.957 33.8145 83.0727 34.0145 83.2463C34.2145 83.4199 34.4431 83.5935 34.6717 83.7092C34.9004 83.8538 35.2147 83.9695 35.6148 84.0853C36.0148 84.201 36.4435 84.2588 36.8436 84.2588C37.758 84.2588 38.4724 84.0563 38.9582 83.6224C39.444 83.1884 39.7012 82.6099 39.7012 81.9156C39.8155 81.4816 39.6726 81.1345 39.4154 80.8162Z" fill="white"/>
  <path d="M48.3887 72.6873H49.7318V78.2995H56.7044V72.6873H58.0475V85.3583H56.7044V79.5724H49.7318V85.3583H48.3887V72.6873Z" fill="white"/>
  <path d="M66.3062 72.6873H67.6492V85.3583H66.3062V72.6873Z" fill="white"/>
  <path d="M10.2673 94.9338C10.0673 94.818 9.83864 94.7023 9.55288 94.6445C9.26711 94.5577 8.98135 94.4709 8.72416 94.3552C8.4384 94.2395 8.20978 94.0659 8.00975 93.8055C7.80971 93.5452 7.72398 93.2269 7.72398 92.8509C7.72398 92.388 7.92402 91.983 8.29551 91.6358C8.66701 91.2887 9.15281 91.144 9.75292 91.144C9.98153 91.144 10.2101 91.173 10.4388 91.2308C10.6674 91.2887 10.8388 91.3465 10.9817 91.4333C11.1246 91.5201 11.2389 91.578 11.3532 91.6648C11.4675 91.7516 11.5247 91.8094 11.5818 91.8673L11.6675 91.9541L10.8674 92.7351C10.8388 92.7062 10.7817 92.6484 10.7245 92.5905C10.6674 92.5326 10.5531 92.4748 10.353 92.3591C10.1816 92.2723 9.98153 92.2144 9.78149 92.2144C9.55288 92.2144 9.35284 92.2723 9.20996 92.388C9.06708 92.5037 8.98135 92.6484 8.98135 92.8219C8.98135 93.0244 9.06708 93.1691 9.26711 93.2848C9.46715 93.4005 9.69576 93.5162 9.98153 93.5741C10.2673 93.6609 10.5245 93.7477 10.8102 93.8634C11.096 93.9791 11.3246 94.1527 11.5247 94.413C11.7247 94.6734 11.8104 94.9916 11.8104 95.3677C11.8104 95.9174 11.6104 96.3513 11.2389 96.6984C10.8388 97.0456 10.3244 97.2192 9.63861 97.2192C9.38142 97.2192 9.12423 97.1902 8.86704 97.1324C8.60986 97.0745 8.40982 96.9877 8.23836 96.9009C8.0669 96.8142 7.92402 96.7274 7.80971 96.6117C7.69541 96.5249 7.60968 96.4381 7.55252 96.3802L7.4668 96.2645L8.20978 95.5124C8.23836 95.5702 8.29551 95.5991 8.38124 95.6859C8.4384 95.7438 8.60985 95.8595 8.83847 95.9752C9.06708 96.0909 9.32427 96.1488 9.58146 96.1488C9.86722 96.1488 10.1244 96.0909 10.2673 95.9463C10.4388 95.8016 10.5245 95.6281 10.5245 95.3966C10.5531 95.1941 10.4388 95.0495 10.2673 94.9338Z" fill="white"/>
  <path d="M21.0121 91.2886V92.4168H19.3833V97.1323H18.1545V92.4168H16.4971V91.2886H21.0121Z" fill="white"/>
  <path d="M29.5278 95.7148C29.785 95.4544 29.8993 95.1362 29.8993 94.7312V91.2886H31.1281V94.7312C31.1281 95.4544 30.8995 96.033 30.4137 96.5248C29.9279 97.0166 29.3278 97.2481 28.6134 97.2481C27.899 97.2481 27.2988 97.0166 26.813 96.5248C26.3272 96.033 26.0986 95.4544 26.0986 94.7312V91.2886H27.3274V94.7312C27.3274 95.1073 27.4417 95.4544 27.6989 95.7148C27.9561 95.9752 28.2419 96.1198 28.6134 96.1198C28.9849 96.1198 29.2706 95.9752 29.5278 95.7148Z" fill="white"/>
  <path d="M38.9582 91.2886C39.7869 91.2886 40.5013 91.5779 41.0729 92.1275C41.6444 92.6772 41.9302 93.3715 41.9302 94.2104C41.9302 95.0205 41.6444 95.7148 41.0729 96.2644C40.5013 96.8141 39.8155 97.1034 38.9582 97.1034H36.8149V91.2886H38.9582ZM38.0723 92.4168V96.0041H38.9868C39.4726 96.0041 39.8726 95.8305 40.2156 95.4833C40.5585 95.1362 40.7299 94.7022 40.7299 94.2104C40.7299 93.7186 40.5585 93.2847 40.2441 92.9376C39.9012 92.5904 39.5011 92.4168 39.0153 92.4168H38.0723Z" fill="white"/>
  <path d="M47.3306 91.2886H48.5593V97.1034H47.3306V91.2886Z" fill="white"/>
  <path d="M54.8749 92.0408C55.475 91.4333 56.218 91.144 57.1039 91.144C57.9897 91.144 58.7327 91.4333 59.3328 92.0408C59.9329 92.6484 60.2473 93.3427 60.2473 94.1816C60.2473 95.0206 59.9329 95.7438 59.3328 96.3224C58.7327 96.9299 57.9897 97.2192 57.1039 97.2192C56.218 97.2192 55.475 96.9299 54.8749 96.3224C54.2748 95.7149 53.9604 95.0206 53.9604 94.1816C53.9604 93.3716 54.2462 92.6484 54.8749 92.0408ZM55.7608 95.5702C56.1323 95.9463 56.5609 96.1199 57.0753 96.1199C57.5897 96.1199 58.0183 95.9463 58.3898 95.5702C58.7613 95.1941 58.9328 94.7602 58.9328 94.2105C58.9328 93.6609 58.7613 93.2269 58.3898 92.8509C58.0183 92.4748 57.5897 92.3012 57.0753 92.3012C56.5609 92.3012 56.1323 92.4748 55.7608 92.8509C55.3893 93.2269 55.2178 93.6609 55.2178 94.2105C55.2464 94.7313 55.4179 95.1941 55.7608 95.5702Z" fill="white"/>
</svg>
