<svg width="119" height="48" viewBox="0 0 119 48" fill="none" xmlns="http://www.w3.org/2000/svg">
  <path d="M5.36565 35.8561H0.888672V33.0118H12.9516V35.8561H8.47467V46.9633H5.36565V35.8561Z" fill="white"/>
  <path d="M30.9841 33.0118H33.8444L40.4853 41.5936V33.0118H43.5445V46.9633H40.9081L34.0434 38.1119V46.9633H30.9841V33.0118Z" fill="white"/>
  <path d="M51.2546 41.1522L45.8325 33.0118H49.4638L52.8465 38.308L56.2788 33.0118H59.8106L54.3885 41.1032V46.9633H51.2546V41.1522Z" fill="white"/>
  <path d="M62.0991 33.0118H65.4569L69.1628 38.0628L72.8936 33.0118H76.2265V46.9633H73.1423V37.8667L69.1628 42.9667L65.1335 37.9157V46.9633H62.0991V33.0118Z" fill="white"/>
  <path d="M95.4277 33.0118H98.5368V44.1681H105.576V46.9633H95.4277V33.0118Z" fill="white"/>
  <path d="M118.832 33.0118L113.385 41.1032V46.9633H110.276V41.1522L104.854 33.0118H108.486L111.868 38.308L115.301 33.0118H118.832Z" fill="white"/>
  <path d="M85.827 32.7911C81.7978 32.7911 78.5146 36.0277 78.5146 39.9998C78.5146 43.9719 81.7978 47.2085 85.827 47.2085C89.8563 47.2085 93.1395 43.9719 93.1395 39.9998C93.1395 36.0032 89.8563 32.7911 85.827 32.7911ZM85.827 44.07C83.5388 44.07 81.6983 42.2556 81.6983 39.9998C81.6983 37.744 83.5388 35.9296 85.827 35.9296C88.1153 35.9296 89.9558 37.744 89.9558 39.9998C89.9558 42.2311 88.1153 44.07 85.827 44.07Z" fill="white"/>
  <path d="M21.3834 32.7911C17.3293 32.7911 14.071 36.0277 14.071 39.9998C14.071 43.9719 17.3542 47.2085 21.3834 47.2085C25.4127 47.2085 28.6958 43.9719 28.6958 39.9998C28.6958 36.0032 25.4376 32.7911 21.3834 32.7911ZM21.3834 44.07C19.0952 44.07 17.2547 42.2556 17.2547 39.9998C17.2547 37.744 19.0952 35.9296 21.3834 35.9296C23.6717 35.9296 25.5122 37.744 25.5122 39.9998C25.5122 42.2311 23.6717 44.07 21.3834 44.07Z" fill="white"/>
  <path d="M59.9602 0.670776C54.3888 0.670776 49.887 5.10877 49.887 10.6011C49.887 16.0689 54.3888 20.5314 59.9602 20.5314C65.5315 20.5314 70.0334 16.0934 70.0334 10.6011C70.0334 5.13329 65.5315 0.670776 59.9602 0.670776ZM59.9602 2.24001C62.6961 2.24001 65.1087 3.51501 66.6756 5.50108H53.2696C54.8116 3.53953 57.2242 2.24001 59.9602 2.24001ZM61.1043 9.42417H51.5783C51.7026 8.59051 51.9265 7.80589 52.2747 7.07032H61.0794V9.42417H61.1043ZM51.5036 10.9934H57.1247V18.4718C53.966 17.3684 51.6778 14.4506 51.5036 10.9934ZM58.7166 18.8641V10.9934H61.1043V18.8886C60.7312 18.9377 60.3581 18.9622 59.985 18.9622C59.5373 18.9622 59.1145 18.9131 58.7166 18.8641ZM62.6961 18.5208V7.09483H67.6457C68.168 8.17368 68.4416 9.35061 68.4416 10.6256C68.4416 14.279 66.029 17.3929 62.6961 18.5208Z" fill="white"/>
</svg>
