<svg width="15" height="18" viewBox="0 0 15 18" fill="none" xmlns="http://www.w3.org/2000/svg">
  <path d="M7.30692 0C3.27146 0 0 3.27146 0 7.30692C0 10.9677 4.55259 15.7842 6.47109 17.6515C6.941 18.108 7.68395 18.1175 8.16298 17.6702C10.093 15.8711 14.6138 11.2364 14.6138 7.30652C14.6134 3.27146 11.3424 0 7.30692 0ZM7.30692 9.68104C5.63844 9.68104 4.28668 8.32928 4.28668 6.6612C4.28668 4.99312 5.63844 3.64096 7.30692 3.64096C8.975 3.64096 10.3264 4.99272 10.3264 6.6612C10.3264 8.32967 8.975 9.68104 7.30692 9.68104Z" fill="#EC0343"/>
</svg>
