<svg width="168" height="66" viewBox="0 0 168 66" fill="none" xmlns="http://www.w3.org/2000/svg">
  <path d="M7.09763 49.6397H0.779053V45.6496H17.8041V49.6397H11.4855V65.2218H7.09763V49.6397Z" fill="black"/>
  <path d="M43.2544 45.6496H47.2913L56.6638 57.6888V45.6496H60.9815V65.2218H57.2606L47.5721 52.8043V65.2218H43.2544V45.6496Z" fill="black"/>
  <path d="M71.8629 57.0696L64.2104 45.6496H69.3355L74.1095 53.0795L78.9538 45.6496H83.9384L76.2859 57.0008V65.2218H71.8629V57.0696Z" fill="black"/>
  <path d="M87.1682 45.6496H91.9071L97.1375 52.7355L102.403 45.6496H107.107V65.2218H102.754V52.4604L97.1375 59.615L91.4508 52.5291V65.2218H87.1682V45.6496Z" fill="black"/>
  <path d="M134.206 45.6496H138.594V61.3005H148.528V65.2218H134.206V45.6496Z" fill="black"/>
  <path d="M167.239 45.6496L159.551 57.0008V65.2218H155.163V57.0696L147.511 45.6496H152.636L157.41 53.0795L162.254 45.6496H167.239Z" fill="black"/>
  <path d="M120.657 45.34C114.97 45.34 110.336 49.8804 110.336 55.4529C110.336 61.0253 114.97 65.5658 120.657 65.5658C126.343 65.5658 130.977 61.0253 130.977 55.4529C130.977 49.846 126.343 45.34 120.657 45.34ZM120.657 61.1629C117.427 61.1629 114.83 58.6174 114.83 55.4529C114.83 52.2883 117.427 49.7429 120.657 49.7429C123.886 49.7429 126.484 52.2883 126.484 55.4529C126.484 58.583 123.886 61.1629 120.657 61.1629Z" fill="black"/>
  <path d="M29.7041 45.34C23.9823 45.34 19.3838 49.8804 19.3838 55.4529C19.3838 61.0253 24.0174 65.5658 29.7041 65.5658C35.3909 65.5658 40.0245 61.0253 40.0245 55.4529C40.0245 49.846 35.426 45.34 29.7041 45.34ZM29.7041 61.1629C26.4746 61.1629 23.877 58.6174 23.877 55.4529C23.877 52.2883 26.4746 49.7429 29.7041 49.7429C32.9336 49.7429 35.5313 52.2883 35.5313 55.4529C35.5313 58.583 32.9336 61.1629 29.7041 61.1629Z" fill="black"/>
  <path d="M84.1494 0.279297C76.2863 0.279297 69.9326 6.50526 69.9326 14.2103C69.9326 21.881 76.2863 28.1413 84.1494 28.1413C92.0125 28.1413 98.3662 21.9154 98.3662 14.2103C98.3662 6.53966 92.0125 0.279297 84.1494 0.279297ZM84.1494 2.48074C88.0108 2.48074 91.4158 4.26941 93.6273 7.05562H74.7067C76.883 4.30381 80.2881 2.48074 84.1494 2.48074ZM85.7642 12.5592H72.3196C72.4952 11.3897 72.8111 10.289 73.3025 9.25707H85.7291V12.5592H85.7642ZM72.2143 14.7607H80.1476V25.2519C75.6895 23.7041 72.46 19.6107 72.2143 14.7607ZM82.3943 25.8023V14.7607H85.7642V25.8367C85.2376 25.9055 84.7111 25.9399 84.1845 25.9399C83.5527 25.9399 82.9559 25.8711 82.3943 25.8023ZM88.0108 25.3207V9.29146H94.9963C95.7335 10.805 96.1196 12.456 96.1196 14.2447C96.1196 19.37 92.7146 23.7384 88.0108 25.3207Z" fill="black"/>
</svg>
