<svg width="155" height="154" viewBox="0 0 155 154" fill="none" xmlns="http://www.w3.org/2000/svg">
  <path d="M154.15 0.654083H0.974121V106.685H154.15V0.654083ZM153.472 105.962H1.65149V1.33145H153.472V105.962Z" fill="black"/>
  <path d="M145.341 56.1985C143.76 56.1985 141.638 61.1659 138.883 58.2306C137.393 56.1985 137.393 55.6566 136.129 54.0761C133.464 43.464 123.936 53.4439 120.052 57.3274C120.052 52.9923 121.994 48.5668 121.994 44.2317C121.814 38.6772 117.478 39.7159 112.466 45.3606C108.402 48.7023 108.853 49.8764 104.789 52.6762C100.725 56.8307 103.66 50.5538 104.067 46.3089C104.518 43.2382 103.073 40.5739 98.4218 43.5543C96.9316 44.1865 94.8092 46.9863 93.1383 48.6571C90.8804 51.3214 87.6742 53.6697 85.8227 56.6501C84.9196 57.0113 82.3004 61.5271 78.2362 56.6952C77.0169 52.902 71.011 45.3154 67.7144 52.4504C63.8309 58.7273 61.6181 66.3138 59.586 73.0424C58.0958 75.8873 58.0055 80.8998 56.6959 81.2611C58.0055 72.2295 61.4826 63.6947 63.2438 54.8438C64.5534 51.773 65.005 45.9928 67.6693 43.5543C67.7596 42.8318 68.0305 40.7997 69.4304 37.8192C71.2819 33.8453 69.6111 30.5037 68.6176 30.323C67.7144 30.323 67.2177 31.6326 66.0436 32.8067C62.6567 40.7545 53.0833 54.4825 46.5805 61.3916C47.0321 58.05 47.4385 52.8568 47.4385 51.4569C49.9674 50.1022 49.7416 47.9798 47.7546 46.896C47.7546 42.9221 48.5223 36.7806 47.1676 35.6968C47.7546 31.7229 47.1676 26.9814 46.4902 24.9944C45.8129 20.9302 41.9293 22.2849 39.8972 19.1239C39.8972 17.4982 43.284 12.9373 40.8455 11.9889C38.0457 10.8148 35.2459 14.879 33.4848 15.1952C33.2138 16.4596 32.13 18.1756 30.9559 18.1756C29.7818 18.582 28.6529 18.1756 27.7497 20.2077C26.6659 22.7365 29.2851 22.2398 28.1561 23.6848C25.7176 25.6266 21.5179 39.4449 20.1632 44.5478C18.7181 46.5799 17.8601 50.057 17.4537 51.0053C13.9766 51.4118 12.8928 53.3084 11.9445 56.6952C12.8928 58.5467 10.7703 61.4368 14.4733 61.1207C14.4733 63.0625 12.3509 66.1332 12.3509 69.1588C12.1702 69.3394 11.3574 71.3715 11.3574 72.9069C10.093 75.9776 8.4673 82.9319 13.9766 79.6806C14.6539 78.2355 15.9183 76.3841 16.1893 72.4553C16.957 72.0489 17.4537 69.1588 18.402 65.8623C20.6148 62.6561 20.7954 60.353 21.3824 58.5467C25.8982 59.0434 29.9624 55.3405 34.2073 54.2115C36.6458 54.4825 39.9875 52.9471 40.3939 53.2632C40.6649 54.618 40.6649 59.0434 40.6649 61.7529C41.3422 63.1076 40.9358 65.8171 40.6649 66.4945C41.0713 70.3781 40.2584 73.4488 40.3939 76.1583C40.6649 78.958 44.9549 75.7518 44.8194 73.4488C45.2258 72.3198 45.5871 70.062 45.8129 67.9847C47.845 67.1267 52.8575 59.5853 54.8896 59.0886C54.8896 70.3781 50.8254 81.0805 51.1866 92.4151C50.2835 97.2921 55.2509 98.6017 56.4701 93.815C57.4636 92.4151 58.0506 90.8797 58.0506 89.0282C59.3602 86.5446 60.0827 84.1512 60.8053 80.8998C61.9342 77.7839 63.4696 74.8938 64.2373 71.1006C65.3662 69.2491 66.9016 64.8236 67.7596 62.6109C69.7917 57.1468 71.2819 60.3078 73.4946 62.4303C82.5714 72.0489 91.6481 53.8051 94.0866 54.9341C95.7575 55.5663 90.8353 66.7654 90.8353 68.7975C90.8353 70.649 93.4093 71.1006 94.3576 70.1071C95.0801 70.1071 96.3897 67.1719 97.9702 66.5848C100.093 63.0625 105.376 58.7273 106.731 56.7855C112.737 51.3214 114.408 51.0505 112.376 58.2757C110.976 64.4624 109.124 67.8944 109.124 69.9265C109.847 71.507 110.976 72.8166 113.911 70.1071C115.401 68.7975 120.639 62.7012 121.949 61.4368C124.071 60.1272 124.929 58.2757 126.465 57.9145C129.987 57.9145 131.929 63.198 134.774 64.7333C140.509 67.9847 143.896 63.7398 145.476 61.7981C145.341 59.5402 145.16 58.8628 145.341 56.1985ZM40.7552 45.18C40.7552 47.2121 40.7552 49.0184 40.2584 48.7474C39.2198 48.7474 37.0522 48.7474 35.7427 49.6054C32.2655 49.199 25.2209 50.8699 24.6338 50.0119C24.6338 46.4444 28.0207 42.7866 28.698 39.0837C30.3237 36.1936 31.9946 33.8905 32.2655 31.6326C33.1235 30.4585 34.0266 29.1038 34.8846 29.1038C38.3618 29.3747 39.7165 34.3421 40.4842 34.5227C39.7165 36.7355 40.2133 40.7997 40.8906 41.0706C40.2584 41.2512 40.2584 43.6446 40.7552 45.18Z" fill="black"/>
  <path d="M0.925293 102.485V153.739H154.101V102.485H0.925293ZM124.522 113.368H126.464V123.98H124.522V113.368ZM111.336 113.368H113.278V117.252H119.826C120.548 117.252 121.135 117.297 121.497 117.432C121.903 117.568 122.219 117.748 122.535 118.064C122.806 118.335 122.987 118.742 123.122 119.284C123.213 119.735 123.258 120.277 123.258 120.864C123.258 122.083 122.987 122.896 122.49 123.348C121.993 123.799 121.135 124.025 119.961 124.025H111.381V113.368H111.336ZM95.4407 113.368H97.3825V117.658H105.872V113.368H107.814V123.98H105.872V119.374H97.3825V123.98H95.4407V113.368ZM50.8699 113.368H52.902L59.2241 123.98H56.9662L55.6566 121.767H48.1604L46.8508 123.98H44.5478L50.8699 113.368ZM34.026 141.456L27.162 136.85H25.8976V141.456H23.9558V130.844H25.8976V135.089H27.162L33.6647 130.844H37.0967L29.2844 135.992L37.5935 141.501H34.026V141.456ZM35.9678 124.116H34.884L32.6713 124.025C30.6843 123.845 29.6908 122.716 29.6908 120.819L29.6457 118.922C29.6457 118.155 29.6457 117.613 29.6457 117.206C29.6457 116.8 29.736 116.303 29.8715 115.626C30.007 114.858 30.3682 114.316 30.9553 113.91C31.4972 113.549 32.2648 113.323 33.2132 113.323C33.5744 113.278 33.9357 113.233 34.3421 113.233C34.7034 113.233 35.1098 113.233 35.6065 113.233H37.3677C37.9547 113.233 38.4063 113.233 38.7676 113.278C39.1288 113.323 39.6256 113.368 40.2126 113.504C40.9352 113.639 41.4319 114.045 41.7028 114.678C41.9286 115.265 42.0641 115.987 42.0641 116.936V117.297H40.1223V116.845C40.1223 116.394 40.0772 116.078 40.032 115.807C39.9868 115.626 39.9417 115.49 39.8062 115.4C39.7159 115.355 39.4901 115.22 38.8579 115.174C38.316 115.084 37.5935 115.084 36.6452 115.084C36.2839 115.084 35.742 115.084 35.0646 115.129C34.3421 115.174 33.8002 115.174 33.3938 115.174C32.4003 115.265 32.0842 115.445 32.0391 115.536C31.9036 115.671 31.7681 115.897 31.7229 116.529C31.6778 117.071 31.6326 117.613 31.6326 118.064C31.6326 118.516 31.6326 118.968 31.6326 119.419C31.6326 120.909 31.8133 121.542 31.9487 121.858C32.1294 122.174 32.7164 122.354 33.6196 122.354H38.1354C39.174 122.354 39.6256 122.219 39.8514 122.083C40.0771 121.948 40.2126 121.496 40.2126 120.864V120.051H42.1996V120.413C42.1996 121.767 41.9738 122.671 41.5222 123.212C41.0255 123.754 40.0772 124.025 38.5418 124.025L35.9678 124.116ZM51.5021 135.586C51.4118 136.082 51.2311 136.489 50.915 136.805C50.6441 137.076 50.2828 137.302 49.8764 137.437C49.5151 137.573 48.9281 137.618 48.2056 137.618H41.6577V141.501H39.7159V130.889H48.2959C49.47 130.889 50.328 131.115 50.8247 131.567C51.3666 132.063 51.5924 132.876 51.5924 134.05C51.5924 134.592 51.5472 135.134 51.5021 135.586ZM65.4107 141.456L64.1011 139.243H56.6049L55.2954 141.456H53.0375L59.3144 130.844H61.3465L67.6686 141.456H65.4107ZM63.1528 124.025H60.8949L67.1719 113.413H69.204L75.5261 124.025H73.2682L68.1653 115.4L63.1528 124.025ZM82.7062 137.889C82.7062 139.243 82.4804 140.192 82.0288 140.689C81.5321 141.23 80.5838 141.501 79.0484 141.501L76.5195 141.592H75.4358L73.223 141.501C71.2361 141.321 70.2426 140.192 70.2426 138.295L70.1974 136.399C70.1974 135.631 70.1974 135.089 70.1974 134.683C70.1974 134.276 70.2878 133.779 70.4232 133.102C70.5587 132.334 70.92 131.792 71.507 131.386C72.0489 131.025 72.8166 130.799 73.7649 130.799C74.1262 130.754 74.4874 130.709 74.8487 130.709C75.21 130.709 75.6164 130.709 76.1131 130.709H77.8743C78.4613 130.709 78.9129 130.709 79.2742 130.754C79.6354 130.799 80.1322 130.844 80.7192 130.98C81.3966 131.115 81.8933 131.521 82.2094 132.154C82.4352 132.696 82.5707 133.463 82.5707 134.412V134.773H80.6289V134.321C80.6289 133.87 80.5837 133.554 80.5386 133.283C80.4934 133.012 80.358 132.921 80.3128 132.876C80.2225 132.831 79.9967 132.696 79.3645 132.605C78.8677 132.515 78.1001 132.515 77.1517 132.515C76.7905 132.515 76.2486 132.515 75.5712 132.56C74.8487 132.605 74.3068 132.605 73.9455 132.605C72.9521 132.696 72.636 132.876 72.5908 132.967C72.4553 133.102 72.3199 133.328 72.2747 133.96C72.2295 134.502 72.1844 135.044 72.1844 135.495C72.1844 135.947 72.1844 136.399 72.1844 136.85C72.1844 138.34 72.365 138.973 72.5005 139.289C72.6811 139.605 73.2682 139.785 74.1713 139.785H78.6871C79.7257 139.785 80.1773 139.65 80.4031 139.514C80.6289 139.379 80.7644 138.927 80.7644 138.295V137.527H82.7513V137.889H82.7062ZM83.0223 124.116C82.3901 124.116 81.803 124.07 81.2611 124.025C80.6741 123.98 80.1773 123.845 79.7709 123.664C79.3193 123.483 78.9581 123.167 78.642 122.671C78.371 122.219 78.1904 121.677 78.1452 121C78.0549 120.368 78.0549 119.6 78.0549 118.742C78.0549 117.929 78.0549 117.342 78.1001 116.981C78.1001 116.619 78.1904 116.078 78.371 115.4C78.5517 114.632 78.9581 114.091 79.5903 113.729C80.1773 113.413 80.9902 113.233 81.9385 113.233H86.3188C88.4864 113.233 89.8863 113.549 90.5185 114.136C91.1958 114.768 91.5119 116.123 91.5119 118.245V118.922C91.5119 119.645 91.4668 120.413 91.3765 121.226C91.2862 122.083 90.97 122.806 90.4282 123.303C89.8863 123.8 89.0734 124.025 88.0348 124.025C87.7638 124.07 87.4026 124.07 86.9058 124.07C86.4543 124.07 86.0027 124.07 85.5963 124.07H83.0223V124.116ZM99.5049 136.399C99.5049 137.121 99.4597 137.889 99.3694 138.702C99.2791 139.56 98.963 140.282 98.4211 140.779C97.8792 141.276 97.0664 141.501 96.0277 141.501C95.7568 141.547 95.3504 141.547 94.8988 141.547C94.4472 141.547 93.9956 141.547 93.5892 141.547H91.1055C90.5185 141.547 89.8863 141.501 89.3444 141.456C88.7573 141.411 88.2606 141.276 87.809 141.095C87.3574 140.914 86.9962 140.598 86.7252 140.101C86.4543 139.65 86.2736 139.108 86.2285 138.431C86.1382 137.798 86.1382 137.031 86.1382 136.173C86.1382 135.36 86.1382 134.773 86.1833 134.412C86.1833 134.05 86.2736 133.508 86.4543 132.831C86.6349 132.063 87.0413 131.521 87.6735 131.16C88.2606 130.844 89.0734 130.663 90.0217 130.663H94.4021C96.5696 130.663 97.9695 130.98 98.6017 131.567C99.2791 132.199 99.5952 133.554 99.5952 135.676V136.399H99.5049ZM114.407 132.56H109.394V141.411H107.453V132.56H102.485V130.799H114.407V132.56ZM128.767 140.734C128.27 141.185 127.412 141.456 126.238 141.456H117.658V130.844H119.6V134.728H126.148C126.871 134.728 127.412 134.773 127.819 134.908C128.225 135.044 128.541 135.27 128.812 135.541C129.083 135.811 129.309 136.218 129.399 136.76C129.49 137.211 129.535 137.753 129.535 138.34C129.58 139.469 129.309 140.282 128.767 140.734ZM132.831 141.456H130.89V130.799H132.831V141.456Z" fill="black"/>
  <path d="M89.1639 121.722C89.3445 121.361 89.48 120.819 89.48 120.097V118.065C89.48 117.478 89.4348 116.936 89.3897 116.484C89.3445 116.078 89.2542 115.807 89.1187 115.581C88.9832 115.4 88.8478 115.31 88.6671 115.265C88.3962 115.174 88.1704 115.129 87.8995 115.129C87.6285 115.084 87.3576 115.084 87.0415 115.084L84.6932 115.039L82.3902 115.084C81.0354 115.084 80.5387 115.31 80.4032 115.445C80.2678 115.581 79.9968 115.942 79.9968 117.252L79.9517 119.464C79.9517 120.91 80.1323 121.542 80.3129 121.813C80.4032 121.993 80.8097 122.309 82.1192 122.309L85.9125 122.355C86.5899 122.355 87.3124 122.309 87.9898 122.264C88.622 122.174 88.9833 121.993 89.1639 121.722Z" fill="black"/>
  <path d="M97.2019 133.012C97.0665 132.831 96.931 132.741 96.7504 132.696C96.4794 132.605 96.2536 132.605 95.9827 132.56C95.7117 132.515 95.4408 132.515 95.1247 132.515L92.8216 132.47L90.5186 132.515C89.1639 132.515 88.6671 132.741 88.5317 132.876C88.3962 133.012 88.1252 133.373 88.1252 134.637L88.0801 136.85C88.0801 138.295 88.2607 138.927 88.4413 139.198C88.5317 139.379 88.9381 139.695 90.2476 139.695L94.0409 139.74C94.7183 139.74 95.4408 139.695 96.1182 139.65C96.7052 139.605 97.0665 139.424 97.2471 139.108C97.4277 138.792 97.5632 138.205 97.5632 137.482V135.45C97.5632 134.863 97.5181 134.321 97.4729 133.87C97.4277 133.508 97.3374 133.237 97.2019 133.012Z" fill="black"/>
  <path d="M121.226 120.774C121.226 119.69 120.955 119.374 120.864 119.284C120.729 119.193 120.277 118.968 119.103 118.968H113.278V122.219H119.781C120.368 122.219 120.729 122.129 120.91 121.903C121.045 121.813 121.226 121.496 121.226 120.774Z" fill="black"/>
  <path d="M57.5981 137.482H63.0623L60.3076 132.831L57.5981 137.482Z" fill="black"/>
  <path d="M48.1604 132.56H41.6577V135.812H47.4831C48.6572 135.812 49.1088 135.631 49.2442 135.496C49.3345 135.405 49.6055 135.134 49.6055 134.005C49.6055 133.283 49.47 132.967 49.3345 132.786C49.1539 132.696 48.7475 132.56 48.1604 132.56Z" fill="black"/>
  <path d="M125.471 136.444H119.646V139.695H126.148C126.871 139.695 127.187 139.515 127.277 139.379C127.413 139.244 127.548 138.928 127.548 138.205C127.548 137.121 127.322 136.805 127.187 136.715C127.051 136.624 126.645 136.444 125.471 136.444Z" fill="black"/>
  <path d="M51.8633 115.355L49.1538 120.051H54.6179L51.8633 115.355Z" fill="black"/>
</svg>
