<svg width="100" height="91" viewBox="0 0 100 91" fill="none" xmlns="http://www.w3.org/2000/svg">
  <path d="M46.8955 26.7528L61.1788 21.3938C61.5288 21.2626 61.9444 21.2189 62.2943 21.3501L76.3589 26.8403L76.8838 26.5341L65.1816 16.9317C64.8098 16.6255 64.5254 16.1442 64.4598 15.6849L62.185 0.70166L61.66 1.00789L59.2102 15.8599C59.1446 16.2099 58.9258 16.5598 58.6415 16.8004L46.6768 26.381L46.8955 26.7528Z" fill="white"/>
  <path d="M46.8298 26.7529L32.634 21.1971C32.284 21.0658 31.8684 21.0002 31.5184 21.1315L17.3882 26.4248L16.8633 26.1186L28.6968 16.6693C29.0686 16.3631 29.353 15.9037 29.4405 15.4225L31.934 0.483032L32.459 0.789259L34.7119 15.6631C34.7775 16.0131 34.9744 16.3631 35.2588 16.6037L47.0922 26.3373L46.8298 26.7529Z" fill="white"/>
  <path d="M93.2671 67.9403H95.9357C95.9357 67.8528 95.9357 67.7653 95.9357 67.6997C95.9357 67.4153 95.8919 67.1747 95.7826 66.9779C95.6732 66.781 95.542 66.6279 95.3451 66.5404C95.1701 66.4529 94.9514 66.4092 94.7108 66.4092C94.5577 66.4092 94.3827 66.431 94.2514 66.4967C94.0983 66.5404 93.9671 66.6279 93.8359 66.7154C93.7046 66.8248 93.6171 66.9341 93.5296 67.0654C93.4421 67.1966 93.3984 67.3278 93.3546 67.4372C93.3328 67.5685 93.3109 67.7434 93.2671 67.9403ZM98.2324 70.5651C98.1668 70.8932 98.0355 71.6807 97.8387 72.9056C97.2043 73.0368 96.6794 73.1024 96.2638 73.1462C95.8263 73.1899 95.4107 73.2118 94.9733 73.2118C94.3389 73.2118 93.7484 73.168 93.2015 73.0805C92.6547 72.9931 92.1954 72.8399 91.8016 72.5993C91.4079 72.3806 91.0798 72.0962 90.8173 71.7463C90.5549 71.4182 90.358 71.0026 90.2268 70.5432C90.0955 70.0839 90.008 69.6027 90.008 69.1215C90.008 68.4215 90.1393 67.7434 90.4236 67.0872C90.708 66.431 91.0579 65.9061 91.4954 65.5342C91.9329 65.1624 92.436 64.8999 93.0047 64.7468C93.5734 64.5937 94.1421 64.5062 94.7545 64.5062C95.367 64.5062 95.9576 64.5718 96.5044 64.7249C97.0512 64.8562 97.5325 65.1186 97.9262 65.4686C98.3199 65.8186 98.5824 66.2342 98.7574 66.6716C98.9105 67.1091 98.998 67.6122 98.998 68.1153C98.998 68.4215 98.9542 68.7715 98.8886 69.1433H93.2234C93.2234 69.2308 93.2234 69.2965 93.2234 69.3839C93.2234 69.9745 93.4203 70.3901 93.8577 70.6745C94.2733 70.9588 94.7764 71.0901 95.367 71.0901C95.717 71.0901 96.1326 71.0463 96.5919 70.9588C97.0075 70.9151 97.5762 70.762 98.2324 70.5651ZM85.0865 73.0149L85.2396 71.2651L85.5459 65.228L85.6334 61.9689C86.377 61.9907 86.9458 61.9907 87.3176 61.9907C87.8207 61.9907 88.3456 61.9907 88.9362 61.9689L88.7612 64.4624L88.455 70.5651L88.3894 73.0149C87.8207 73.0149 87.2957 73.0149 86.8364 73.0149H85.0865ZM77.6933 67.0216C77.6496 67.2622 77.6277 67.4591 77.6058 67.6122C77.584 67.7653 77.584 67.9622 77.5621 68.2247C77.5402 68.4871 77.5402 68.684 77.5402 68.859C77.5402 69.2965 77.6058 69.6683 77.7371 69.9745C77.8683 70.2808 78.0652 70.4995 78.3058 70.6745C78.5464 70.8276 78.8089 70.9151 79.0932 70.9151C79.3994 70.9151 79.6619 70.8276 79.9025 70.6526C80.1431 70.4776 80.34 70.237 80.4931 69.887C80.6462 69.5371 80.7118 69.1652 80.7118 68.7277C80.7118 68.159 80.5587 67.6778 80.2525 67.3278C79.9463 66.9779 79.5088 66.8029 78.9182 66.8029C78.5901 66.8466 78.1745 66.9123 77.6933 67.0216ZM73.9749 76.799C74.0842 75.6835 74.1717 74.5898 74.2373 73.4961C74.3686 71.615 74.4561 70.0401 74.4998 68.7496C74.5436 67.481 74.5654 66.2123 74.5654 64.9655C75.6591 64.7905 76.5122 64.6812 77.1465 64.6374C77.7589 64.5718 78.3933 64.5499 79.0057 64.5499C79.7713 64.5499 80.4931 64.6374 81.1493 64.7905C81.8055 64.9437 82.3305 65.228 82.7242 65.6436C83.1179 66.0592 83.4241 66.5404 83.621 67.1091C83.8179 67.6778 83.9272 68.2684 83.9272 68.8809C83.9272 69.4496 83.8397 69.9964 83.6866 70.5214C83.5335 71.0463 83.271 71.5275 82.9429 71.965C82.6148 72.4025 82.2211 72.7087 81.7836 72.9056C81.3462 73.1024 80.865 73.2118 80.3181 73.2118C80.0557 73.2118 79.7713 73.1899 79.4869 73.1243C79.2026 73.0805 78.9401 72.9931 78.6776 72.9056C78.4151 72.7962 78.2183 72.7087 78.0433 72.6212C77.8683 72.5118 77.6715 72.3806 77.409 72.1837L77.3215 74.4367C77.2777 75.4647 77.2559 76.2522 77.2559 76.7771C76.6215 76.7553 76.0966 76.7553 75.6372 76.7553C75.2654 76.7772 74.6967 76.799 73.9749 76.799ZM68.2222 66.9123C67.8722 66.9123 67.566 66.9997 67.3035 67.1747C67.041 67.3497 66.8223 67.6122 66.691 67.9622C66.5598 68.3122 66.4723 68.684 66.4723 69.0777C66.4723 69.6683 66.6254 70.1276 66.9098 70.4339C67.1941 70.7401 67.5878 70.9151 68.0253 70.9151C68.3753 70.9151 68.6815 70.8276 68.944 70.6526C69.2065 70.4776 69.4252 70.2151 69.5564 69.8433C69.6877 69.4933 69.7752 69.1215 69.7752 68.7059C69.7752 68.3778 69.7096 68.0715 69.6221 67.8091C69.5127 67.5466 69.3377 67.3278 69.0971 67.1529C68.8346 66.9997 68.5503 66.9123 68.2222 66.9123ZM68.2659 64.5499C68.944 64.5499 69.5783 64.6593 70.1908 64.8562C70.8032 65.053 71.3282 65.3592 71.7657 65.753C72.1812 66.1467 72.5093 66.5842 72.7062 67.1091C72.9031 67.6341 73.0124 68.1809 73.0124 68.7715C73.0124 69.3402 72.9249 69.9089 72.75 70.412C72.575 70.937 72.2687 71.4182 71.8313 71.8775C71.3938 72.3369 70.847 72.665 70.1908 72.9056C69.5346 73.1243 68.8128 73.2337 68.0691 73.2337C67.391 73.2337 66.7348 73.1243 66.1005 72.9274C65.4661 72.7306 64.9412 72.4462 64.5256 72.0525C64.11 71.6807 63.7819 71.2213 63.585 70.6745C63.3663 70.1495 63.2569 69.5808 63.2569 68.9902C63.2569 68.3996 63.3663 67.8528 63.5632 67.306C63.76 66.7591 64.0881 66.2998 64.5475 65.8623C65.0068 65.4249 65.5536 65.0968 66.2098 64.878C66.866 64.6593 67.5441 64.5499 68.2659 64.5499ZM56.673 67.9403H59.3416C59.3416 67.8528 59.3416 67.7653 59.3416 67.6997C59.3416 67.4153 59.2978 67.1747 59.1885 66.9779C59.0791 66.781 58.9479 66.6279 58.751 66.5404C58.576 66.4529 58.3573 66.4092 58.1167 66.4092C57.9636 66.4092 57.8105 66.431 57.6573 66.4967C57.5042 66.5404 57.373 66.6279 57.2418 66.7154C57.1105 66.8248 57.023 66.9341 56.9355 67.0654C56.848 67.1966 56.8043 67.3278 56.7605 67.4372C56.7605 67.5685 56.7168 67.7434 56.673 67.9403ZM61.6602 70.5651C61.5945 70.8932 61.4633 71.6807 61.2446 72.9056C60.6103 73.0368 60.0853 73.1024 59.6697 73.1462C59.2322 73.1899 58.8166 73.2118 58.3792 73.2118C57.7448 73.2118 57.1543 73.168 56.6074 73.0805C56.0606 72.9931 55.6013 72.8399 55.2075 72.5993C54.8138 72.3806 54.4857 72.0962 54.2232 71.7463C53.9608 71.4182 53.7639 71.0026 53.6327 70.5432C53.5014 70.0839 53.4358 69.6027 53.4358 69.1215C53.4358 68.4215 53.567 67.7434 53.8514 67.0872C54.1357 66.431 54.4857 65.9061 54.9232 65.5342C55.3606 65.1624 55.8637 64.8999 56.4324 64.7468C57.0011 64.5937 57.5699 64.5062 58.1823 64.5062C58.7948 64.5062 59.3853 64.5718 59.9322 64.7249C60.479 64.8562 60.9602 65.1186 61.3539 65.4686C61.7477 65.8186 62.0101 66.2342 62.1851 66.6716C62.3382 67.1091 62.4257 67.6122 62.4257 68.1153C62.4257 68.4215 62.382 68.7715 62.3164 69.1433H56.6512C56.6512 69.2308 56.6512 69.2965 56.6512 69.3839C56.6512 69.9745 56.8699 70.3901 57.2855 70.6745C57.7011 70.9588 58.2042 71.0901 58.8166 71.0901C59.1666 71.0901 59.5822 71.0463 60.0415 70.9588C60.4353 70.9151 60.9821 70.762 61.6602 70.5651ZM46.2395 67.0216C46.1957 67.2622 46.1738 67.4591 46.152 67.6122C46.1301 67.7653 46.1301 67.9622 46.1082 68.2247C46.0863 68.4871 46.0864 68.684 46.0864 68.859C46.0864 69.2965 46.152 69.6683 46.2832 69.9745C46.4145 70.2808 46.6113 70.4995 46.8519 70.6745C47.0925 70.8276 47.355 70.9151 47.6394 70.9151C47.9237 70.9151 48.2081 70.8276 48.4487 70.6526C48.6893 70.4776 48.8861 70.237 49.0393 69.887C49.1924 69.5371 49.258 69.1652 49.258 68.7277C49.258 68.159 49.1049 67.6778 48.7986 67.3278C48.4924 66.9779 48.055 66.8029 47.4644 66.8029C47.1363 66.8466 46.7207 66.9123 46.2395 67.0216ZM42.521 76.799C42.6304 75.6835 42.7179 74.5898 42.7835 73.4961C42.9147 71.615 43.0022 70.0401 43.046 68.7496C43.0897 67.481 43.1116 66.2123 43.1116 64.9655C44.2052 64.7905 45.0583 64.6812 45.6926 64.6374C46.3051 64.5718 46.9394 64.5499 47.5519 64.5499C48.3174 64.5499 49.0393 64.6374 49.6955 64.7905C50.3517 64.9437 50.8766 65.228 51.2703 65.6436C51.6641 66.0592 51.9703 66.5404 52.1671 67.1091C52.364 67.6778 52.4734 68.2684 52.4734 68.8809C52.4734 69.4496 52.3859 69.9964 52.2328 70.5214C52.0796 71.0463 51.8172 71.5275 51.4891 71.965C51.161 72.4025 50.7672 72.7087 50.3298 72.9056C49.8923 73.1024 49.4111 73.2118 48.8861 73.2118C48.6237 73.2118 48.3393 73.1899 48.055 73.1243C47.7706 73.0805 47.5081 72.9931 47.2456 72.9056C46.9832 72.7962 46.7863 72.7087 46.6113 72.6212C46.4363 72.5118 46.2395 72.3806 45.977 72.1837L45.8895 74.4367C45.8457 75.4647 45.8239 76.2522 45.8239 76.7771C45.1895 76.7553 44.6646 76.7553 44.2052 76.7553C43.8115 76.7772 43.2428 76.799 42.521 76.799Z" fill="white"/>
  <path d="M0.0644531 72.7743C0.195693 71.6588 0.283186 70.7401 0.348806 70.0183C0.414426 69.2964 0.480046 68.3778 0.523793 67.2622C0.589413 66.1467 0.633159 64.8999 0.676906 63.5437C0.720652 62.1876 0.764399 60.6127 0.786272 58.8191C1.96743 58.841 2.92986 58.841 3.62981 58.841C4.28601 58.841 5.20469 58.841 6.40772 58.8191C6.25461 60.5471 6.14524 62.0564 6.07962 63.3688C6.014 64.6593 5.97025 66.0592 5.94838 67.5028C5.92651 70.0839 5.90463 71.8556 5.90463 72.7743C4.81097 72.7524 3.89229 72.7524 3.10485 72.7524C2.33928 72.7524 1.33311 72.7524 0.0644531 72.7743Z" fill="white"/>
  <path d="M20.5381 68.4216C20.4944 68.7935 20.385 69.4496 20.21 70.434L19.8601 72.6213C18.4164 72.9713 17.0165 73.1463 15.6604 73.1463C14.6761 73.1463 13.8012 73.0588 13.0575 72.84C12.1607 72.5994 11.3732 72.1838 10.6733 71.5714C9.95145 70.9589 9.42649 70.2152 9.09839 69.3622C8.70467 68.3779 8.50781 67.2623 8.50781 66.0374C8.50781 64.9 8.70467 63.8063 9.07652 62.7783C9.44837 61.7283 10.0171 60.8534 10.7608 60.1972C11.5045 59.5191 12.3356 59.0598 13.2543 58.8411C14.173 58.6005 15.1792 58.4911 16.2728 58.4911C16.9072 58.4911 17.5634 58.5348 18.2196 58.6005C18.8758 58.6661 19.6851 58.8192 20.6475 59.0379L20.6694 59.3441C20.6913 59.6723 20.7131 60.0004 20.735 60.3503C20.7569 60.7003 20.7788 61.2253 20.8225 61.969L20.91 63.1939C19.6195 62.7345 18.4602 62.5158 17.454 62.5158C16.7322 62.5158 16.0979 62.647 15.551 62.9314C15.0042 63.2157 14.6105 63.6095 14.348 64.1344C14.0855 64.6594 13.9543 65.2718 13.9543 65.9499C13.9543 66.6499 14.0636 67.2404 14.3042 67.7217C14.523 68.2029 14.8948 68.5528 15.4198 68.7934C15.9229 69.0341 16.4916 69.1434 17.104 69.1434C17.4103 69.1434 17.7821 69.1216 18.1977 69.0559C18.6133 68.9903 18.9851 68.9247 19.3132 68.8372C19.6632 68.7278 20.0569 68.5966 20.5381 68.4216Z" fill="white"/>
  <path d="M36.593 68.6404C36.4836 69.1872 36.243 70.5215 35.9149 72.5994C34.865 72.8182 33.9682 72.9494 33.2464 73.015C32.5245 73.0807 31.8027 73.1244 31.059 73.1244C29.9654 73.1244 28.9811 73.0588 28.0624 72.9057C27.1437 72.7526 26.3781 72.4901 25.7001 72.0964C25.0439 71.7245 24.4752 71.2433 24.0377 70.6746C23.6002 70.1059 23.2502 69.4278 23.0096 68.6404C22.769 67.8529 22.6597 67.0436 22.6597 66.2124C22.6597 65.0532 22.9003 63.8939 23.3596 62.7783C23.819 61.6628 24.4314 60.7879 25.1532 60.1535C25.875 59.5192 26.7281 59.0817 27.6905 58.8193C28.653 58.5568 29.6373 58.4255 30.6216 58.4255C31.6715 58.4255 32.6558 58.5568 33.5963 58.7974C34.5369 59.038 35.3462 59.4536 36.0024 60.066C36.6586 60.6566 37.1179 61.3347 37.4023 62.1003C37.6867 62.8658 37.8179 63.6751 37.8179 64.5501C37.8179 65.075 37.7523 65.6437 37.6429 66.2781L28.0624 66.2999C28.0624 66.453 28.0405 66.5843 28.0405 66.6937C28.0405 67.678 28.3905 68.3998 29.0904 68.8591C29.7904 69.3184 30.6434 69.5591 31.6496 69.5591C32.2621 69.5591 32.9401 69.4934 33.7057 69.3403C34.4931 69.2091 35.4556 68.9685 36.593 68.6404ZM28.1717 64.222H32.6777C32.6777 64.0689 32.6995 63.9376 32.6995 63.8282C32.6995 63.347 32.612 62.9533 32.437 62.6033C32.2621 62.2752 32.0215 62.0128 31.7152 61.8596C31.409 61.7065 31.0372 61.619 30.6653 61.619C30.4028 61.619 30.1185 61.6628 29.8779 61.7503C29.6154 61.8378 29.3967 61.969 29.1779 62.1221C28.9811 62.2971 28.8061 62.494 28.6748 62.6908C28.5436 62.9096 28.4342 63.1283 28.3686 63.3252C28.303 63.5658 28.2374 63.8501 28.1717 64.222Z" fill="white"/>
  <path d="M7.21748 82.1581C7.56745 81.8519 7.87368 81.5675 8.22365 81.2832L8.48613 81.0645H6.97687L6.93312 81.1082C6.2988 81.7425 5.86133 82.1362 5.13951 82.7924L4.83328 83.0768C3.95835 83.8861 3.47713 84.3236 2.66782 85.0235C2.97405 83.0112 3.08341 82.3769 3.32402 81.2394L3.36777 81.0863H2.23035L2.12099 81.1082L2.09911 81.2176C2.03349 81.6988 1.88038 82.9456 1.35542 86.3359C1.11481 87.7796 0.939827 88.8076 0.721093 89.8575L0.699219 90.0107H1.946L1.96787 89.9013C2.09911 88.9389 2.18661 88.392 2.33972 87.3859L2.62407 85.5266C3.19278 86.2047 3.54275 86.6422 3.87085 87.0578C4.04584 87.2984 4.22083 87.5171 4.43956 87.7796C4.54893 87.9327 4.68017 88.0639 4.78954 88.1952C5.227 88.742 5.62072 89.2013 6.14568 89.9669L6.18943 90.0325H7.76431L7.56745 89.8138C6.84563 88.9607 6.43004 88.4576 5.99257 87.9327C5.83946 87.7358 5.68634 87.539 5.51136 87.3421C5.18326 86.9484 4.96452 86.6859 4.76766 86.4672C4.48331 86.1172 4.2427 85.8547 3.82711 85.3079C4.41769 84.761 4.8989 84.3455 5.79571 83.558C6.34254 82.9237 6.80188 82.53 7.21748 82.1581Z" fill="white"/>
  <path d="M14.9383 81.48C14.3914 81.0645 13.7134 81.0645 13.2978 81.0645H9.77616L9.71054 81.5238C9.46993 83.4705 8.76999 87.6702 8.35439 89.8357L8.33252 89.9888H9.5793L9.62305 89.6388C9.84178 87.8889 10.323 84.8267 10.4324 84.1923L10.5199 83.6455C10.6073 83.1424 10.6948 82.6393 10.8042 81.9394H12.8166C13.1228 81.9394 13.7571 81.9394 14.1071 82.2019C14.3039 82.355 14.5008 82.705 14.4352 83.208C14.3696 83.7768 14.0633 84.2798 13.604 84.6079C13.1228 84.936 12.4885 85.111 11.6791 85.111C11.3073 85.111 10.8917 85.0454 10.6073 85.0235L10.3886 85.0017L10.5636 85.8328L10.6511 85.8547C10.8261 85.8985 11.2635 85.9641 11.7229 85.9641C12.7509 85.9641 13.6696 85.7235 14.3258 85.2641C14.8289 84.9142 15.4632 84.258 15.5945 83.2299C15.682 82.1581 15.157 81.6332 14.9383 81.48Z" fill="white"/>
  <path d="M25.3066 81.3268C25.066 83.3392 24.2786 88.1513 23.9505 89.7918L23.9067 89.9449H25.1535L25.2191 89.5075C25.9191 84.6297 26.1597 82.9892 26.5315 81.1956L26.5753 81.0425H25.3285L25.3066 81.3268Z" fill="white"/>
  <path d="M20.2536 84.5423C19.6412 84.5423 19.2037 84.5861 18.7881 84.6736L18.7225 84.6954L18.3069 85.5704L18.5475 85.5266C19.0287 85.4391 19.4662 85.3954 19.8818 85.3954C20.6692 85.3954 21.2816 85.5485 21.6972 85.8547C22.091 86.1609 22.2222 86.5109 22.1566 87.1234C22.0691 87.9327 21.6972 88.4577 20.9973 88.8076C20.3848 89.1139 19.7286 89.1357 19.1381 89.1357H17.6726C18.11 86.1609 18.3944 84.433 18.9412 81.2176L18.9631 81.0645H17.7163L17.6944 81.1738C17.3007 84.258 16.8632 87.0796 16.3383 89.8138L16.3164 89.9669H19.2693C19.9911 89.9669 20.7567 89.9232 21.566 89.5295C22.5503 89.0264 23.119 88.2389 23.2502 87.1671C23.3377 86.4234 23.1846 85.8329 22.7472 85.3735C22.3316 84.8048 21.4566 84.5423 20.2536 84.5423Z" fill="white"/>
  <path d="M34.4494 81.9612L34.6244 81.0425H27.5593L27.3843 81.9612H27.5593C27.9967 81.9393 28.4561 81.9174 29.0685 81.9174H30.3809C30.2059 83.1642 30.0747 83.8641 29.7903 85.6578C29.4841 87.6045 29.331 88.4357 29.0685 89.8137L29.0467 89.9668H30.2934L30.3809 89.3325C30.4903 88.3701 30.5997 87.6482 30.8184 86.3796L31.0809 84.7828C31.2777 83.6017 31.3652 83.033 31.5621 81.9174H33.0495C33.5526 81.9174 33.99 81.9393 34.3838 81.9612H34.4494Z" fill="white"/>
  <path d="M38.0364 84.5203C37.424 84.5203 36.9865 84.5641 36.5709 84.6516L36.5053 84.6735L36.0897 85.5484L36.3303 85.5046C36.8115 85.4172 37.249 85.3734 37.6865 85.3734C38.4739 85.3734 39.0863 85.5265 39.5019 85.8327C39.8957 86.139 40.0269 86.4889 39.9613 87.1014C39.8519 87.9107 39.5019 88.4357 38.802 88.7856C38.1895 89.0919 37.5333 89.1137 36.9428 89.1137H35.4772C35.9147 86.139 36.1991 84.411 36.7459 81.1956L36.7678 81.0425H35.521L35.4991 81.1518C35.1054 84.2141 34.6679 87.0576 34.143 89.7918L34.1211 89.9449H37.074C37.7958 89.9449 38.5614 89.9012 39.3707 89.4856C40.355 88.9825 40.9237 88.1951 41.0549 87.1233C41.1424 86.3796 40.9893 85.789 40.5519 85.3297C40.0925 84.8047 39.2176 84.5203 38.0364 84.5203Z" fill="white"/>
  <path d="M43.0894 81.3269C42.8488 83.383 42.0833 88.1076 41.7333 89.7918L41.7114 89.945H42.9582L43.0238 89.4637C43.7238 84.6079 43.9644 82.9674 44.3362 81.1737L44.38 81.0206H43.1332L43.0894 81.3269Z" fill="white"/>
  <path d="M50.5479 80.4301C51.729 80.4301 52.6696 80.0583 53.282 79.2927L53.3914 79.1615L52.429 78.7677L52.3633 78.8334C51.8603 79.3583 51.2916 79.5989 50.5916 79.5989C49.8917 79.5989 49.3667 79.3365 49.0386 78.8115L48.973 78.724L47.9668 79.1177L48.0324 79.249C48.4918 80.0145 49.323 80.4301 50.5479 80.4301Z" fill="white"/>
  <path d="M53.239 81.0644C50.6142 83.9079 48.23 86.4233 46.3489 88.3482C46.6551 86.5765 46.7864 85.7234 46.9614 84.5641L47.027 84.1923C47.1801 83.1642 47.3332 82.2674 47.5301 81.1737L47.552 81.0206H46.3052L46.2833 81.13C45.9552 83.7548 45.3646 87.4733 44.9271 89.77L44.9053 89.9231H46.0427L46.0864 89.8793C48.405 87.342 49.5862 86.1171 50.5486 85.1547L50.7236 84.9797C51.3798 84.3016 52.0141 83.6454 52.9984 82.5736C52.7797 83.9954 52.6047 85.0234 52.4297 86.1827L52.3204 86.8171C52.1016 88.217 51.9922 88.8075 51.7954 89.77L51.7735 89.9231H52.9109L53.0203 89.9012L53.0422 89.7918C53.2172 88.3919 53.7421 84.7828 54.3983 81.1737L54.4202 81.0206H53.2828L53.239 81.0644Z" fill="white"/>
  <path d="M71.7213 85.1328H68.8122C69.5121 84.0829 69.709 83.8204 70.0371 83.3174C70.2339 83.033 70.4745 82.6611 70.8901 82.0268C71.262 83.4048 71.5463 84.4329 71.7213 85.1328ZM73.5806 87.7795C73.4931 87.4295 73.3837 87.0577 73.2525 86.5546C73.0993 86.0296 73.0118 85.6797 72.9025 85.3297C72.7275 84.6954 72.5744 84.1485 72.2244 82.9018C72.0057 82.0706 71.9401 81.8518 71.8963 81.655L71.7213 80.9988H70.387L70.3433 81.0644C69.7965 81.9612 69.5121 82.3768 68.6591 83.6236L68.4184 83.9517C67.6091 85.1328 67.0404 85.9859 66.5373 86.7515C65.9468 87.6483 65.4218 88.4357 64.7 89.4638C64.1094 88.7857 63.7376 88.3263 63.3657 87.8451C63.2126 87.6483 63.0376 87.4514 62.8626 87.2108C62.5345 86.7952 62.2939 86.5327 62.0971 86.2921C61.8127 85.964 61.594 85.6797 61.1784 85.1547C61.769 84.6298 62.2283 84.1923 63.147 83.4048C63.7594 82.8799 64.2188 82.4643 64.6344 82.0924C64.9843 81.7862 65.2906 81.5019 65.6405 81.2175L65.903 80.9988H64.3938L64.35 81.0425C63.6938 81.6987 63.3001 82.0706 62.5564 82.7486L62.2502 83.033C61.3752 83.8423 60.894 84.2798 60.0847 84.9579C60.3909 82.9455 60.5003 82.3112 60.7409 81.1738L60.7847 81.0207H59.5379L59.516 81.13C59.4723 81.5456 59.3191 82.8143 58.7723 86.2484C58.5098 87.867 58.3348 88.8294 58.138 89.77L58.0942 89.9231H59.341L59.3629 89.8137C59.4941 88.8513 59.5816 88.2826 59.7347 87.2764L60.0191 85.4172C60.5878 86.0953 60.9378 86.5327 61.2659 86.9483C61.4409 87.1671 61.6158 87.4077 61.8127 87.6483C61.9439 87.8014 62.0533 87.9545 62.1627 88.0857C62.6001 88.6107 62.972 89.07 63.4969 89.8575L63.5407 89.9231H65.1156H65.7499L65.7936 89.8575C66.078 89.3981 66.3842 88.9169 66.6905 88.4357C67.2154 87.6264 67.8497 86.6202 68.2435 86.0296H71.9182C72.1807 86.9483 72.3338 87.5389 72.5306 88.2826L72.6181 88.6107C72.7275 89.0482 72.815 89.3544 72.8806 89.8137L72.9025 89.9231H74.1711L74.1274 89.7481C73.8649 88.8294 73.7337 88.3482 73.5806 87.7795Z" fill="white"/>
  <path d="M81.3893 81.9175L81.5643 80.9988H74.4992L74.3242 81.9175L74.4992 81.8956C74.9148 81.8737 75.396 81.8518 76.0085 81.8518H77.3209C77.124 83.0986 77.0146 83.7767 76.7303 85.5703C76.4241 87.5389 76.2709 88.3701 76.0085 89.7262L75.9866 89.8793H77.2334L77.299 89.245C77.4083 88.2826 77.5396 87.5608 77.7364 86.2921L77.9771 84.7829C78.1739 83.558 78.2614 82.9892 78.4801 81.8518H79.9457C80.4706 81.8518 80.9299 81.8737 81.3018 81.8956L81.3893 81.9175Z" fill="white"/>
  <path d="M81.6962 85.6797C81.8274 84.5642 82.3305 83.5361 83.0742 82.8581C83.6429 82.3331 84.6491 81.7206 86.2677 81.7206V81.5894V81.7206C88.0176 81.7206 88.805 82.4862 89.0456 82.8143C89.505 83.383 89.6799 84.3236 89.5706 85.3297C89.3737 86.9046 88.5644 87.8014 88.2363 88.1077C87.7114 88.5889 86.7271 89.1795 85.1303 89.1795C83.5117 89.1795 82.7024 88.5889 82.3743 88.2389C81.8056 87.6264 81.565 86.7078 81.6962 85.6797ZM86.3771 80.8457C84.2554 80.8457 82.943 81.655 82.3743 82.1362C82.0024 82.4425 80.7994 83.5799 80.5369 85.6578C80.3182 87.4515 81.04 88.4358 81.4775 88.8514C82.2212 89.5732 83.5554 90.0106 84.9991 90.0106C86.5521 90.0106 87.9738 89.5294 88.9581 88.6982C89.8987 87.9108 90.5549 86.5984 90.708 85.2204C90.9049 83.6455 90.358 82.6831 89.8768 82.1362C89.3737 81.5675 88.3238 80.8457 86.3771 80.8457Z" fill="white"/>
  <path d="M98.0573 82.0924C98.4073 81.7862 98.7135 81.5019 99.0635 81.2175L99.326 80.9988H97.8167L97.773 81.0425C97.1386 81.6768 96.7012 82.0706 96.0012 82.7268L95.6731 83.033C94.7982 83.8423 94.317 84.2798 93.5077 84.9579C93.8139 82.9455 93.9233 82.3112 94.1639 81.1738L94.2076 81.0207H93.0702L92.9608 81.0425L92.939 81.1519C92.8733 81.6331 92.7202 82.8799 92.1953 86.2703C91.9328 87.8889 91.7578 88.8513 91.5609 89.7919L91.5391 89.945H92.7858L92.8077 89.8356C92.939 88.895 93.0264 88.3263 93.1577 87.3858L93.4639 85.4391C94.0326 86.1171 94.3826 86.5546 94.7107 86.9702C94.8857 87.2108 95.0607 87.4295 95.2794 87.6701C95.4106 87.8233 95.52 87.9545 95.6294 88.1076C96.0668 88.6326 96.4387 89.1138 96.9636 89.8794L97.0074 89.945H98.5823L98.3854 89.7262C97.6636 88.895 97.2699 88.392 96.8324 87.867C96.6793 87.6701 96.5043 87.4733 96.3293 87.2546C96.0012 86.839 95.7825 86.5765 95.5638 86.3359C95.2794 86.0078 95.0607 85.7234 94.6451 85.1985C95.2575 84.6516 95.7169 84.236 96.6137 83.4486C97.1824 82.858 97.6417 82.4424 98.0573 82.0924Z" fill="white"/>
  <path d="M47.0047 26.5342L49.3889 41.583C49.4545 41.9549 49.6076 42.3486 49.9139 42.5892L61.638 52.0822V52.6947L47.5078 47.2701C47.0485 47.0951 46.5016 47.0951 46.0642 47.2701L31.9121 52.6947V52.0822L43.5925 42.6111C43.8768 42.3705 44.0737 42.0205 44.1174 41.6487L46.5235 26.5342H47.0047Z" fill="white"/>
  <path d="M47.114 26.5341L49.4982 11.4852C49.5638 11.1133 49.7169 10.7196 50.0232 10.479L61.7473 0.985989V0.373535L47.6171 5.79812C47.1578 5.97311 46.6109 5.97311 46.1734 5.79812L31.9995 0.373535V0.985989L43.6799 10.4571C43.9642 10.6978 44.1611 11.0477 44.2048 11.4196L46.6109 26.5341H47.114Z" fill="white"/>
  <path d="M46.8951 26.7529L34.996 36.2896C34.7116 36.5303 34.4491 36.8584 34.3835 37.2302L31.9118 52.1041L31.3869 52.4103L29.0902 37.4271C29.0246 36.9458 28.7621 36.4646 28.3902 36.1584L16.688 26.5341L17.2129 26.2279L31.2338 31.6962C31.5837 31.8275 31.9775 31.8056 32.3274 31.6962L46.6545 26.3154L46.8951 26.7529Z" fill="white"/>
  <path d="M46.8516 26.7529L58.6194 36.4428C58.9038 36.6834 59.1663 37.0115 59.21 37.3833L61.4848 52.3009L62.0098 52.6072L64.5033 37.6677C64.5908 37.1865 64.8533 36.7271 65.2252 36.4209L77.0586 26.9497L76.5337 26.6435L62.4473 31.9369C62.0973 32.0681 61.7036 32.0462 61.3536 31.915L47.0922 26.3373L46.8516 26.7529Z" fill="white"/>
</svg>
