<svg width="162" height="64" viewBox="0 0 162 64" fill="none" xmlns="http://www.w3.org/2000/svg">
  <path d="M93.6579 13.9644V12.9132L98.9411 11.7842V7.34594L93.6967 8.47497V7.4238L100.728 5.90545V1L87.8697 3.72525L87.9085 20.1157L101 17.3126V12.4071L93.6579 13.9644ZM78.7406 10.8109C78.9737 10.772 79.1679 10.772 79.3621 10.8498C79.5175 10.9277 79.6341 11.0834 79.6729 11.2392C79.7118 11.5117 79.6729 11.7453 79.5175 11.9789C79.3622 12.2125 79.1291 12.3293 78.8183 12.4071L76.9925 12.7964V11.1613L78.7406 10.8109ZM83.0526 15.5217C85.1504 13.8476 85.9273 11.7842 85.4223 9.33148C85.1504 7.96886 84.3734 6.91768 83.1692 6.17797C81.9649 5.43826 80.4887 5.2436 78.7406 5.63293L71.1266 7.26808L71.1654 23.6585L76.9925 22.4127V17.9744L78.1579 17.7408L80.2556 21.7508L86.0439 20.505L83.0526 15.5217ZM62.1529 18.3248L60.599 18.6752L61.3759 15.2102L62.1529 18.3248ZM64.4837 8.66963L57.9185 10.0712L52.4023 27.6685L58.812 26.3059L59.4724 23.3471L63.2794 22.5295L63.9787 25.2158L70.0777 23.931L64.4837 8.66963ZM39.7381 25.4494V24.3982L45.0213 23.2692V18.8309L39.7769 19.96V18.9088L46.8083 17.3904V12.485L33.9499 15.2102L33.9887 31.6007L47.0802 28.7976V23.8921L39.7381 25.4494ZM22.6454 34.0145L27.5789 32.9633L32.5902 15.4828L26.0639 16.8843L24.1993 24.9043L22.2569 17.7019L17.7506 18.6752L15.9248 26.6952L13.9436 19.4928L8 20.6997L13.1278 36L18.1779 34.9099L20.2757 27.4739L22.6454 34.0145Z" stroke="white" stroke-width="1.501" stroke-miterlimit="11.893"/>
  <path d="M152.759 17.8349C153.069 17.7568 153.339 17.7959 153.533 17.913C153.726 18.0302 153.881 18.1864 153.919 18.4208C153.997 18.7723 153.919 19.0847 153.765 19.3581C153.571 19.6315 153.301 19.8268 152.875 19.9049L150.556 20.4127V18.3427L152.759 17.8349ZM158.211 23.8497C160.879 21.7406 161.884 19.0847 161.227 15.9602C160.879 14.2417 159.912 12.8747 158.366 11.9374C156.819 11 154.963 10.7657 152.798 11.2343L143.171 13.3043L143.21 34.2388L150.556 32.6765V27.0133L152.025 26.7008L154.693 31.8172L162 30.255L158.211 23.8497ZM132.268 30.294V28.9661L138.918 27.521L138.879 21.8578L132.229 23.3029V21.9359L141.16 20.0221L141.122 13.734L124.844 17.21L124.883 38.1444L141.431 34.5903V28.3021L132.268 30.294ZM122.641 17.7178L115.295 19.28V26.154L110.616 27.1695V20.2955L103.232 21.8578L103.27 42.7922L110.655 41.2299V34.0435L115.333 33.028V40.2144L122.679 38.6522L122.641 17.7178ZM83.7451 26.0759V33.2623L88.8487 32.1688V45.9167L96.2334 44.3545V30.6065L101.337 29.5129V22.3265L83.7451 26.0759ZM72.8807 43.0656V41.7377L79.5308 40.2926L79.4921 34.6293L72.842 36.0744V34.7074L81.7733 32.7937L81.7346 26.5055L65.4573 29.9816L65.4959 50.916L82.0439 47.3618V41.0737L72.8807 43.0656ZM63.4081 34.0044L62.9441 33.692C62.6735 33.4576 62.2095 33.2233 61.6296 32.9108C61.0496 32.6374 60.3537 32.364 59.6191 32.1297C58.8458 31.8954 57.9566 31.7391 56.874 31.661C55.7914 31.5829 54.7088 31.7001 53.5876 31.9344C49.8759 32.7155 47.0535 34.5512 45.0816 37.4024C43.1098 40.2535 42.4912 43.339 43.2258 46.6588C43.7284 49.0803 45.159 51.0332 47.4401 52.4783C49.7212 53.9234 52.273 54.353 55.0568 53.7281C56.2167 53.4937 57.3379 53.1032 58.3819 52.5564C59.4258 52.0096 60.2377 51.5018 60.8563 50.9941C61.4749 50.4864 62.0549 49.9005 62.5575 49.3147C63.0601 48.6898 63.4081 48.2992 63.5628 48.0648C63.7174 47.8305 63.8334 47.6743 63.8721 47.5181V39.3161L53.9742 41.4252L53.9356 45.2918L56.4874 44.745L56.4487 46.0729L56.2554 46.1901C56.1394 46.3073 55.9074 46.4245 55.5981 46.5807C55.2888 46.7369 54.9021 46.8541 54.4768 46.9322C53.5103 47.1275 52.6983 46.9713 51.9251 46.4245C51.1904 45.8777 50.7265 45.1746 50.5332 44.2373C50.2625 42.9875 50.5332 41.8158 51.3451 40.6831C52.157 39.5505 53.2396 38.8084 54.6702 38.535C55.4434 38.3788 56.2167 38.3788 56.99 38.5741C57.7632 38.7693 58.2659 38.9646 58.5365 39.1209C58.7685 39.2771 58.9618 39.4333 59.1165 39.5505L63.4081 34.0044ZM30.5055 52.1658C29.5002 52.4001 28.5723 52.2049 27.7604 51.619C26.9098 51.0332 26.4072 50.2911 26.1752 49.2756C25.9432 48.143 26.1752 47.0103 26.9098 45.9167C27.6444 44.8231 28.611 44.1592 29.8095 43.8858C30.8148 43.6905 31.7041 43.8467 32.5547 44.4326C33.4053 45.0184 33.9079 45.7996 34.1012 46.776C34.3332 47.9477 34.1012 49.0413 33.3279 50.1349C32.5933 51.2284 31.6654 51.8924 30.5055 52.1658ZM41.4859 44.5888C40.906 41.9329 39.4754 39.8629 37.1556 38.4178C34.8358 36.9727 32.0907 36.5822 28.959 37.2461C25.5566 37.9882 22.8501 39.7458 20.8396 42.5969C18.8291 45.448 18.1332 48.3773 18.7905 51.5018C19.3704 54.1577 20.801 56.2277 23.1208 57.7119C25.4406 59.157 28.1857 59.5475 31.3174 58.8836C33.4826 58.4149 35.4544 57.4385 37.1556 55.9934C38.8955 54.5483 40.1327 52.7907 40.9446 50.7207C41.7566 48.6507 41.9112 46.6197 41.4859 44.5888ZM0 44.0811V51.2675L4.67828 50.252V64L12.063 62.4377V48.6898L17.1666 47.5962V40.4097L0 44.0811Z" fill="white"/>
</svg>
