<svg width="1186" height="534" viewBox="0 0 1186 534" fill="none" xmlns="http://www.w3.org/2000/svg">
  <path d="M684.926 169.927V162.294L723.382 154.096V121.871L685.209 130.069V122.436L736.389 111.412V75.7942L642.794 95.5818L643.077 214.59L738.369 194.237V158.619L684.926 169.927ZM576.344 147.029C578.041 146.747 579.454 146.747 580.868 147.312C581.999 147.878 582.848 149.008 583.13 150.139C583.413 152.118 583.13 153.814 581.999 155.51C580.868 157.206 579.172 158.054 576.909 158.619L563.619 161.446V149.574L576.344 147.029ZM607.731 181.234C623 169.078 628.656 154.096 624.98 136.288C623 126.394 617.345 118.761 608.579 113.391C599.813 108.02 589.068 106.606 576.344 109.433L520.922 121.306L521.205 240.314L563.619 231.268V199.043L572.102 197.346L587.372 226.462L629.504 217.417L607.731 181.234ZM455.603 201.587L444.292 204.131L449.948 178.972L455.603 201.587ZM472.569 131.482L424.781 141.659L384.629 269.43L431.285 259.536L436.092 238.052L463.803 232.116L468.893 251.621L513.287 242.293L472.569 131.482ZM292.447 253.317V245.685L330.903 237.487V205.262L292.73 213.459V205.827L343.91 194.802V159.185L250.315 178.972L250.598 297.98L345.89 277.628V242.01L292.447 253.317ZM168.03 315.507L203.941 307.874L240.418 180.951L192.913 191.128L179.341 249.36L165.202 197.064L132.401 204.131L119.111 262.363L104.69 210.067L61.4272 218.83L98.7524 329.923L135.512 322.008L150.781 268.016L168.03 315.507Z" stroke="white" stroke-width="1.501" stroke-miterlimit="11.893"/>
  <path d="M1117.84 199.325C1120.1 198.76 1122.08 199.042 1123.5 199.891C1124.91 200.739 1126.04 201.869 1126.32 203.565C1126.89 206.109 1126.32 208.371 1125.19 210.35C1123.78 212.328 1121.8 213.742 1118.69 214.307L1101.72 217.982V203L1117.84 199.325ZM1157.71 242.858C1177.22 227.593 1184.57 208.371 1179.77 185.757C1177.22 173.319 1170.15 163.425 1158.84 156.641C1147.53 149.856 1133.96 148.16 1118.12 151.552L1047.72 166.534L1048 318.051L1101.72 306.743V265.755L1112.47 263.493L1131.98 300.524L1185.42 289.217L1157.71 242.858ZM967.975 289.5V279.889L1016.61 269.43L1016.33 228.441L967.692 238.9V229.007L1033.01 215.155L1032.73 169.644L913.684 194.802L913.967 346.319L1034.99 320.595V275.083L967.975 289.5ZM897.566 198.477L843.841 209.784V259.536L809.626 266.886V217.134L755.618 228.441L755.901 379.958L809.909 368.65V316.637L844.124 309.288V361.301L897.849 349.993L897.566 198.477ZM613.104 258.971V310.984L650.429 303.069V402.572L704.437 391.265V291.761L741.762 283.846V231.833L613.104 258.971ZM533.647 381.936V372.325L582.282 361.866L582 320.877L533.364 331.337V321.443L598.683 307.591L598.4 262.08L479.355 287.239L479.638 438.755L600.662 413.031V367.52L533.647 381.936ZM464.369 316.355L460.976 314.093C458.996 312.397 455.603 310.701 451.362 308.44C447.12 306.461 442.03 304.482 436.658 302.786C431.003 301.09 424.499 299.959 416.582 299.394C408.664 298.828 400.747 299.676 392.546 301.373C365.401 307.026 344.759 320.312 330.338 340.948C315.917 361.583 311.393 383.915 316.765 407.943C320.441 425.469 330.903 439.603 347.587 450.062C364.27 460.521 382.932 463.631 403.292 459.108C411.774 457.412 419.975 454.585 427.609 450.627C435.244 446.67 441.182 442.995 445.706 439.32C450.231 435.645 454.472 431.405 458.148 427.165C461.824 422.642 464.369 419.815 465.5 418.119C466.631 416.423 467.479 415.292 467.762 414.162V354.799L395.374 370.064L395.091 398.049L413.754 394.091L413.471 403.703L412.057 404.551C411.209 405.399 409.512 406.247 407.25 407.377C404.988 408.508 402.16 409.356 399.05 409.922C391.981 411.335 386.043 410.204 380.387 406.247C375.015 402.289 371.622 397.201 370.208 390.417C368.229 381.371 370.208 372.891 376.146 364.693C382.084 356.495 390.001 351.124 400.464 349.145C406.119 348.015 411.774 348.015 417.43 349.428C423.085 350.841 426.761 352.255 428.74 353.386C430.437 354.516 431.851 355.647 432.982 356.495L464.369 316.355ZM223.735 447.801C216.383 449.497 209.597 448.083 203.659 443.843C197.438 439.603 193.762 434.232 192.065 426.882C190.369 418.685 192.065 410.487 197.438 402.572C202.81 394.657 209.88 389.851 218.645 387.873C225.997 386.459 232.501 387.59 238.722 391.83C244.943 396.07 248.619 401.724 250.032 408.791C251.729 417.271 250.032 425.186 244.377 433.101C239.005 441.016 232.218 445.822 223.735 447.801ZM304.041 392.961C299.799 373.739 289.337 358.757 272.371 348.297C255.405 337.838 235.329 335.011 212.424 339.817C187.541 345.188 167.747 357.908 153.044 378.544C138.34 399.18 133.25 420.381 138.057 442.995C142.299 462.217 152.761 477.199 169.727 487.941C186.693 498.4 206.769 501.227 229.673 496.422C245.508 493.029 259.929 485.962 272.371 475.503C285.095 465.044 294.144 452.324 300.082 437.341C306.02 422.359 307.151 407.66 304.041 392.961ZM0.632812 389.286V441.299L34.8475 433.949V533.453L88.8558 522.145V422.642L126.181 414.727V362.714L0.632812 389.286Z" fill="white"/>
  <path d="M1059.31 492.464V488.507H1070.9V480.592H1059.31V477.199H1074.58V468.719H1048.85V501.227H1075.14V492.747H1059.31V492.464ZM1009.82 468.436V478.047H1018.31V500.944H1028.77V478.047H1037.25V468.436H1009.82ZM979.286 484.832C979.286 482.57 980.134 480.592 981.548 479.178C982.961 477.765 984.941 476.917 987.486 476.917C988.334 476.917 989.182 476.917 990.031 477.199C990.879 477.482 991.727 477.765 992.293 478.047C992.858 478.33 993.424 478.613 993.989 479.178C994.555 479.744 994.838 480.026 995.12 480.026C995.403 480.309 995.403 480.309 995.403 480.309L1001.62 473.807L1001.06 473.242C1000.78 472.677 1000.21 472.111 999.362 471.546C998.514 470.98 997.665 470.415 996.534 469.567C995.403 469.002 994.272 468.436 992.575 467.871C990.879 467.306 989.182 467.306 987.486 467.306C982.396 467.306 977.872 469.002 974.478 472.394C971.085 475.786 969.106 479.744 969.106 484.549C969.106 489.355 970.802 493.312 974.478 496.704C977.872 500.096 982.396 501.793 987.486 501.793C989.182 501.793 990.879 501.51 992.575 501.227C994.272 500.662 995.686 500.379 996.534 499.814C997.665 499.248 998.514 498.683 999.362 497.835C1000.21 496.987 1000.78 496.704 1001.06 496.139C1001.34 495.856 1001.62 495.574 1001.62 495.291L995.403 488.789L995.12 489.072C994.838 489.355 994.555 489.637 993.989 489.92C993.424 490.203 992.858 490.768 992.293 491.051C991.727 491.333 990.879 491.616 990.031 491.899C989.182 492.181 988.334 492.181 987.486 492.181C985.224 492.181 983.244 491.333 981.548 489.92C979.851 488.507 979.286 487.093 979.286 484.832ZM943.374 492.464V488.507H954.968V480.592H943.374V477.199H958.644V468.719H932.912V501.227H959.209V492.747H943.374V492.464ZM908.594 483.701V501.227H919.056V468.719H909.725L900.677 480.309L891.628 468.719H882.297V501.227H892.759V483.701L900.677 493.595L908.594 483.701ZM856 476.351C856.565 476.351 857.131 476.634 857.696 476.917C858.262 477.199 858.262 477.765 858.262 478.33C858.262 478.896 857.979 479.461 857.696 479.744C857.131 480.026 856.848 480.309 856 480.309H852.606V476.069H856V476.351ZM852.324 493.029V487.941H856.848C857.696 487.941 858.262 488.224 858.827 488.789C859.393 489.355 859.675 489.92 859.675 490.485C859.675 491.333 859.393 491.899 858.827 492.181C858.262 492.747 857.696 493.029 856.848 493.029H852.324ZM857.979 500.944C861.938 500.944 865.048 500.096 867.31 498.118C869.572 496.422 870.703 494.16 870.703 491.616C870.703 490.485 870.421 489.355 870.138 488.507C869.572 487.659 869.29 486.811 868.724 486.245C868.158 485.68 867.593 485.114 866.745 484.832C865.896 484.549 865.614 484.266 865.331 483.984C865.048 483.984 864.765 483.701 864.765 483.701L865.331 483.418C865.614 483.136 865.896 483.136 866.462 482.57C867.027 482.288 867.31 481.722 867.876 481.157C868.441 480.592 868.724 480.026 869.007 479.178C869.29 478.33 869.572 477.482 869.572 476.634C869.572 474.373 868.441 472.394 866.462 470.698C864.482 469.002 861.372 468.154 857.696 468.154H842.71V500.662H857.979V500.944ZM784.743 491.616H781.067V486.528H784.743C785.591 486.528 786.156 486.811 786.722 487.376C787.287 487.941 787.57 488.507 787.57 489.072C787.57 489.637 787.287 490.485 786.722 490.768C786.156 491.616 785.591 491.616 784.743 491.616ZM770.604 500.944H785.591C789.267 500.944 792.377 499.814 794.639 497.552C796.901 495.291 798.033 492.464 798.033 489.072C798.033 485.68 796.901 482.853 794.639 480.592C792.377 478.33 789.267 477.199 785.591 477.199H781.067V468.436H770.604V500.944ZM811.04 468.436H800.577V500.944H811.04V468.436ZM746.004 483.701V501.227H756.466V468.719H747.135L738.086 480.309L729.038 468.719H719.989V501.227H730.452V483.701L738.369 493.595L746.004 483.701ZM678.705 468.436L679.271 472.677L675.312 471.263L673.333 477.199L677.009 478.047L674.464 481.44L679.554 485.397L682.099 481.722L684.643 485.397L689.733 481.44L687.188 478.047L690.864 477.199L688.885 471.263L684.926 472.677L685.492 468.436H678.705Z" fill="#FEC81E"/>
  <path d="M1102.57 62.7909L1097.2 63.9216V59.6814L1102.29 58.5507C1102.85 58.5507 1103.14 58.5507 1103.7 58.8333C1103.99 59.116 1104.27 59.3987 1104.55 59.9641C1104.83 60.5294 1104.55 61.3775 1104.27 61.9428C1103.7 62.5082 1103.14 62.7909 1102.57 62.7909ZM1102.85 66.183C1103.42 65.9003 1104.27 66.183 1104.55 66.4657C1105.12 66.7484 1105.4 67.3137 1105.4 67.8791C1105.68 68.7271 1105.4 69.5752 1105.12 70.4232C1104.55 70.9886 1103.99 71.5539 1103.14 71.8366L1097.2 72.9673V67.3137L1102.85 66.183ZM1093.24 57.1373V77.4902L1103.42 75.2288C1105.68 74.6634 1107.38 73.8154 1108.51 72.402C1109.64 70.9886 1109.92 69.2925 1109.64 67.3137C1109.36 66.4657 1109.08 65.9003 1108.51 65.335C1107.94 64.7696 1107.38 64.4869 1107.1 64.2043C1106.81 64.2043 1106.53 63.9216 1106.25 63.9216H1106.53L1106.81 63.6389C1107.1 63.3562 1107.1 63.3562 1107.38 63.0735C1107.66 62.7909 1107.66 62.5082 1107.94 62.2255C1108.23 61.9428 1108.23 61.6601 1108.51 61.0948C1108.51 60.8121 1108.79 60.2467 1108.79 59.9641C1108.79 59.3987 1108.79 59.116 1108.79 58.5507C1108.51 57.42 1107.66 56.2892 1106.53 55.7239C1105.4 55.1585 1103.99 54.8758 1102.29 55.1585L1093.24 57.1373ZM1068.36 73.5327C1068.92 76.0768 1070.34 78.0556 1072.32 79.469C1074.58 80.8824 1076.84 81.4477 1079.38 80.8824C1082.21 80.317 1084.76 78.6209 1086.74 75.7941C1088.72 72.9673 1089.28 70.1405 1088.72 67.3137C1088.15 64.7696 1086.74 62.7909 1084.76 61.3775C1082.5 59.9641 1080.23 59.3987 1077.69 59.9641C1074.58 60.5294 1072.32 62.2255 1070.34 65.0523C1068.36 67.8791 1067.79 70.7059 1068.36 73.5327ZM1079.1 76.9249C1077.69 77.2075 1076.27 76.9248 1074.86 76.0768C1073.73 75.2288 1072.88 74.098 1072.6 72.402C1072.03 70.4232 1072.6 68.4444 1073.73 66.7484C1074.86 65.0523 1076.27 63.9216 1078.25 63.3562C1079.95 63.0735 1081.36 63.3562 1082.5 64.2043C1083.63 65.0523 1084.47 66.183 1084.76 67.8791C1085.04 69.8578 1084.76 71.5539 1083.63 73.5327C1082.21 75.5114 1080.8 76.6422 1079.1 76.9249ZM1066.38 62.7909L1061.29 63.9216L1053.09 74.6634V65.6177L1049.13 66.4657V86.8186L1053.09 85.9706V80.317L1056.2 76.0768L1062.7 83.9918L1066.94 83.1438L1058.74 72.9673L1066.38 62.7909ZM1034.71 72.9673C1036.12 72.6847 1037.25 72.9673 1038.38 73.8154C1039.51 74.6634 1040.36 75.7941 1040.65 77.2075C1041.21 79.1863 1040.65 81.165 1039.51 83.1438C1038.38 85.1226 1036.97 86.2533 1034.99 86.5359C1033.58 86.8186 1032.45 86.536 1031.31 85.9706C1030.18 85.4052 1029.34 83.9918 1029.05 82.5784C1028.49 80.5997 1029.05 78.6209 1030.18 76.6422C1031.31 74.3807 1032.73 73.25 1034.71 72.9673ZM1035.56 90.2108C1038.38 89.6454 1040.93 87.9493 1042.91 85.1225C1044.89 82.2957 1045.45 79.1863 1044.6 75.7941C1044.04 73.5327 1042.91 71.8366 1040.93 70.4232C1038.95 69.0098 1036.97 68.7271 1034.71 69.0098C1033.58 69.2925 1032.45 69.8579 1031.6 70.4232C1030.47 70.9886 1029.9 71.5539 1029.62 72.1193C1029.34 72.402 1029.05 72.6847 1029.05 72.9673V70.7059L1025.09 71.5539V100.953L1029.05 100.105V88.5147L1029.9 89.0801C1030.47 89.3627 1031.31 89.6454 1032.45 89.9281C1033.29 90.2108 1034.43 90.2108 1035.56 90.2108ZM1008.13 74.6634C1005.3 75.2288 1002.76 76.9249 1000.78 79.7516C998.796 82.5784 998.231 85.6879 999.079 89.0801C999.645 91.3415 1000.78 93.0376 1002.76 94.451C1004.73 95.8644 1006.71 96.1471 1008.98 95.5817C1010.11 95.299 1011.24 94.7337 1012.09 94.1683C1013.22 93.603 1013.78 93.0376 1014.07 92.7549C1014.35 92.4722 1014.63 92.1895 1014.63 91.9069V94.1683L1018.59 93.3203V72.9673L1014.63 73.8154V76.3595L1013.78 75.7941C1013.22 75.5115 1012.37 75.2288 1011.24 74.9461C1010.39 74.3807 1009.26 74.3807 1008.13 74.6634ZM1008.98 91.9069C1007.56 92.1895 1006.43 91.9069 1005.3 91.0588C1004.17 90.2108 1003.32 89.0801 1003.04 87.6667C1002.47 85.6879 1003.04 83.7092 1004.17 81.7304C1005.3 79.7516 1006.71 78.6209 1008.69 78.3383C1010.11 78.0556 1011.24 78.3382 1012.37 78.9036C1013.5 79.7516 1014.35 80.8824 1014.63 82.2957C1015.2 84.2745 1014.63 86.2533 1013.5 88.232C1012.37 90.4935 1010.67 91.6242 1008.98 91.9069ZM984.941 96.9951C983.527 97.2778 982.396 96.9951 981.265 96.1471C980.134 95.299 979.286 94.1683 979.003 92.7549C978.72 90.7762 979.003 89.0801 980.134 87.384C981.265 85.6879 982.679 84.5572 984.375 84.2745C985.789 83.9918 986.92 84.2745 988.051 84.8399C989.182 85.6879 989.748 86.5359 990.031 87.9493C990.314 89.9281 990.031 91.6242 988.9 93.6029C988.334 95.5817 986.92 96.7124 984.941 96.9951ZM990.879 82.0131L990.031 81.4477C989.465 81.165 988.617 80.8824 987.203 80.5997C985.789 80.317 984.941 80.317 983.527 80.5997C980.7 81.165 978.437 82.8611 976.741 85.6879C975.044 88.5147 974.479 91.3415 975.044 94.1683C975.61 96.4297 976.741 98.1258 978.72 99.5392C980.699 100.953 982.962 101.235 985.224 100.67C988.9 99.8219 991.727 97.8431 993.424 94.451C995.121 91.0588 995.686 87.1013 994.555 82.0131C993.707 77.7729 991.727 74.6634 988.9 72.402C986.072 70.4232 982.679 69.0098 978.437 69.0098L977.306 72.6847C980.417 72.9673 983.244 73.5327 985.506 74.9461C988.051 76.6422 989.748 78.9036 990.879 82.0131ZM951.292 98.4085C951.857 100.953 953.271 102.931 955.251 104.345C957.513 105.758 959.775 106.324 962.32 105.758C965.147 105.193 967.692 103.497 969.672 100.67C971.651 97.8431 972.217 95.0163 971.651 92.1895C971.085 89.6454 969.672 87.6667 967.692 86.2533C965.43 84.8399 963.168 84.2745 960.623 84.8399C957.513 85.4052 955.251 87.1013 953.271 89.9281C951.292 92.7549 950.726 95.5817 951.292 98.4085ZM962.037 101.801C960.623 102.083 959.209 101.801 957.795 100.953C956.664 100.105 955.816 98.9739 955.533 97.2778C955.251 95.299 955.533 93.3203 956.664 91.6242C957.795 89.9281 959.209 88.7974 961.189 88.232C962.885 87.9494 964.299 88.232 965.43 89.0801C966.561 89.9281 967.41 91.0588 967.692 92.7549C967.975 94.7337 967.692 96.4297 966.561 98.4085C965.43 100.387 964.016 101.518 962.037 101.801ZM933.195 91.0588L929.236 91.9069V112.26L933.195 111.412V100.387C933.195 98.4085 933.76 96.9951 934.609 95.5817C935.457 94.1683 936.588 93.6029 938.285 93.0376C939.416 92.7549 940.547 93.0376 941.395 93.6029C942.243 94.1683 942.809 95.0163 943.092 96.1471C943.092 96.4297 943.092 96.9951 943.092 97.2778V109.15L947.05 108.302V96.4297C947.05 95.5817 947.05 95.0163 946.768 94.1683C946.202 92.1896 945.354 90.7762 943.94 89.9281C942.526 89.0801 940.547 88.7974 938.567 89.3627C937.436 89.6454 936.588 89.9281 935.457 90.7761C934.609 91.3415 934.043 91.9069 933.76 92.1895C933.478 92.4722 933.195 92.7549 933.195 93.0376V91.0588ZM904.353 113.673C902.656 113.956 900.959 113.673 899.546 112.542C898.132 111.412 897.001 109.716 896.718 107.172C895.87 103.214 896.152 99.8219 897.849 96.7124C899.546 93.603 901.242 92.1895 903.504 91.6242C905.201 91.3415 906.898 91.6242 908.311 92.7549C909.725 93.8856 910.856 95.5817 911.139 98.1258C911.422 99.5392 911.422 100.953 911.422 102.649C911.422 104.345 911.139 105.758 910.574 107.454C910.008 109.15 909.442 110.281 908.311 111.412C907.18 112.825 905.767 113.391 904.353 113.673ZM891.911 108.585C892.759 111.977 894.173 114.804 896.718 116.5C899.263 118.196 901.808 118.761 904.918 117.913C906.615 117.631 908.311 116.783 909.725 115.652C911.139 114.521 912.553 112.825 913.684 111.129C914.815 109.433 915.381 107.172 915.946 104.627C916.229 102.083 916.229 99.5392 915.663 96.9951C914.815 93.603 913.401 91.0588 910.856 89.3627C908.311 87.6667 905.767 87.1013 902.656 87.9493C900.394 88.5147 898.697 89.3628 897.001 91.0588C895.304 92.4722 894.173 94.451 893.325 96.4297C892.476 98.4085 891.911 100.387 891.911 102.649C891.345 104.345 891.628 106.606 891.911 108.585ZM875.228 119.892C873.531 120.175 871.835 119.892 870.421 118.761C869.007 117.631 867.876 115.935 867.593 113.391C866.745 109.433 867.028 106.041 868.724 102.931C870.421 100.105 872.117 98.4085 874.38 97.8431C876.076 97.5605 877.773 97.8431 879.186 98.9739C880.6 100.105 881.731 101.801 882.014 104.345C882.297 105.758 882.297 107.172 882.297 108.868C882.297 110.564 882.014 111.977 881.449 113.673C880.883 115.087 880.318 116.5 879.186 117.631C878.055 118.761 876.924 119.609 875.228 119.892ZM863.069 114.521C863.917 117.913 865.331 120.74 867.876 122.436C870.421 124.132 872.966 124.698 876.076 123.85C877.773 123.567 879.469 122.719 880.883 121.588C882.297 120.458 883.711 118.761 884.842 117.065C885.973 115.369 886.538 113.108 887.104 110.564C887.387 108.02 887.387 105.475 886.821 102.931C885.973 99.5392 884.559 96.9951 882.014 95.299C879.469 93.603 876.924 93.0376 873.814 93.8856C871.552 94.451 869.855 95.299 868.159 96.9951C866.462 98.4085 865.331 100.387 864.483 102.366C863.634 104.345 863.069 106.324 863.069 108.585C862.503 110.564 862.503 112.825 863.069 114.521ZM846.386 126.111C844.689 126.394 842.992 126.111 841.579 124.98C840.165 123.85 839.034 122.154 838.751 119.609C837.903 115.652 838.185 112.26 839.882 109.15C841.579 106.324 843.275 104.627 845.537 104.062C847.234 103.779 848.931 104.062 850.344 105.193C851.758 106.324 852.889 108.02 853.172 110.564C853.455 111.977 853.455 113.391 853.455 115.087C853.455 116.783 853.172 118.196 852.606 119.892C852.041 121.306 851.475 122.719 850.344 123.85C849.213 124.98 847.8 125.828 846.386 126.111ZM834.227 120.74C835.075 124.132 836.489 126.959 839.034 128.655C841.579 130.351 844.124 130.917 847.234 130.069C848.931 129.786 850.627 128.938 852.041 127.807C853.455 126.676 854.869 124.98 856 123.284C857.131 121.588 857.696 119.327 858.262 116.783C858.545 114.239 858.545 111.694 857.979 109.15C857.131 105.758 855.717 103.214 853.172 101.518C850.627 99.8219 848.082 99.2565 844.972 100.105C842.71 100.67 841.013 101.518 839.317 103.214C837.62 104.627 836.489 106.606 835.641 108.585C834.792 110.564 834.227 112.542 834.227 114.804C833.661 116.783 833.661 118.761 834.227 120.74ZM829.42 130.917C829.42 130.351 828.854 129.786 828.289 129.503C827.723 129.221 827.158 128.938 826.309 129.221C825.461 129.503 824.895 129.786 824.33 130.634C823.764 131.482 823.764 132.047 823.764 132.895C824.047 133.461 824.33 134.026 824.895 134.591C825.461 134.874 826.026 135.157 826.875 134.874C827.723 134.592 828.289 134.309 828.854 133.461C829.42 132.33 829.702 131.482 829.42 130.917ZM808.212 134.309C806.516 134.592 804.819 134.309 803.405 133.178C801.991 132.047 800.86 130.351 800.578 127.807C799.729 123.85 800.012 120.458 801.709 117.348C803.405 114.521 805.102 112.825 807.364 112.26C809.061 111.977 810.757 112.26 812.171 113.391C813.585 114.521 814.716 116.217 814.999 118.761C815.281 120.175 815.281 121.588 815.281 123.284C815.281 124.98 814.999 126.394 814.433 128.09C813.868 129.786 813.302 130.917 812.171 132.047C811.04 133.178 809.626 133.743 808.212 134.309ZM795.771 128.938C796.619 132.33 798.033 135.157 800.578 136.853C803.122 138.549 805.667 139.114 808.778 138.266C810.474 137.984 812.171 137.136 813.585 136.005C814.999 134.874 816.412 133.178 817.544 131.482C818.675 129.786 819.24 127.525 819.806 124.98C820.088 122.436 820.088 119.892 819.523 117.348C818.675 113.956 817.261 111.412 814.716 109.716C812.171 108.02 809.626 107.454 806.516 108.302C804.254 108.868 802.557 109.716 800.86 111.412C799.164 112.825 798.033 114.804 797.184 116.783C796.336 118.761 795.771 120.74 795.771 123.002C795.205 124.98 795.488 126.959 795.771 128.938ZM780.501 124.132C778.239 124.698 776.825 125.263 775.977 126.394L776.26 119.327L788.701 116.783V112.542L772.301 115.935L771.453 132.895L774.846 132.33L775.411 131.482C775.694 130.917 776.26 130.351 777.391 129.786C778.239 129.221 779.37 128.655 780.501 128.373C781.915 128.09 783.046 128.373 784.177 128.938C785.308 129.786 785.874 130.634 786.156 132.047C786.439 134.026 786.157 135.722 785.308 137.136C784.177 138.549 782.763 139.68 781.067 139.962C780.218 140.245 779.37 140.245 778.522 140.245C777.674 140.245 776.825 139.962 776.542 139.962C776.26 139.962 775.411 139.68 775.129 139.114C774.563 138.832 774.28 138.549 774.28 138.549C773.998 138.549 773.998 138.266 773.998 138.266L771.17 141.941L771.735 142.507C772.018 142.789 772.584 143.072 773.149 143.355C773.715 143.637 774.563 143.92 775.129 144.203C775.977 144.485 776.825 144.768 778.239 144.768C779.37 144.768 780.784 144.768 781.915 144.485C785.308 143.637 787.853 142.224 789.832 139.68C791.812 137.136 792.377 134.026 791.529 130.917C790.963 128.655 789.832 126.959 787.853 125.828C785.308 123.85 783.046 123.567 780.501 124.132Z" fill="white"/>
  <path d="M1098.61 116.783C1098.61 116.217 1098.05 115.652 1097.48 115.369C1096.92 115.087 1096.35 114.804 1095.5 115.087C1094.65 115.369 1094.09 115.652 1093.52 116.5C1092.96 117.348 1092.96 117.913 1092.96 118.762C1093.24 119.327 1093.52 119.892 1094.09 120.458C1094.65 120.74 1095.22 121.023 1096.07 120.74C1096.92 120.458 1097.48 120.175 1098.05 119.327C1098.61 118.196 1098.61 117.348 1098.61 116.783ZM1097.48 111.695L1098.33 89.6455L1093.52 90.7762L1094.37 112.543L1097.48 111.695ZM1081.93 122.719L1085.89 121.871V101.518L1081.93 102.366V113.108C1081.93 115.087 1081.36 116.783 1080.52 117.913C1079.67 119.327 1078.54 119.892 1076.84 120.458C1075.71 120.74 1074.58 120.458 1073.73 119.892C1072.88 119.327 1072.32 118.479 1072.03 117.348C1072.03 117.065 1072.03 116.5 1072.03 116.217V104.345L1068.07 105.193V117.065C1068.07 117.913 1068.07 118.479 1068.36 119.327C1068.64 121.306 1069.77 122.719 1071.18 123.567C1072.6 124.415 1074.29 124.698 1076.56 124.132C1077.69 123.85 1078.54 123.567 1079.67 122.719C1080.52 122.154 1081.36 121.588 1081.65 121.306C1081.93 121.023 1082.21 120.74 1082.21 120.458L1081.93 122.719ZM1051.67 117.631L1044.6 110.281L1041.49 110.846V131.199L1045.45 130.351V117.065L1051.67 123.567L1057.89 114.239V127.525L1061.85 126.677V106.324L1058.46 107.172L1051.67 117.631ZM1031.88 133.461L1035.84 132.613V112.26L1031.88 113.108V123.85C1031.88 125.829 1031.31 127.525 1030.47 128.655C1029.62 130.069 1028.49 130.634 1026.79 131.199C1025.66 131.482 1024.53 131.199 1023.68 130.634C1022.83 130.069 1022.27 129.221 1021.98 128.09C1021.98 127.807 1021.98 127.242 1021.98 126.959V115.087L1018.02 115.935V127.807C1018.02 128.655 1018.02 129.221 1018.31 130.069C1018.59 132.047 1019.72 133.461 1021.13 134.309C1022.55 135.157 1024.25 135.44 1026.51 134.874C1027.64 134.592 1028.49 134.309 1029.62 133.461C1030.47 132.896 1031.31 132.33 1031.6 132.047C1031.88 131.765 1032.16 131.482 1032.16 131.199L1031.88 133.461ZM993.141 132.613C993.706 135.157 995.12 137.136 997.1 138.549C999.362 139.962 1001.62 140.528 1004.17 139.962C1007 139.397 1009.54 137.701 1011.52 134.874C1013.5 132.047 1014.07 129.221 1013.5 126.394C1012.93 123.85 1011.52 121.871 1009.54 120.458C1007.56 119.044 1005.02 118.479 1002.47 119.044C999.362 119.61 997.1 121.306 995.12 124.132C993.141 126.959 992.575 129.786 993.141 132.613ZM1003.89 136.005C1002.47 136.288 1001.06 136.005 999.645 135.157C998.513 134.309 997.665 133.178 997.382 131.482C996.817 129.503 997.382 127.525 998.513 125.828C999.645 124.132 1001.06 123.002 1003.04 122.436C1004.73 122.154 1006.15 122.436 1007.28 123.284C1008.41 124.132 1009.26 125.263 1009.54 126.959C1009.82 128.938 1009.54 130.634 1008.41 132.613C1007 134.592 1005.58 135.722 1003.89 136.005ZM982.961 131.199L977.589 132.33V128.09L982.679 126.959C983.244 126.959 983.527 126.959 984.092 127.242C984.375 127.525 984.658 127.807 984.941 128.373C985.223 128.938 984.941 129.786 984.658 130.351C984.092 130.917 983.527 131.199 982.961 131.199ZM982.961 134.592C983.527 134.309 984.375 134.592 984.658 134.874C985.223 135.157 985.506 135.722 985.506 136.288C985.789 137.136 985.506 137.984 985.223 138.832C984.658 139.397 984.092 139.962 983.244 140.245L977.306 141.376V135.722L982.961 134.592ZM973.347 125.546V145.899L983.527 143.637C985.789 143.072 987.486 142.224 988.617 140.811C989.748 139.397 990.03 137.701 989.748 135.722C989.465 134.874 989.182 134.309 988.617 133.744C988.051 133.178 987.486 132.895 987.203 132.613C986.92 132.613 986.637 132.33 986.355 132.33L986.637 132.047C986.92 131.765 986.92 131.765 987.203 131.482C987.486 131.199 987.486 130.917 987.768 130.634C988.051 130.351 988.051 130.069 988.334 129.503C988.334 129.221 988.617 128.655 988.617 128.373C988.617 127.807 988.617 127.525 988.617 126.959C988.334 125.829 987.486 124.698 986.355 124.132C985.223 123.567 983.81 123.284 982.113 123.567L973.347 125.546ZM963.733 147.878L967.692 147.029V135.157C967.692 134.309 967.692 133.461 967.409 132.613C967.126 130.634 965.995 129.221 964.864 128.373C963.451 127.525 961.754 127.525 960.057 127.807C959.209 128.09 958.361 128.373 957.795 128.655C956.947 128.938 956.381 129.503 956.099 129.786C955.533 130.069 955.25 130.634 954.968 131.199C954.685 131.765 954.402 132.047 954.402 132.047C954.402 132.33 954.119 132.33 954.119 132.33L953.836 132.047C953.554 131.765 953.554 131.765 952.988 131.482C952.423 131.199 952.14 130.917 951.857 130.634C951.292 130.351 950.726 130.351 950.16 130.069C949.595 129.786 948.747 130.069 947.898 130.069C947.05 130.351 945.919 130.634 945.071 131.482C944.222 132.047 943.657 132.613 943.374 132.895C943.091 133.178 943.091 133.461 942.809 133.744V131.482L938.85 132.33V152.683L942.809 151.835V140.811C942.809 138.832 943.091 137.418 943.94 136.288C944.788 135.157 945.919 134.309 947.05 134.026C948.181 133.744 949.029 134.026 949.595 134.309C950.161 134.874 950.726 135.44 951.009 136.57C951.009 137.136 951.292 137.701 951.292 138.266V150.139L955.25 149.291V138.266C955.25 136.288 955.816 134.874 956.381 133.744C957.23 132.613 958.361 131.765 959.492 131.482C960.623 131.199 961.471 131.482 962.037 131.765C962.602 132.33 963.168 132.895 963.451 134.026C963.451 134.592 963.733 135.157 963.733 135.722V147.878ZM920.47 157.206L924.429 156.358V144.485C924.429 143.637 924.429 142.789 924.146 141.941C923.863 139.962 922.732 138.549 921.601 137.701C920.187 136.853 918.491 136.853 916.794 137.136C915.946 137.418 915.098 137.701 914.532 137.984C913.966 138.266 913.118 138.832 912.835 139.114C912.27 139.397 911.987 139.962 911.704 140.528C911.422 141.093 911.139 141.376 911.139 141.376C911.139 141.659 910.856 141.659 910.856 141.659L910.573 141.376C910.291 141.093 910.291 141.093 909.725 140.811C909.442 140.528 908.877 140.245 908.594 139.962C908.028 139.68 907.463 139.68 906.897 139.397C906.332 139.114 905.483 139.397 904.635 139.68C903.787 139.962 902.656 140.245 901.808 141.093C900.959 141.659 900.394 142.224 900.111 142.507C899.828 142.789 899.828 143.072 899.545 143.355V141.093L895.587 141.941V162.294L899.545 161.446V150.422C899.545 148.443 900.111 147.029 900.676 145.899C901.525 144.768 902.656 143.92 903.787 143.637C904.918 143.355 905.766 143.637 906.332 143.92C906.897 144.485 907.463 145.051 907.746 146.181C907.746 146.747 908.028 147.312 908.028 147.878V159.75L911.987 158.902V147.878C911.987 145.899 912.27 144.485 913.118 143.355C913.966 142.224 915.098 141.376 916.229 141.093C917.36 140.811 918.208 141.093 918.773 141.376C919.339 141.941 919.905 142.507 920.187 143.637C920.187 144.203 920.47 144.768 920.47 145.333V157.206ZM878.904 167.948C878.055 170.209 876.924 171.34 875.51 171.623C874.945 171.623 874.096 171.623 873.531 171.623V175.58H873.814C874.096 175.58 874.379 175.58 874.945 175.58C875.51 175.58 876.076 175.58 876.359 175.297C877.772 175.015 879.186 174.167 880.035 173.036C880.883 171.905 882.014 169.927 882.862 167.1L891.628 142.789L887.104 143.637L881.448 159.75L875.793 146.181L871.552 147.029L879.469 165.686L878.904 167.948ZM855.151 162.577L864.765 160.598V169.078L868.724 168.23V147.878L864.765 148.726V156.923L855.151 158.902V150.704L851.192 151.552V171.905L855.151 171.057V162.577ZM834.226 154.662C831.399 155.227 828.854 156.923 826.875 159.75C824.895 162.577 824.33 165.686 825.178 169.078C825.744 171.34 826.875 173.036 828.854 174.449C830.833 175.863 832.813 176.145 835.075 175.58C836.206 175.297 837.337 174.732 838.185 174.167C839.316 173.601 839.882 173.036 840.165 172.753C840.447 172.471 840.73 172.188 840.73 171.905V174.167L844.689 173.319V152.966L840.73 153.814V156.358L839.882 155.793C839.316 155.51 838.468 155.227 837.337 154.945C836.489 154.379 835.358 154.379 834.226 154.662ZM835.358 171.905C833.944 172.188 832.813 171.905 831.682 171.057C830.551 170.209 829.702 169.078 829.42 167.665C828.854 165.686 829.42 163.708 830.551 161.729C831.682 159.75 833.095 158.619 835.075 158.337C836.489 158.054 837.62 158.337 838.751 158.902C839.882 159.75 840.73 160.881 841.013 162.294C841.578 164.273 841.013 166.252 839.882 168.23C838.468 170.209 837.054 171.34 835.358 171.905ZM816.695 179.255L820.654 178.407V166.534C820.654 165.686 820.654 164.838 820.371 163.99C820.088 162.011 818.957 160.598 817.826 159.75C816.412 158.902 814.716 158.902 813.019 159.185C812.171 159.467 811.322 159.75 810.757 160.033C809.909 160.315 809.343 160.881 809.06 161.163C808.495 161.446 808.212 162.011 807.929 162.577C807.647 163.142 807.364 163.425 807.364 163.425C807.364 163.708 807.081 163.708 807.081 163.708L806.798 163.425C806.515 163.142 806.515 163.142 805.95 162.86C805.384 162.577 805.102 162.294 804.819 162.012C804.253 161.729 803.688 161.729 803.122 161.446C802.557 161.163 801.708 161.446 800.86 161.446C800.012 161.729 798.881 162.011 798.032 162.86C797.184 163.425 796.619 163.99 796.336 164.273C796.053 164.556 796.053 164.838 795.77 165.121V162.86L791.812 163.708V184.061L795.77 183.212V172.188C795.77 170.209 796.336 168.796 796.901 167.665C797.75 166.534 798.881 165.686 800.012 165.404C801.143 165.121 801.991 165.404 802.557 165.686C803.122 166.252 803.688 166.817 803.971 167.948C803.971 168.513 804.253 169.078 804.253 169.644V181.516L808.212 180.668V169.644C808.212 167.665 808.778 166.252 809.343 165.121C810.191 163.99 811.323 163.142 812.454 162.86C813.585 162.577 814.433 162.86 814.998 163.142C815.564 163.708 816.13 164.273 816.412 165.404C816.412 165.969 816.695 166.534 816.695 167.1V179.255ZM768.908 180.668C769.473 182.93 770.604 184.909 772.866 186.322C774.846 187.735 777.108 188.018 779.653 187.735C780.501 187.453 781.632 187.17 782.48 186.605C783.329 186.039 784.177 185.474 784.742 185.191C785.308 184.626 785.874 184.061 786.156 183.495C786.722 182.93 787.005 182.647 787.005 182.364C787.005 182.082 787.287 182.082 787.287 181.799L784.46 179.538L783.894 180.386C783.611 180.951 783.046 181.516 782.198 182.364C781.349 183.212 780.501 183.495 779.37 183.778C777.956 184.061 776.542 183.778 775.411 182.93C774.28 182.082 773.432 180.951 773.149 179.538C772.584 177.276 773.149 175.297 774.28 173.601C775.411 171.623 777.108 170.492 778.804 170.209C779.935 169.927 780.784 169.927 781.915 170.209C783.046 170.492 783.611 170.775 783.894 171.057C784.177 171.34 784.46 171.623 784.742 171.623L787.287 168.513L786.156 167.665C785.591 167.1 784.46 166.534 783.046 166.252C781.632 165.969 780.218 165.969 778.522 166.252C775.411 166.817 772.866 168.796 770.887 171.623C768.908 174.732 768.342 177.559 768.908 180.668Z" fill="white"/>
  <path d="M737.803 46.1128V0.884033L723.665 3.99351L710.375 24.9118V6.8203L694.257 10.2125V55.4412L708.395 52.3317L721.685 31.1308V49.2223L737.803 46.1128ZM685.774 57.1373V11.9085L671.636 15.018L658.346 35.9363V17.8448L642.228 21.237V66.4657L656.367 63.3563L669.657 42.1553V60.2468L685.774 57.1373ZM591.048 77.2076L621.304 70.7059V79.1863L637.421 75.7942V52.6144L632.897 53.4625V23.2157L616.779 26.6079V56.8546L607.165 58.8334V28.5866L591.048 31.9788V77.2076ZM562.771 68.7272L570.971 81.4478L587.937 77.7729L573.233 54.8759L586.806 32.8268L568.426 36.7844L559.661 51.201V38.7631L543.543 42.1553V87.384L559.661 83.9919V74.0981L562.771 68.7272ZM518.66 72.6847L514.418 73.5327L516.68 63.9216L518.66 72.6847ZM525.163 46.1128L507.066 50.0703L491.797 98.4085L509.611 94.7337L511.308 86.536L521.77 84.2746L523.749 91.6242L540.715 87.9494L525.163 46.1128ZM457.017 72.9674C457.582 72.9674 458.148 72.9674 458.713 73.25C459.279 73.5327 459.561 73.8154 459.561 74.3808C459.844 75.2288 459.561 75.7942 459.279 76.3595C458.996 76.9249 458.148 77.4902 457.299 77.4902L454.754 78.0556V73.5327L457.017 72.9674ZM454.472 94.1684V89.0801L458.713 88.2321C459.279 87.9494 460.127 88.2321 460.41 88.5148C460.975 88.7974 461.258 89.3628 461.258 89.9282C461.541 90.7762 461.258 91.3415 460.693 92.1896C460.127 93.0376 459.562 93.3203 458.713 93.603L454.472 94.1684ZM462.106 104.627C468.327 103.214 472.569 100.953 475.396 97.5605C478.224 94.1683 479.072 90.7762 478.224 86.8187C477.941 85.688 477.376 84.5572 476.81 83.7092C475.962 82.8611 475.396 82.0131 474.548 81.7304C473.7 81.4478 472.852 80.8824 472.003 80.5997C471.155 80.317 470.589 80.0344 470.024 80.0344C469.741 80.0344 469.458 80.0344 469.176 80.0344C469.458 80.0344 470.024 79.469 471.155 78.621C475.114 75.2288 476.527 71.554 475.679 67.3138C475.114 64.487 473.134 62.2255 470.307 60.8121C467.196 59.3987 463.237 59.1161 458.43 60.2468L438.071 64.487V109.716L462.106 104.627ZM416.298 114.521V69.2925L402.16 72.402L388.87 93.3203V75.2288L372.752 78.621V123.85L386.891 120.74L400.181 99.5393V117.631L416.298 114.521ZM394.525 61.0948C393.677 61.3775 393.112 61.0948 392.546 60.5295C391.98 59.9641 391.698 59.3987 391.698 58.268L381.801 60.2468C381.801 63.6389 383.215 66.183 385.76 68.1618C388.305 69.8579 391.698 70.4233 395.374 69.8579C399.05 69.0099 401.877 67.3138 403.857 64.487C405.836 61.6602 406.967 58.5507 406.967 55.1585L397.07 57.1373C397.07 58.268 396.787 59.116 396.222 59.6814C395.939 60.5294 395.374 60.8121 394.525 61.0948ZM324.965 88.7974L339.386 114.804L339.103 115.369C338.82 115.652 338.255 116.217 337.407 116.783C336.558 117.348 335.71 117.631 334.862 117.913C333.731 118.196 332.317 118.196 330.903 118.196V132.613H332.034C332.6 132.613 333.731 132.613 335.145 132.33C336.558 132.33 337.689 132.047 339.103 131.765C346.455 130.351 351.828 124.698 355.504 115.369L369.925 79.469L352.11 83.1438L347.303 98.6912L341.083 85.4053L324.965 88.7974ZM304.606 105.193C305.171 105.193 305.737 105.193 306.302 105.476C306.868 105.758 307.151 106.041 307.151 106.606C307.433 107.454 307.151 108.02 306.868 108.585C306.585 109.15 305.737 109.716 304.889 109.716L302.344 110.281V105.758L304.606 105.193ZM302.344 126.394V121.306L306.585 120.458C307.151 120.175 307.999 120.458 308.282 120.74C308.847 121.023 309.13 121.588 309.13 122.154C309.413 123.002 309.13 123.567 308.565 124.415C307.999 124.98 307.433 125.546 306.585 125.828L302.344 126.394ZM309.696 137.136C315.916 135.722 320.158 133.461 322.986 130.069C325.813 126.677 326.662 123.284 325.813 119.327C325.53 118.196 324.965 117.065 324.399 116.217C323.551 115.369 322.986 114.521 322.137 114.239C321.289 113.673 320.441 113.391 319.592 113.108C318.744 112.825 318.179 112.543 317.613 112.543C317.33 112.543 317.047 112.543 316.765 112.543C317.047 112.543 317.613 111.977 318.744 111.129C322.703 107.737 324.117 104.062 323.268 99.8219C322.703 96.9951 320.723 94.7337 317.896 93.3203C314.785 91.9069 310.827 91.6242 306.02 92.755L285.66 96.9951V142.224L309.696 137.136ZM242.397 106.324V121.871L253.425 119.61V149.291L269.543 145.899V116.217L280.571 113.956V98.4085L242.397 106.324ZM231.087 135.722L229.956 137.136C229.39 137.984 228.259 139.114 226.845 139.962C225.431 141.093 223.735 141.659 222.038 141.941C219.776 142.507 217.797 142.224 215.817 140.811C214.121 139.68 212.99 137.984 212.424 136.005C211.859 133.461 212.424 130.917 214.121 128.373C215.817 125.828 218.079 124.415 221.19 123.85C222.321 123.567 223.169 123.567 224.3 123.567C225.431 123.567 226.28 123.85 227.128 124.132C227.976 124.415 228.542 124.698 229.39 124.98C229.956 125.263 230.521 125.546 230.804 125.828C231.087 126.111 231.087 126.111 231.369 126.111L240.701 113.956L239.852 113.108C239.287 112.543 238.156 111.977 237.025 111.412C235.611 110.846 234.197 110.281 232.783 109.716C231.087 109.15 229.107 108.868 226.845 108.585C224.583 108.585 222.038 108.585 219.776 109.15C211.576 110.846 205.355 114.804 201.113 121.023C196.872 127.242 195.458 133.744 196.872 141.093C198.003 146.464 201.114 150.704 206.203 153.531C211.293 156.641 216.666 157.489 222.886 156.075C225.431 155.51 227.693 154.662 229.673 153.814C231.652 152.966 233.632 151.552 234.763 150.704C236.176 149.574 237.308 148.443 238.439 147.312C239.57 146.181 240.135 145.333 240.418 144.768L240.984 143.637L231.087 135.722ZM176.513 145.333L172.271 146.181L174.534 136.57L176.513 145.333ZM183.016 118.761L164.919 122.719L149.65 171.057L167.464 167.382L169.161 159.185L179.623 156.923L181.603 164.273L198.569 160.598L183.016 118.761ZM122.505 131.765L106.387 135.157V149.291C106.387 151.27 106.387 152.966 106.952 154.662C107.801 158.902 109.78 161.729 112.608 163.708C115.435 165.404 119.111 165.969 123.636 164.838C126.181 164.273 128.443 163.425 130.422 162.011V175.015L146.54 171.623V126.394L130.422 129.786V147.595L130.139 147.878C129.856 148.16 129.291 148.443 128.725 148.726C128.16 149.008 127.594 149.291 127.029 149.291C125.898 149.574 125.049 149.291 124.201 149.008C123.353 148.443 122.787 147.878 122.505 146.747C122.505 146.464 122.505 146.181 122.505 145.899V131.765ZM59.165 145.333L73.5861 171.34L73.3033 171.905C73.0206 172.188 72.455 172.753 71.6067 173.319C70.7584 173.884 69.9101 174.167 69.0618 174.449C67.9308 174.732 66.5169 174.732 65.1031 174.732V189.149H66.2342C66.7997 189.149 67.9308 189.149 69.3446 188.866C70.7584 188.866 71.8895 188.583 73.3033 188.301C80.6552 186.887 86.0278 181.234 89.7037 171.905L104.125 136.005L86.3106 139.68L81.5035 155.227L75.2827 141.941L59.165 145.333Z" fill="#FEC81E"/>
</svg>
